<?xml version="1.0" encoding="UTF-8" standalone="no"?>
<!DOCTYPE svg PUBLIC "-//W3C//DTD SVG 1.1//EN"
 "http://www.w3.org/Graphics/SVG/1.1/DTD/svg11.dtd">
<!-- Generated by graphviz version 2.47.0 (20210316.0004)
 -->
<!-- Title: dependencies Pages: 1 -->
<svg width="532pt" height="211pt"
 viewBox="0.00 0.00 532.00 211.00" xmlns="http://www.w3.org/2000/svg" xmlns:xlink="http://www.w3.org/1999/xlink">
<g id="graph0" class="graph" transform="scale(1 1) rotate(0) translate(4 207)">
<title>dependencies</title>
<polygon fill="white" stroke="transparent" points="-4,4 -4,-207 528,-207 528,4 -4,4"/>
<text text-anchor="start" x="241.01" y="-42.4" font-family="Times-12" font-weight="bold" font-size="14.00">Legend</text>
<polygon fill="#ffffb3" stroke="transparent" points="28,-10 28,-30 48,-30 48,-10 28,-10"/>
<text text-anchor="start" x="51.63" y="-15.4" font-family="Times-12" font-size="14.00"> &#160;Declarations</text>
<polygon fill="#8dd3c7" stroke="transparent" points="141,-10 141,-30 161,-30 161,-10 141,-10"/>
<text text-anchor="start" x="164.73" y="-15.4" font-family="Times-12" font-size="14.00"> &#160;Module</text>
<polygon fill="#80b1d3" stroke="transparent" points="227,-10 227,-30 247,-30 247,-10 227,-10"/>
<text text-anchor="start" x="250.78" y="-15.4" font-family="Times-12" font-size="14.00"> &#160;Bootstrap</text>
<polygon fill="#fdb462" stroke="transparent" points="324,-10 324,-30 344,-30 344,-10 324,-10"/>
<text text-anchor="start" x="347.67" y="-15.4" font-family="Times-12" font-size="14.00"> &#160;Providers</text>
<polygon fill="#fb8072" stroke="transparent" points="420,-10 420,-30 440,-30 440,-10 420,-10"/>
<text text-anchor="start" x="443.73" y="-15.4" font-family="Times-12" font-size="14.00"> &#160;Exports</text>
<g id="clust1" class="cluster">
<title>cluster_HistoryModule</title>
<polygon fill="none" stroke="black" stroke-dasharray="1,5" points="8,-70 8,-195 516,-195 516,-70 8,-70"/>
</g>
<g id="clust4" class="cluster">
<title>cluster_HistoryModule_imports</title>
<polygon fill="none" stroke="black" points="164,-78 164,-130 508,-130 508,-78 164,-78"/>
</g>
<g id="clust2" class="cluster">
<title>cluster_HistoryModule_declarations</title>
<polygon fill="none" stroke="black" points="16,-78 16,-130 156,-130 156,-78 16,-78"/>
</g>
<!-- HistoryComponent -->
<g id="node1" class="node">
<title>HistoryComponent</title>
<polygon fill="#ffffb3" stroke="black" points="147.83,-122 24.17,-122 24.17,-86 147.83,-86 147.83,-122"/>
<text text-anchor="middle" x="86" y="-99.8" font-family="Times,serif" font-size="14.00">HistoryComponent</text>
</g>
<!-- HistoryModule -->
<g id="node2" class="node">
<title>HistoryModule</title>
<polygon fill="#8dd3c7" stroke="black" points="304.54,-187 301.54,-191 280.54,-191 277.54,-187 203.46,-187 203.46,-151 304.54,-151 304.54,-187"/>
<text text-anchor="middle" x="254" y="-164.8" font-family="Times,serif" font-size="14.00">HistoryModule</text>
</g>
<!-- HistoryComponent&#45;&gt;HistoryModule -->
<g id="edge1" class="edge">
<title>HistoryComponent&#45;&gt;HistoryModule</title>
<path fill="none" stroke="black" d="M86,-122.11C86,-141.34 86,-169 86,-169 86,-169 193.14,-169 193.14,-169"/>
<polygon fill="black" stroke="black" points="193.14,-172.5 203.14,-169 193.14,-165.5 193.14,-172.5"/>
</g>
<!-- HistoryRoutingModule -->
<g id="node3" class="node">
<title>HistoryRoutingModule</title>
<polygon fill="#8dd3c7" stroke="black" points="500.16,-122 497.16,-126 476.16,-126 473.16,-122 353.84,-122 353.84,-86 500.16,-86 500.16,-122"/>
<text text-anchor="middle" x="427" y="-99.8" font-family="Times,serif" font-size="14.00">HistoryRoutingModule</text>
</g>
<!-- HistoryRoutingModule&#45;&gt;HistoryModule -->
<g id="edge2" class="edge">
<title>HistoryRoutingModule&#45;&gt;HistoryModule</title>
<path fill="none" stroke="black" d="M427,-122.11C427,-141.34 427,-169 427,-169 427,-169 314.97,-169 314.97,-169"/>
<polygon fill="black" stroke="black" points="314.97,-165.5 304.97,-169 314.97,-172.5 314.97,-165.5"/>
</g>
<!-- RevisionSummaryModule -->
<g id="node4" class="node">
<title>RevisionSummaryModule</title>
<polygon fill="#8dd3c7" stroke="black" points="335.77,-122 332.77,-126 311.77,-126 308.77,-122 172.23,-122 172.23,-86 335.77,-86 335.77,-122"/>
<text text-anchor="middle" x="254" y="-99.8" font-family="Times,serif" font-size="14.00">RevisionSummaryModule</text>
</g>
<!-- RevisionSummaryModule&#45;&gt;HistoryModule -->
<g id="edge3" class="edge">
<title>RevisionSummaryModule&#45;&gt;HistoryModule</title>
<path fill="none" stroke="black" d="M254,-122.11C254,-122.11 254,-140.99 254,-140.99"/>
<polygon fill="black" stroke="black" points="250.5,-140.99 254,-150.99 257.5,-140.99 250.5,-140.99"/>
</g>
</g>
</svg>
