<?xml version="1.0" encoding="UTF-8" standalone="no"?>
<!DOCTYPE svg PUBLIC "-//W3C//DTD SVG 1.1//EN"
 "http://www.w3.org/Graphics/SVG/1.1/DTD/svg11.dtd">
<!-- Generated by graphviz version 2.47.0 (20210316.0004)
 -->
<!-- Title: dependencies Pages: 1 -->
<svg width="572pt" height="211pt"
 viewBox="0.00 0.00 572.00 211.00" xmlns="http://www.w3.org/2000/svg" xmlns:xlink="http://www.w3.org/1999/xlink">
<g id="graph0" class="graph" transform="scale(1 1) rotate(0) translate(4 207)">
<title>dependencies</title>
<polygon fill="white" stroke="transparent" points="-4,4 -4,-207 568,-207 568,4 -4,4"/>
<text text-anchor="start" x="261.01" y="-42.4" font-family="Times-12" font-weight="bold" font-size="14.00">Legend</text>
<polygon fill="#ffffb3" stroke="transparent" points="48,-10 48,-30 68,-30 68,-10 48,-10"/>
<text text-anchor="start" x="71.63" y="-15.4" font-family="Times-12" font-size="14.00"> &#160;Declarations</text>
<polygon fill="#8dd3c7" stroke="transparent" points="161,-10 161,-30 181,-30 181,-10 161,-10"/>
<text text-anchor="start" x="184.73" y="-15.4" font-family="Times-12" font-size="14.00"> &#160;Module</text>
<polygon fill="#80b1d3" stroke="transparent" points="247,-10 247,-30 267,-30 267,-10 247,-10"/>
<text text-anchor="start" x="270.78" y="-15.4" font-family="Times-12" font-size="14.00"> &#160;Bootstrap</text>
<polygon fill="#fdb462" stroke="transparent" points="344,-10 344,-30 364,-30 364,-10 344,-10"/>
<text text-anchor="start" x="367.67" y="-15.4" font-family="Times-12" font-size="14.00"> &#160;Providers</text>
<polygon fill="#fb8072" stroke="transparent" points="440,-10 440,-30 460,-30 460,-10 440,-10"/>
<text text-anchor="start" x="463.73" y="-15.4" font-family="Times-12" font-size="14.00"> &#160;Exports</text>
<g id="clust1" class="cluster">
<title>cluster_CrossCuttingModule</title>
<polygon fill="none" stroke="black" stroke-dasharray="1,5" points="8,-70 8,-195 556,-195 556,-70 8,-70"/>
</g>
<g id="clust2" class="cluster">
<title>cluster_CrossCuttingModule_declarations</title>
<polygon fill="none" stroke="black" points="376,-78 376,-130 548,-130 548,-78 376,-78"/>
</g>
<g id="clust4" class="cluster">
<title>cluster_CrossCuttingModule_imports</title>
<polygon fill="none" stroke="black" points="16,-78 16,-130 368,-130 368,-78 16,-78"/>
</g>
<!-- CrossCuttingComponent -->
<g id="node1" class="node">
<title>CrossCuttingComponent</title>
<polygon fill="#ffffb3" stroke="black" points="539.73,-122 384.27,-122 384.27,-86 539.73,-86 539.73,-122"/>
<text text-anchor="middle" x="462" y="-99.8" font-family="Times,serif" font-size="14.00">CrossCuttingComponent</text>
</g>
<!-- CrossCuttingModule -->
<g id="node2" class="node">
<title>CrossCuttingModule</title>
<polygon fill="#8dd3c7" stroke="black" points="337.95,-187 334.95,-191 313.95,-191 310.95,-187 204.05,-187 204.05,-151 337.95,-151 337.95,-187"/>
<text text-anchor="middle" x="271" y="-164.8" font-family="Times,serif" font-size="14.00">CrossCuttingModule</text>
</g>
<!-- CrossCuttingComponent&#45;&gt;CrossCuttingModule -->
<g id="edge1" class="edge">
<title>CrossCuttingComponent&#45;&gt;CrossCuttingModule</title>
<path fill="none" stroke="black" d="M462,-122.11C462,-141.34 462,-169 462,-169 462,-169 347.8,-169 347.8,-169"/>
<polygon fill="black" stroke="black" points="347.8,-165.5 337.8,-169 347.8,-172.5 347.8,-165.5"/>
</g>
<!-- CrossCuttingRoutingModule -->
<g id="node3" class="node">
<title>CrossCuttingRoutingModule</title>
<polygon fill="#8dd3c7" stroke="black" points="360.06,-122 357.06,-126 336.06,-126 333.06,-122 181.94,-122 181.94,-86 360.06,-86 360.06,-122"/>
<text text-anchor="middle" x="271" y="-99.8" font-family="Times,serif" font-size="14.00">CrossCuttingRoutingModule</text>
</g>
<!-- CrossCuttingRoutingModule&#45;&gt;CrossCuttingModule -->
<g id="edge2" class="edge">
<title>CrossCuttingRoutingModule&#45;&gt;CrossCuttingModule</title>
<path fill="none" stroke="black" d="M271,-122.11C271,-122.11 271,-140.99 271,-140.99"/>
<polygon fill="black" stroke="black" points="267.5,-140.99 271,-150.99 274.5,-140.99 267.5,-140.99"/>
</g>
<!-- ExtraIndicatorModule -->
<g id="node4" class="node">
<title>ExtraIndicatorModule</title>
<polygon fill="#8dd3c7" stroke="black" points="164.4,-122 161.4,-126 140.4,-126 137.4,-122 23.6,-122 23.6,-86 164.4,-86 164.4,-122"/>
<text text-anchor="middle" x="94" y="-99.8" font-family="Times,serif" font-size="14.00">ExtraIndicatorModule</text>
</g>
<!-- ExtraIndicatorModule&#45;&gt;CrossCuttingModule -->
<g id="edge3" class="edge">
<title>ExtraIndicatorModule&#45;&gt;CrossCuttingModule</title>
<path fill="none" stroke="black" d="M94,-122.11C94,-141.34 94,-169 94,-169 94,-169 194.08,-169 194.08,-169"/>
<polygon fill="black" stroke="black" points="194.08,-172.5 204.08,-169 194.08,-165.5 194.08,-172.5"/>
</g>
</g>
</svg>
