<?xml version="1.0" encoding="UTF-8" standalone="no"?>
<!DOCTYPE svg PUBLIC "-//W3C//DTD SVG 1.1//EN"
 "http://www.w3.org/Graphics/SVG/1.1/DTD/svg11.dtd">
<!-- Generated by graphviz version 2.47.0 (20210316.0004)
 -->
<!-- Title: dependencies Pages: 1 -->
<svg width="694pt" height="211pt"
 viewBox="0.00 0.00 694.00 211.00" xmlns="http://www.w3.org/2000/svg" xmlns:xlink="http://www.w3.org/1999/xlink">
<g id="graph0" class="graph" transform="scale(1 1) rotate(0) translate(4 207)">
<title>dependencies</title>
<polygon fill="white" stroke="transparent" points="-4,4 -4,-207 690,-207 690,4 -4,4"/>
<text text-anchor="start" x="322.01" y="-42.4" font-family="Times-12" font-weight="bold" font-size="14.00">Legend</text>
<polygon fill="#ffffb3" stroke="transparent" points="109,-10 109,-30 129,-30 129,-10 109,-10"/>
<text text-anchor="start" x="132.63" y="-15.4" font-family="Times-12" font-size="14.00"> &#160;Declarations</text>
<polygon fill="#8dd3c7" stroke="transparent" points="222,-10 222,-30 242,-30 242,-10 222,-10"/>
<text text-anchor="start" x="245.73" y="-15.4" font-family="Times-12" font-size="14.00"> &#160;Module</text>
<polygon fill="#80b1d3" stroke="transparent" points="308,-10 308,-30 328,-30 328,-10 308,-10"/>
<text text-anchor="start" x="331.78" y="-15.4" font-family="Times-12" font-size="14.00"> &#160;Bootstrap</text>
<polygon fill="#fdb462" stroke="transparent" points="405,-10 405,-30 425,-30 425,-10 405,-10"/>
<text text-anchor="start" x="428.67" y="-15.4" font-family="Times-12" font-size="14.00"> &#160;Providers</text>
<polygon fill="#fb8072" stroke="transparent" points="501,-10 501,-30 521,-30 521,-10 501,-10"/>
<text text-anchor="start" x="524.73" y="-15.4" font-family="Times-12" font-size="14.00"> &#160;Exports</text>
<g id="clust1" class="cluster">
<title>cluster_ParametersModule</title>
<polygon fill="none" stroke="black" stroke-dasharray="1,5" points="8,-70 8,-195 678,-195 678,-70 8,-70"/>
</g>
<g id="clust4" class="cluster">
<title>cluster_ParametersModule_imports</title>
<polygon fill="none" stroke="black" points="184,-78 184,-130 670,-130 670,-78 184,-78"/>
</g>
<g id="clust2" class="cluster">
<title>cluster_ParametersModule_declarations</title>
<polygon fill="none" stroke="black" points="16,-78 16,-130 176,-130 176,-78 16,-78"/>
</g>
<!-- ParametersComponent -->
<g id="node1" class="node">
<title>ParametersComponent</title>
<polygon fill="#ffffb3" stroke="black" points="167.52,-122 24.48,-122 24.48,-86 167.52,-86 167.52,-122"/>
<text text-anchor="middle" x="96" y="-99.8" font-family="Times,serif" font-size="14.00">ParametersComponent</text>
</g>
<!-- ParametersModule -->
<g id="node2" class="node">
<title>ParametersModule</title>
<polygon fill="#8dd3c7" stroke="black" points="381.74,-187 378.74,-191 357.74,-191 354.74,-187 260.26,-187 260.26,-151 381.74,-151 381.74,-187"/>
<text text-anchor="middle" x="321" y="-164.8" font-family="Times,serif" font-size="14.00">ParametersModule</text>
</g>
<!-- ParametersComponent&#45;&gt;ParametersModule -->
<g id="edge1" class="edge">
<title>ParametersComponent&#45;&gt;ParametersModule</title>
<path fill="none" stroke="black" d="M96,-122.11C96,-141.34 96,-169 96,-169 96,-169 250.11,-169 250.11,-169"/>
<polygon fill="black" stroke="black" points="250.11,-172.5 260.11,-169 250.11,-165.5 250.11,-172.5"/>
</g>
<!-- InformationsPanelModule -->
<g id="node3" class="node">
<title>InformationsPanelModule</title>
<polygon fill="#8dd3c7" stroke="black" points="662.47,-122 659.47,-126 638.47,-126 635.47,-122 499.53,-122 499.53,-86 662.47,-86 662.47,-122"/>
<text text-anchor="middle" x="581" y="-99.8" font-family="Times,serif" font-size="14.00">InformationsPanelModule</text>
</g>
<!-- InformationsPanelModule&#45;&gt;ParametersModule -->
<g id="edge2" class="edge">
<title>InformationsPanelModule&#45;&gt;ParametersModule</title>
<path fill="none" stroke="black" d="M581,-122.11C581,-141.34 581,-169 581,-169 581,-169 391.96,-169 391.96,-169"/>
<polygon fill="black" stroke="black" points="391.96,-165.5 381.96,-169 391.96,-172.5 391.96,-165.5"/>
</g>
<!-- ParametersRoutingModule -->
<g id="node4" class="node">
<title>ParametersRoutingModule</title>
<polygon fill="#8dd3c7" stroke="black" points="481.36,-122 478.36,-126 457.36,-126 454.36,-122 314.64,-122 314.64,-86 481.36,-86 481.36,-122"/>
<text text-anchor="middle" x="398" y="-99.8" font-family="Times,serif" font-size="14.00">ParametersRoutingModule</text>
</g>
<!-- ParametersRoutingModule&#45;&gt;ParametersModule -->
<g id="edge3" class="edge">
<title>ParametersRoutingModule&#45;&gt;ParametersModule</title>
<path fill="none" stroke="black" d="M348.22,-122.11C348.22,-122.11 348.22,-140.99 348.22,-140.99"/>
<polygon fill="black" stroke="black" points="344.72,-140.99 348.22,-150.99 351.72,-140.99 344.72,-140.99"/>
</g>
<!-- SidenavModule -->
<g id="node5" class="node">
<title>SidenavModule</title>
<polygon fill="#8dd3c7" stroke="black" points="296.15,-122 293.15,-126 272.15,-126 269.15,-122 191.85,-122 191.85,-86 296.15,-86 296.15,-122"/>
<text text-anchor="middle" x="244" y="-99.8" font-family="Times,serif" font-size="14.00">SidenavModule</text>
</g>
<!-- SidenavModule&#45;&gt;ParametersModule -->
<g id="edge4" class="edge">
<title>SidenavModule&#45;&gt;ParametersModule</title>
<path fill="none" stroke="black" d="M278.23,-122.11C278.23,-122.11 278.23,-140.99 278.23,-140.99"/>
<polygon fill="black" stroke="black" points="274.73,-140.99 278.23,-150.99 281.73,-140.99 274.73,-140.99"/>
</g>
</g>
</svg>
