<?xml version="1.0" encoding="UTF-8" standalone="no"?>
<!DOCTYPE svg PUBLIC "-//W3C//DTD SVG 1.1//EN"
 "http://www.w3.org/Graphics/SVG/1.1/DTD/svg11.dtd">
<!-- Generated by graphviz version 2.47.0 (20210316.0004)
 -->
<!-- Title: dependencies Pages: 1 -->
<svg width="708pt" height="211pt"
 viewBox="0.00 0.00 708.00 211.00" xmlns="http://www.w3.org/2000/svg" xmlns:xlink="http://www.w3.org/1999/xlink">
<g id="graph0" class="graph" transform="scale(1 1) rotate(0) translate(4 207)">
<title>dependencies</title>
<polygon fill="white" stroke="transparent" points="-4,4 -4,-207 704,-207 704,4 -4,4"/>
<text text-anchor="start" x="329.01" y="-42.4" font-family="Times-12" font-weight="bold" font-size="14.00">Legend</text>
<polygon fill="#ffffb3" stroke="transparent" points="116,-10 116,-30 136,-30 136,-10 116,-10"/>
<text text-anchor="start" x="139.63" y="-15.4" font-family="Times-12" font-size="14.00"> &#160;Declarations</text>
<polygon fill="#8dd3c7" stroke="transparent" points="229,-10 229,-30 249,-30 249,-10 229,-10"/>
<text text-anchor="start" x="252.73" y="-15.4" font-family="Times-12" font-size="14.00"> &#160;Module</text>
<polygon fill="#80b1d3" stroke="transparent" points="315,-10 315,-30 335,-30 335,-10 315,-10"/>
<text text-anchor="start" x="338.78" y="-15.4" font-family="Times-12" font-size="14.00"> &#160;Bootstrap</text>
<polygon fill="#fdb462" stroke="transparent" points="412,-10 412,-30 432,-30 432,-10 412,-10"/>
<text text-anchor="start" x="435.67" y="-15.4" font-family="Times-12" font-size="14.00"> &#160;Providers</text>
<polygon fill="#fb8072" stroke="transparent" points="508,-10 508,-30 528,-30 528,-10 508,-10"/>
<text text-anchor="start" x="531.73" y="-15.4" font-family="Times-12" font-size="14.00"> &#160;Exports</text>
<g id="clust1" class="cluster">
<title>cluster_UsersModule</title>
<polygon fill="none" stroke="black" stroke-dasharray="1,5" points="8,-70 8,-195 692,-195 692,-70 8,-70"/>
</g>
<g id="clust2" class="cluster">
<title>cluster_UsersModule_declarations</title>
<polygon fill="none" stroke="black" points="554,-78 554,-130 684,-130 684,-78 554,-78"/>
</g>
<g id="clust4" class="cluster">
<title>cluster_UsersModule_imports</title>
<polygon fill="none" stroke="black" points="16,-78 16,-130 546,-130 546,-78 16,-78"/>
</g>
<!-- UsersComponent -->
<g id="node1" class="node">
<title>UsersComponent</title>
<polygon fill="#ffffb3" stroke="black" points="675.7,-122 562.3,-122 562.3,-86 675.7,-86 675.7,-122"/>
<text text-anchor="middle" x="619" y="-99.8" font-family="Times,serif" font-size="14.00">UsersComponent</text>
</g>
<!-- UsersModule -->
<g id="node2" class="node">
<title>UsersModule</title>
<polygon fill="#8dd3c7" stroke="black" points="388.92,-187 385.92,-191 364.92,-191 361.92,-187 297.08,-187 297.08,-151 388.92,-151 388.92,-187"/>
<text text-anchor="middle" x="343" y="-164.8" font-family="Times,serif" font-size="14.00">UsersModule</text>
</g>
<!-- UsersComponent&#45;&gt;UsersModule -->
<g id="edge1" class="edge">
<title>UsersComponent&#45;&gt;UsersModule</title>
<path fill="none" stroke="black" d="M619,-122.28C619,-143.32 619,-175 619,-175 619,-175 398.89,-175 398.89,-175"/>
<polygon fill="black" stroke="black" points="398.89,-171.5 388.89,-175 398.89,-178.5 398.89,-171.5"/>
</g>
<!-- SearchbarModule -->
<g id="node3" class="node">
<title>SearchbarModule</title>
<polygon fill="#8dd3c7" stroke="black" points="537.51,-122 534.51,-126 513.51,-126 510.51,-122 422.49,-122 422.49,-86 537.51,-86 537.51,-122"/>
<text text-anchor="middle" x="480" y="-99.8" font-family="Times,serif" font-size="14.00">SearchbarModule</text>
</g>
<!-- SearchbarModule&#45;&gt;UsersModule -->
<g id="edge2" class="edge">
<title>SearchbarModule&#45;&gt;UsersModule</title>
<path fill="none" stroke="black" d="M480,-122.02C480,-139.37 480,-163 480,-163 480,-163 399,-163 399,-163"/>
<polygon fill="black" stroke="black" points="399,-159.5 389,-163 399,-166.5 399,-159.5"/>
</g>
<!-- UserFiltersModule -->
<g id="node4" class="node">
<title>UserFiltersModule</title>
<polygon fill="#8dd3c7" stroke="black" points="403.75,-122 400.75,-126 379.75,-126 376.75,-122 282.25,-122 282.25,-86 403.75,-86 403.75,-122"/>
<text text-anchor="middle" x="343" y="-99.8" font-family="Times,serif" font-size="14.00">UserFiltersModule</text>
</g>
<!-- UserFiltersModule&#45;&gt;UsersModule -->
<g id="edge3" class="edge">
<title>UserFiltersModule&#45;&gt;UsersModule</title>
<path fill="none" stroke="black" d="M343,-122.11C343,-122.11 343,-140.99 343,-140.99"/>
<polygon fill="black" stroke="black" points="339.5,-140.99 343,-150.99 346.5,-140.99 339.5,-140.99"/>
</g>
<!-- UserModule -->
<g id="node5" class="node">
<title>UserModule</title>
<polygon fill="#8dd3c7" stroke="black" points="263.98,-122 260.98,-126 239.98,-126 236.98,-122 178.02,-122 178.02,-86 263.98,-86 263.98,-122"/>
<text text-anchor="middle" x="221" y="-99.8" font-family="Times,serif" font-size="14.00">UserModule</text>
</g>
<!-- UserModule&#45;&gt;UsersModule -->
<g id="edge4" class="edge">
<title>UserModule&#45;&gt;UsersModule</title>
<path fill="none" stroke="black" d="M221,-122.02C221,-139.37 221,-163 221,-163 221,-163 287.22,-163 287.22,-163"/>
<polygon fill="black" stroke="black" points="287.22,-166.5 297.22,-163 287.22,-159.5 287.22,-166.5"/>
</g>
<!-- UsersRoutingModule -->
<g id="node6" class="node">
<title>UsersRoutingModule</title>
<polygon fill="#8dd3c7" stroke="black" points="160.04,-122 157.04,-126 136.04,-126 133.04,-122 23.96,-122 23.96,-86 160.04,-86 160.04,-122"/>
<text text-anchor="middle" x="92" y="-99.8" font-family="Times,serif" font-size="14.00">UsersRoutingModule</text>
</g>
<!-- UsersRoutingModule&#45;&gt;UsersModule -->
<g id="edge5" class="edge">
<title>UsersRoutingModule&#45;&gt;UsersModule</title>
<path fill="none" stroke="black" d="M92,-122.28C92,-143.32 92,-175 92,-175 92,-175 287.25,-175 287.25,-175"/>
<polygon fill="black" stroke="black" points="287.25,-178.5 297.25,-175 287.25,-171.5 287.25,-178.5"/>
</g>
</g>
</svg>
