<?xml version="1.0" encoding="UTF-8" standalone="no"?>
<!DOCTYPE svg PUBLIC "-//W3C//DTD SVG 1.1//EN"
 "http://www.w3.org/Graphics/SVG/1.1/DTD/svg11.dtd">
<!-- Generated by graphviz version 2.47.0 (20210316.0004)
 -->
<!-- Title: dependencies Pages: 1 -->
<svg width="797pt" height="211pt"
 viewBox="0.00 0.00 797.00 211.00" xmlns="http://www.w3.org/2000/svg" xmlns:xlink="http://www.w3.org/1999/xlink">
<g id="graph0" class="graph" transform="scale(1 1) rotate(0) translate(4 207)">
<title>dependencies</title>
<polygon fill="white" stroke="transparent" points="-4,4 -4,-207 793,-207 793,4 -4,4"/>
<text text-anchor="start" x="373.51" y="-42.4" font-family="Times-12" font-weight="bold" font-size="14.00">Legend</text>
<polygon fill="#ffffb3" stroke="transparent" points="160.5,-10 160.5,-30 180.5,-30 180.5,-10 160.5,-10"/>
<text text-anchor="start" x="184.13" y="-15.4" font-family="Times-12" font-size="14.00"> &#160;Declarations</text>
<polygon fill="#8dd3c7" stroke="transparent" points="273.5,-10 273.5,-30 293.5,-30 293.5,-10 273.5,-10"/>
<text text-anchor="start" x="297.23" y="-15.4" font-family="Times-12" font-size="14.00"> &#160;Module</text>
<polygon fill="#80b1d3" stroke="transparent" points="359.5,-10 359.5,-30 379.5,-30 379.5,-10 359.5,-10"/>
<text text-anchor="start" x="383.28" y="-15.4" font-family="Times-12" font-size="14.00"> &#160;Bootstrap</text>
<polygon fill="#fdb462" stroke="transparent" points="456.5,-10 456.5,-30 476.5,-30 476.5,-10 456.5,-10"/>
<text text-anchor="start" x="480.17" y="-15.4" font-family="Times-12" font-size="14.00"> &#160;Providers</text>
<polygon fill="#fb8072" stroke="transparent" points="552.5,-10 552.5,-30 572.5,-30 572.5,-10 552.5,-10"/>
<text text-anchor="start" x="576.23" y="-15.4" font-family="Times-12" font-size="14.00"> &#160;Exports</text>
<g id="clust1" class="cluster">
<title>cluster_LogicalFramesModule</title>
<polygon fill="none" stroke="black" stroke-dasharray="1,5" points="8,-70 8,-195 781,-195 781,-70 8,-70"/>
</g>
<g id="clust2" class="cluster">
<title>cluster_LogicalFramesModule_declarations</title>
<polygon fill="none" stroke="black" points="591,-78 591,-130 773,-130 773,-78 591,-78"/>
</g>
<g id="clust4" class="cluster">
<title>cluster_LogicalFramesModule_imports</title>
<polygon fill="none" stroke="black" points="16,-78 16,-130 583,-130 583,-78 16,-78"/>
</g>
<!-- LogicalFramesComponent -->
<g id="node1" class="node">
<title>LogicalFramesComponent</title>
<polygon fill="#ffffb3" stroke="black" points="764.8,-122 599.2,-122 599.2,-86 764.8,-86 764.8,-122"/>
<text text-anchor="middle" x="682" y="-99.8" font-family="Times,serif" font-size="14.00">LogicalFramesComponent</text>
</g>
<!-- LogicalFramesModule -->
<g id="node2" class="node">
<title>LogicalFramesModule</title>
<polygon fill="#8dd3c7" stroke="black" points="474.52,-187 471.52,-191 450.52,-191 447.52,-187 331.48,-187 331.48,-151 474.52,-151 474.52,-187"/>
<text text-anchor="middle" x="403" y="-164.8" font-family="Times,serif" font-size="14.00">LogicalFramesModule</text>
</g>
<!-- LogicalFramesComponent&#45;&gt;LogicalFramesModule -->
<g id="edge1" class="edge">
<title>LogicalFramesComponent&#45;&gt;LogicalFramesModule</title>
<path fill="none" stroke="black" d="M682,-122.11C682,-141.34 682,-169 682,-169 682,-169 484.85,-169 484.85,-169"/>
<polygon fill="black" stroke="black" points="484.85,-165.5 474.85,-169 484.85,-172.5 484.85,-165.5"/>
</g>
<!-- LogicalFrameEditModule -->
<g id="node3" class="node">
<title>LogicalFrameEditModule</title>
<polygon fill="#8dd3c7" stroke="black" points="574.91,-122 571.91,-126 550.91,-126 547.91,-122 413.09,-122 413.09,-86 574.91,-86 574.91,-122"/>
<text text-anchor="middle" x="494" y="-99.8" font-family="Times,serif" font-size="14.00">LogicalFrameEditModule</text>
</g>
<!-- LogicalFrameEditModule&#45;&gt;LogicalFramesModule -->
<g id="edge2" class="edge">
<title>LogicalFrameEditModule&#45;&gt;LogicalFramesModule</title>
<path fill="none" stroke="black" d="M444.03,-122.11C444.03,-122.11 444.03,-140.99 444.03,-140.99"/>
<polygon fill="black" stroke="black" points="440.53,-140.99 444.03,-150.99 447.53,-140.99 440.53,-140.99"/>
</g>
<!-- LogicalFramesListModule -->
<g id="node4" class="node">
<title>LogicalFramesListModule</title>
<polygon fill="#8dd3c7" stroke="black" points="395.8,-122 392.8,-126 371.8,-126 368.8,-122 230.2,-122 230.2,-86 395.8,-86 395.8,-122"/>
<text text-anchor="middle" x="313" y="-99.8" font-family="Times,serif" font-size="14.00">LogicalFramesListModule</text>
</g>
<!-- LogicalFramesListModule&#45;&gt;LogicalFramesModule -->
<g id="edge3" class="edge">
<title>LogicalFramesListModule&#45;&gt;LogicalFramesModule</title>
<path fill="none" stroke="black" d="M363.44,-122.11C363.44,-122.11 363.44,-140.99 363.44,-140.99"/>
<polygon fill="black" stroke="black" points="359.94,-140.99 363.44,-150.99 366.94,-140.99 359.94,-140.99"/>
</g>
<!-- LogicalFramesRoutingModule -->
<g id="node5" class="node">
<title>LogicalFramesRoutingModule</title>
<polygon fill="#8dd3c7" stroke="black" points="212.14,-122 209.14,-126 188.14,-126 185.14,-122 23.86,-122 23.86,-86 212.14,-86 212.14,-122"/>
<text text-anchor="middle" x="118" y="-99.8" font-family="Times,serif" font-size="14.00">LogicalFramesRoutingModule</text>
</g>
<!-- LogicalFramesRoutingModule&#45;&gt;LogicalFramesModule -->
<g id="edge4" class="edge">
<title>LogicalFramesRoutingModule&#45;&gt;LogicalFramesModule</title>
<path fill="none" stroke="black" d="M118,-122.11C118,-141.34 118,-169 118,-169 118,-169 321.45,-169 321.45,-169"/>
<polygon fill="black" stroke="black" points="321.45,-172.5 331.45,-169 321.45,-165.5 321.45,-172.5"/>
</g>
</g>
</svg>
