<?xml version="1.0" encoding="UTF-8" standalone="no"?>
<!DOCTYPE svg PUBLIC "-//W3C//DTD SVG 1.1//EN"
 "http://www.w3.org/Graphics/SVG/1.1/DTD/svg11.dtd">
<!-- Generated by graphviz version 2.47.0 (20210316.0004)
 -->
<!-- Title: dependencies Pages: 1 -->
<svg width="1426pt" height="211pt"
 viewBox="0.00 0.00 1426.00 211.00" xmlns="http://www.w3.org/2000/svg" xmlns:xlink="http://www.w3.org/1999/xlink">
<g id="graph0" class="graph" transform="scale(1 1) rotate(0) translate(4 207)">
<title>dependencies</title>
<polygon fill="white" stroke="transparent" points="-4,4 -4,-207 1422,-207 1422,4 -4,4"/>
<text text-anchor="start" x="688.01" y="-42.4" font-family="Times-12" font-weight="bold" font-size="14.00">Legend</text>
<polygon fill="#ffffb3" stroke="transparent" points="475,-10 475,-30 495,-30 495,-10 475,-10"/>
<text text-anchor="start" x="498.63" y="-15.4" font-family="Times-12" font-size="14.00"> &#160;Declarations</text>
<polygon fill="#8dd3c7" stroke="transparent" points="588,-10 588,-30 608,-30 608,-10 588,-10"/>
<text text-anchor="start" x="611.73" y="-15.4" font-family="Times-12" font-size="14.00"> &#160;Module</text>
<polygon fill="#80b1d3" stroke="transparent" points="674,-10 674,-30 694,-30 694,-10 674,-10"/>
<text text-anchor="start" x="697.78" y="-15.4" font-family="Times-12" font-size="14.00"> &#160;Bootstrap</text>
<polygon fill="#fdb462" stroke="transparent" points="771,-10 771,-30 791,-30 791,-10 771,-10"/>
<text text-anchor="start" x="794.67" y="-15.4" font-family="Times-12" font-size="14.00"> &#160;Providers</text>
<polygon fill="#fb8072" stroke="transparent" points="867,-10 867,-30 887,-30 887,-10 867,-10"/>
<text text-anchor="start" x="890.73" y="-15.4" font-family="Times-12" font-size="14.00"> &#160;Exports</text>
<g id="clust1" class="cluster">
<title>cluster_IndicatorsModule</title>
<polygon fill="none" stroke="black" stroke-dasharray="1,5" points="8,-70 8,-195 1410,-195 1410,-70 8,-70"/>
</g>
<g id="clust2" class="cluster">
<title>cluster_IndicatorsModule_declarations</title>
<polygon fill="none" stroke="black" points="1060,-78 1060,-130 1402,-130 1402,-78 1060,-78"/>
</g>
<g id="clust5" class="cluster">
<title>cluster_IndicatorsModule_imports</title>
<polygon fill="none" stroke="black" points="16,-78 16,-130 1052,-130 1052,-78 16,-78"/>
</g>
<!-- IndicatorReportComponent -->
<g id="node1" class="node">
<title>IndicatorReportComponent</title>
<polygon fill="#ffffb3" stroke="black" points="1393.97,-122 1224.03,-122 1224.03,-86 1393.97,-86 1393.97,-122"/>
<text text-anchor="middle" x="1309" y="-99.8" font-family="Times,serif" font-size="14.00">IndicatorReportComponent</text>
</g>
<!-- IndicatorsModule -->
<g id="node3" class="node">
<title>IndicatorsModule</title>
<polygon fill="#8dd3c7" stroke="black" points="830.53,-187 827.53,-191 806.53,-191 803.53,-187 715.47,-187 715.47,-151 830.53,-151 830.53,-187"/>
<text text-anchor="middle" x="773" y="-164.8" font-family="Times,serif" font-size="14.00">IndicatorsModule</text>
</g>
<!-- IndicatorReportComponent&#45;&gt;IndicatorsModule -->
<g id="edge1" class="edge">
<title>IndicatorReportComponent&#45;&gt;IndicatorsModule</title>
<path fill="none" stroke="black" d="M1309,-122.01C1309,-144.49 1309,-180 1309,-180 1309,-180 840.62,-180 840.62,-180"/>
<polygon fill="black" stroke="black" points="840.62,-176.5 830.62,-180 840.62,-183.5 840.62,-176.5"/>
</g>
<!-- IndicatorsComponent -->
<g id="node2" class="node">
<title>IndicatorsComponent</title>
<polygon fill="#ffffb3" stroke="black" points="1205.81,-122 1068.19,-122 1068.19,-86 1205.81,-86 1205.81,-122"/>
<text text-anchor="middle" x="1137" y="-99.8" font-family="Times,serif" font-size="14.00">IndicatorsComponent</text>
</g>
<!-- IndicatorsComponent&#45;&gt;IndicatorsModule -->
<g id="edge2" class="edge">
<title>IndicatorsComponent&#45;&gt;IndicatorsModule</title>
<path fill="none" stroke="black" d="M1137,-122.13C1137,-142.57 1137,-173 1137,-173 1137,-173 840.68,-173 840.68,-173"/>
<polygon fill="black" stroke="black" points="840.68,-169.5 830.68,-173 840.68,-176.5 840.68,-169.5"/>
</g>
<!-- ChartModule -->
<g id="node4" class="node">
<title>ChartModule</title>
<polygon fill="#8dd3c7" stroke="black" points="1044.15,-122 1041.15,-126 1020.15,-126 1017.15,-122 953.85,-122 953.85,-86 1044.15,-86 1044.15,-122"/>
<text text-anchor="middle" x="999" y="-99.8" font-family="Times,serif" font-size="14.00">ChartModule</text>
</g>
<!-- ChartModule&#45;&gt;IndicatorsModule -->
<g id="edge3" class="edge">
<title>ChartModule&#45;&gt;IndicatorsModule</title>
<path fill="none" stroke="black" d="M999,-122.27C999,-140.56 999,-166 999,-166 999,-166 840.61,-166 840.61,-166"/>
<polygon fill="black" stroke="black" points="840.61,-162.5 830.61,-166 840.61,-169.5 840.61,-162.5"/>
</g>
<!-- FilterModule -->
<g id="node5" class="node">
<title>FilterModule</title>
<polygon fill="#8dd3c7" stroke="black" points="935.88,-122 932.88,-126 911.88,-126 908.88,-122 846.12,-122 846.12,-86 935.88,-86 935.88,-122"/>
<text text-anchor="middle" x="891" y="-99.8" font-family="Times,serif" font-size="14.00">FilterModule</text>
</g>
<!-- FilterModule&#45;&gt;IndicatorsModule -->
<g id="edge4" class="edge">
<title>FilterModule&#45;&gt;IndicatorsModule</title>
<path fill="none" stroke="black" d="M891,-122.01C891,-138.05 891,-159 891,-159 891,-159 840.62,-159 840.62,-159"/>
<polygon fill="black" stroke="black" points="840.62,-155.5 830.62,-159 840.62,-162.5 840.62,-155.5"/>
</g>
<!-- IndicatorModule -->
<g id="node6" class="node">
<title>IndicatorModule</title>
<polygon fill="#8dd3c7" stroke="black" points="828.08,-122 825.08,-126 804.08,-126 801.08,-122 717.92,-122 717.92,-86 828.08,-86 828.08,-122"/>
<text text-anchor="middle" x="773" y="-99.8" font-family="Times,serif" font-size="14.00">IndicatorModule</text>
</g>
<!-- IndicatorModule&#45;&gt;IndicatorsModule -->
<g id="edge5" class="edge">
<title>IndicatorModule&#45;&gt;IndicatorsModule</title>
<path fill="none" stroke="black" d="M773,-122.11C773,-122.11 773,-140.99 773,-140.99"/>
<polygon fill="black" stroke="black" points="769.5,-140.99 773,-150.99 776.5,-140.99 769.5,-140.99"/>
</g>
<!-- IndicatorsRoutingModule -->
<g id="node7" class="node">
<title>IndicatorsRoutingModule</title>
<polygon fill="#8dd3c7" stroke="black" points="700.14,-122 697.14,-126 676.14,-126 673.14,-122 539.86,-122 539.86,-86 700.14,-86 700.14,-122"/>
<text text-anchor="middle" x="620" y="-99.8" font-family="Times,serif" font-size="14.00">IndicatorsRoutingModule</text>
</g>
<!-- IndicatorsRoutingModule&#45;&gt;IndicatorsModule -->
<g id="edge6" class="edge">
<title>IndicatorsRoutingModule&#45;&gt;IndicatorsModule</title>
<path fill="none" stroke="black" d="M620,-122.01C620,-138.05 620,-159 620,-159 620,-159 705.16,-159 705.16,-159"/>
<polygon fill="black" stroke="black" points="705.16,-162.5 715.16,-159 705.16,-155.5 705.16,-162.5"/>
</g>
<!-- InformationsPanelModule -->
<g id="node8" class="node">
<title>InformationsPanelModule</title>
<polygon fill="#8dd3c7" stroke="black" points="521.47,-122 518.47,-126 497.47,-126 494.47,-122 358.53,-122 358.53,-86 521.47,-86 521.47,-122"/>
<text text-anchor="middle" x="440" y="-99.8" font-family="Times,serif" font-size="14.00">InformationsPanelModule</text>
</g>
<!-- InformationsPanelModule&#45;&gt;IndicatorsModule -->
<g id="edge7" class="edge">
<title>InformationsPanelModule&#45;&gt;IndicatorsModule</title>
<path fill="none" stroke="black" d="M440,-122.27C440,-140.56 440,-166 440,-166 440,-166 705.38,-166 705.38,-166"/>
<polygon fill="black" stroke="black" points="705.38,-169.5 715.38,-166 705.38,-162.5 705.38,-169.5"/>
</g>
<!-- ObjectGroupingModule -->
<g id="node9" class="node">
<title>ObjectGroupingModule</title>
<polygon fill="#8dd3c7" stroke="black" points="340.03,-122 337.03,-126 316.03,-126 313.03,-122 189.97,-122 189.97,-86 340.03,-86 340.03,-122"/>
<text text-anchor="middle" x="265" y="-99.8" font-family="Times,serif" font-size="14.00">ObjectGroupingModule</text>
</g>
<!-- ObjectGroupingModule&#45;&gt;IndicatorsModule -->
<g id="edge8" class="edge">
<title>ObjectGroupingModule&#45;&gt;IndicatorsModule</title>
<path fill="none" stroke="black" d="M265,-122.13C265,-142.57 265,-173 265,-173 265,-173 705.22,-173 705.22,-173"/>
<polygon fill="black" stroke="black" points="705.22,-176.5 715.22,-173 705.22,-169.5 705.22,-176.5"/>
</g>
<!-- ReportingTableModule -->
<g id="node10" class="node">
<title>ReportingTableModule</title>
<polygon fill="#8dd3c7" stroke="black" points="171.92,-122 168.92,-126 147.92,-126 144.92,-122 24.08,-122 24.08,-86 171.92,-86 171.92,-122"/>
<text text-anchor="middle" x="98" y="-99.8" font-family="Times,serif" font-size="14.00">ReportingTableModule</text>
</g>
<!-- ReportingTableModule&#45;&gt;IndicatorsModule -->
<g id="edge9" class="edge">
<title>ReportingTableModule&#45;&gt;IndicatorsModule</title>
<path fill="none" stroke="black" d="M98,-122.01C98,-144.49 98,-180 98,-180 98,-180 705.45,-180 705.45,-180"/>
<polygon fill="black" stroke="black" points="705.45,-183.5 715.45,-180 705.45,-176.5 705.45,-183.5"/>
</g>
</g>
</svg>
