<?xml version="1.0" encoding="UTF-8" standalone="no"?>
<!DOCTYPE svg PUBLIC "-//W3C//DTD SVG 1.1//EN"
 "http://www.w3.org/Graphics/SVG/1.1/DTD/svg11.dtd">
<!-- Generated by graphviz version 2.47.0 (20210316.0004)
 -->
<!-- Title: dependencies Pages: 1 -->
<svg width="512pt" height="211pt"
 viewBox="0.00 0.00 512.00 211.00" xmlns="http://www.w3.org/2000/svg" xmlns:xlink="http://www.w3.org/1999/xlink">
<g id="graph0" class="graph" transform="scale(1 1) rotate(0) translate(4 207)">
<title>dependencies</title>
<polygon fill="white" stroke="transparent" points="-4,4 -4,-207 508,-207 508,4 -4,4"/>
<text text-anchor="start" x="231.01" y="-42.4" font-family="Times-12" font-weight="bold" font-size="14.00">Legend</text>
<polygon fill="#ffffb3" stroke="transparent" points="18,-10 18,-30 38,-30 38,-10 18,-10"/>
<text text-anchor="start" x="41.63" y="-15.4" font-family="Times-12" font-size="14.00"> &#160;Declarations</text>
<polygon fill="#8dd3c7" stroke="transparent" points="131,-10 131,-30 151,-30 151,-10 131,-10"/>
<text text-anchor="start" x="154.73" y="-15.4" font-family="Times-12" font-size="14.00"> &#160;Module</text>
<polygon fill="#80b1d3" stroke="transparent" points="217,-10 217,-30 237,-30 237,-10 217,-10"/>
<text text-anchor="start" x="240.78" y="-15.4" font-family="Times-12" font-size="14.00"> &#160;Bootstrap</text>
<polygon fill="#fdb462" stroke="transparent" points="314,-10 314,-30 334,-30 334,-10 314,-10"/>
<text text-anchor="start" x="337.67" y="-15.4" font-family="Times-12" font-size="14.00"> &#160;Providers</text>
<polygon fill="#fb8072" stroke="transparent" points="410,-10 410,-30 430,-30 430,-10 410,-10"/>
<text text-anchor="start" x="433.73" y="-15.4" font-family="Times-12" font-size="14.00"> &#160;Exports</text>
<g id="clust1" class="cluster">
<title>cluster_StructureModule</title>
<polygon fill="none" stroke="black" stroke-dasharray="1,5" points="8,-70 8,-195 496,-195 496,-70 8,-70"/>
</g>
<g id="clust4" class="cluster">
<title>cluster_StructureModule_imports</title>
<polygon fill="none" stroke="black" points="172,-78 172,-130 488,-130 488,-78 172,-78"/>
</g>
<g id="clust2" class="cluster">
<title>cluster_StructureModule_declarations</title>
<polygon fill="none" stroke="black" points="16,-78 16,-130 164,-130 164,-78 16,-78"/>
</g>
<!-- StructureComponent -->
<g id="node1" class="node">
<title>StructureComponent</title>
<polygon fill="#ffffb3" stroke="black" points="156.15,-122 23.85,-122 23.85,-86 156.15,-86 156.15,-122"/>
<text text-anchor="middle" x="90" y="-99.8" font-family="Times,serif" font-size="14.00">StructureComponent</text>
</g>
<!-- StructureModule -->
<g id="node2" class="node">
<title>StructureModule</title>
<polygon fill="#8dd3c7" stroke="black" points="313.36,-187 310.36,-191 289.36,-191 286.36,-187 202.64,-187 202.64,-151 313.36,-151 313.36,-187"/>
<text text-anchor="middle" x="258" y="-164.8" font-family="Times,serif" font-size="14.00">StructureModule</text>
</g>
<!-- StructureComponent&#45;&gt;StructureModule -->
<g id="edge1" class="edge">
<title>StructureComponent&#45;&gt;StructureModule</title>
<path fill="none" stroke="black" d="M90,-122.11C90,-141.34 90,-169 90,-169 90,-169 192.52,-169 192.52,-169"/>
<polygon fill="black" stroke="black" points="192.52,-172.5 202.52,-169 192.52,-165.5 192.52,-172.5"/>
</g>
<!-- ProjectSaveModule -->
<g id="node3" class="node">
<title>ProjectSaveModule</title>
<polygon fill="#8dd3c7" stroke="black" points="480.42,-122 477.42,-126 456.42,-126 453.42,-122 353.58,-122 353.58,-86 480.42,-86 480.42,-122"/>
<text text-anchor="middle" x="417" y="-99.8" font-family="Times,serif" font-size="14.00">ProjectSaveModule</text>
</g>
<!-- ProjectSaveModule&#45;&gt;StructureModule -->
<g id="edge2" class="edge">
<title>ProjectSaveModule&#45;&gt;StructureModule</title>
<path fill="none" stroke="black" d="M417,-122.11C417,-141.34 417,-169 417,-169 417,-169 323.61,-169 323.61,-169"/>
<polygon fill="black" stroke="black" points="323.61,-165.5 313.61,-169 323.61,-172.5 323.61,-165.5"/>
</g>
<!-- StructureRoutingModule -->
<g id="node4" class="node">
<title>StructureRoutingModule</title>
<polygon fill="#8dd3c7" stroke="black" points="335.98,-122 332.98,-126 311.98,-126 308.98,-122 180.02,-122 180.02,-86 335.98,-86 335.98,-122"/>
<text text-anchor="middle" x="258" y="-99.8" font-family="Times,serif" font-size="14.00">StructureRoutingModule</text>
</g>
<!-- StructureRoutingModule&#45;&gt;StructureModule -->
<g id="edge3" class="edge">
<title>StructureRoutingModule&#45;&gt;StructureModule</title>
<path fill="none" stroke="black" d="M258,-122.11C258,-122.11 258,-140.99 258,-140.99"/>
<polygon fill="black" stroke="black" points="254.5,-140.99 258,-150.99 261.5,-140.99 254.5,-140.99"/>
</g>
</g>
</svg>
