<?xml version="1.0" encoding="UTF-8"?>
<svg width="24px" height="24px" viewBox="0 0 24 24" version="1.1" xmlns="http://www.w3.org/2000/svg" xmlns:xlink="http://www.w3.org/1999/xlink">
    <title>004</title>
    <g id="004" stroke="none" stroke-width="1" fill="none" fill-rule="evenodd">
        <g id="comment-alt-message" transform="translate(2.000000, 2.000000)" fill="#90B6DF" fill-rule="nonzero">
            <path d="M15,5 L5,5 C4.44771525,5 4,5.44771525 4,6 C4,6.55228475 4.44771525,7 5,7 L15,7 C15.5522847,7 16,6.55228475 16,6 C16,5.44771525 15.5522847,5 15,5 Z M15,9 L5,9 C4.44771525,9 4,9.44771525 4,10 C4,10.5522847 4.44771525,11 5,11 L15,11 C15.5522847,11 16,10.5522847 16,10 C16,9.44771525 15.5522847,9 15,9 Z M17,-4.4408921e-16 L3,-4.4408921e-16 C1.34314575,-4.4408921e-16 -4.4408921e-16,1.34314575 -4.4408921e-16,3 L-4.4408921e-16,13 C-4.4408921e-16,14.6568542 1.34314575,16 3,16 L14.59,16 L18.29,19.71 C18.4787188,19.8971865 18.734197,20.0015368 19,20 C19.1311765,20.0033801 19.2613206,19.9759814 19.38,19.92 C19.7534255,19.7665964 19.9979849,19.4037019 20,19 L20,3 C20,1.34314575 18.6568542,-4.4408921e-16 17,-4.4408921e-16 Z M18,16.59 L15.71,14.29 C15.5212812,14.1028135 15.265803,13.9984632 15,14 L3,14 C2.44771525,14 2,13.5522847 2,13 L2,3 C2,2.44771525 2.44771525,2 3,2 L17,2 C17.5522847,2 18,2.44771525 18,3 L18,16.59 Z" id="Shape"></path>
        </g>
    </g>
</svg>