<?xml version="1.0" encoding="UTF-8"?>
<svg width="24px" height="24px" viewBox="0 0 24 24" version="1.1" xmlns="http://www.w3.org/2000/svg" xmlns:xlink="http://www.w3.org/1999/xlink">
    <title>014</title>
    <g id="014" stroke="none" stroke-width="1" fill="none" fill-rule="evenodd">
        <path d="M19.1794449,15.8274449 L17.5234449,14.1314449 C16.794727,13.4387414 15.7182308,13.25827 14.8034449,13.6754449 L14.0834449,12.9554449 C15.843636,10.6035272 15.4872305,7.29122574 13.2669891,5.36760471 C11.0467477,3.44398368 7.71745298,3.56298798 5.64022048,5.64022048 C3.56298798,7.71745298 3.44398368,11.0467477 5.36760471,13.2669891 C7.29122574,15.4872305 10.6035272,15.843636 12.9554449,14.0834449 L13.6674449,14.7954449 C13.2000684,15.7134873 13.3706964,16.8273987 14.0914449,17.5634449 L15.7874449,19.2594449 C16.7244611,20.1952957 18.2424288,20.1952957 19.1794449,19.2594449 C19.6412355,18.8079078 19.9015463,18.1893058 19.9015463,17.5434449 C19.9015463,16.897584 19.6412355,16.2789821 19.1794449,15.8274449 Z M12.3954449,12.4354449 C10.8323064,13.9946368 8.30148518,13.9925042 6.74097662,12.4306801 C5.18046807,10.868856 5.18046807,8.33803387 6.74097662,6.77620978 C8.30148518,5.21438568 10.8323064,5.21225304 12.3954449,6.77144494 C13.1477785,7.52187904 13.5705952,8.54082685 13.5705952,9.60344493 C13.5705952,10.666063 13.1477785,11.6850108 12.3954449,12.4354449 L12.3954449,12.4354449 Z M18.0514449,18.0914449 C17.9012317,18.2428951 17.696755,18.3280836 17.4834449,18.3280836 C17.2701349,18.3280836 17.0656582,18.2428951 16.9154449,18.0914449 L15.2194449,16.3954449 C15.0679948,16.2452317 14.9828063,16.040755 14.9828063,15.8274449 C14.9828063,15.6141349 15.0679948,15.4096582 15.2194449,15.2594449 C15.3696582,15.1079948 15.5741349,15.0228063 15.7874449,15.0228063 C16.000755,15.0228063 16.2052317,15.1079948 16.3554449,15.2594449 L18.0514449,16.9554449 C18.2028951,17.1056582 18.2880836,17.3101349 18.2880836,17.5234449 C18.2880836,17.736755 18.2028951,17.9412317 18.0514449,18.0914449 L18.0514449,18.0914449 Z" id="Shape" fill="#81858B" fill-rule="nonzero"></path>
    </g>
</svg>