<?xml version="1.0" encoding="UTF-8"?>
<svg width="24px" height="24px" viewBox="0 0 24 24" version="1.1" xmlns="http://www.w3.org/2000/svg" xmlns:xlink="http://www.w3.org/1999/xlink">
    <title>017</title>
    <g id="017" stroke="none" stroke-width="1" fill="none" fill-rule="evenodd">
        <path d="M13.6,12.4210705 L12.8,12.4210705 L12.8,11.5789672 C12.8,11.1138864 12.4418278,10.7368639 12,10.7368639 C11.5581722,10.7368639 11.2,11.1138864 11.2,11.5789672 L11.2,12.4210705 L10.4,12.4210705 C9.9581722,12.4210705 9.6,12.798093 9.6,13.2631738 C9.6,13.7282546 9.9581722,14.105277 10.4,14.105277 L11.2,14.105277 L11.2,14.9473803 C11.2,15.4124611 11.5581722,15.7894836 12,15.7894836 C12.4418278,15.7894836 12.8,15.4124611 12.8,14.9473803 L12.8,14.105277 L13.6,14.105277 C14.0418278,14.105277 14.4,13.7282546 14.4,13.2631738 C14.4,12.798093 14.0418278,12.4210705 13.6,12.4210705 Z M17.6,6.52634753 L12.576,6.52634753 L12.32,5.68424425 C11.9798467,4.67148556 11.0684751,3.99589669 10.048,4.00001876 L6.4,4.00001876 C5.0745166,4.00001876 4,5.13110513 4,6.52634753 L4,17.4736902 C4,18.8689326 5.0745166,20 6.4,20 L17.6,20 C18.9254834,20 20,18.8689326 20,17.4736902 L20,9.05265737 C20,7.65741497 18.9254834,6.52634753 17.6,6.52634753 Z M18.4,17.4736902 C18.4,17.938771 18.0418278,18.3157934 17.6,18.3157934 L6.4,18.3157934 C5.9581722,18.3157934 5.6,17.938771 5.6,17.4736902 L5.6,6.52634753 C5.6,6.06126673 5.9581722,5.68424142 6.4,5.68424142 L10.048,5.68424142 C10.3919327,5.68330972 10.6979423,5.91387594 10.808,6.25687448 L11.24,7.63792386 C11.3500577,7.98092239 11.6560673,8.21148862 12,8.21055409 L17.6,8.21055409 C18.0418278,8.21055409 18.4,8.58757657 18.4,9.05265737 L18.4,17.4736902 Z" id="Shape" fill="#FFFFFF" fill-rule="nonzero"></path>
    </g>
</svg>