<?xml version="1.0" encoding="UTF-8" standalone="no"?>
<!DOCTYPE svg PUBLIC "-//W3C//DTD SVG 1.1//EN"
 "http://www.w3.org/Graphics/SVG/1.1/DTD/svg11.dtd">
<!-- Generated by graphviz version 2.47.0 (20210316.0004)
 -->
<!-- Title: dependencies Pages: 1 -->
<svg width="504pt" height="284pt"
 viewBox="0.00 0.00 504.00 284.00" xmlns="http://www.w3.org/2000/svg" xmlns:xlink="http://www.w3.org/1999/xlink">
<g id="graph0" class="graph" transform="scale(1 1) rotate(0) translate(4 280)">
<title>dependencies</title>
<polygon fill="white" stroke="transparent" points="-4,4 -4,-280 500,-280 500,4 -4,4"/>
<text text-anchor="start" x="227.01" y="-42.4" font-family="Times-12" font-weight="bold" font-size="14.00">Legend</text>
<polygon fill="#ffffb3" stroke="transparent" points="14,-10 14,-30 34,-30 34,-10 14,-10"/>
<text text-anchor="start" x="37.63" y="-15.4" font-family="Times-12" font-size="14.00"> &#160;Declarations</text>
<polygon fill="#8dd3c7" stroke="transparent" points="127,-10 127,-30 147,-30 147,-10 127,-10"/>
<text text-anchor="start" x="150.73" y="-15.4" font-family="Times-12" font-size="14.00"> &#160;Module</text>
<polygon fill="#80b1d3" stroke="transparent" points="213,-10 213,-30 233,-30 233,-10 213,-10"/>
<text text-anchor="start" x="236.78" y="-15.4" font-family="Times-12" font-size="14.00"> &#160;Bootstrap</text>
<polygon fill="#fdb462" stroke="transparent" points="310,-10 310,-30 330,-30 330,-10 310,-10"/>
<text text-anchor="start" x="333.67" y="-15.4" font-family="Times-12" font-size="14.00"> &#160;Providers</text>
<polygon fill="#fb8072" stroke="transparent" points="406,-10 406,-30 426,-30 426,-10 406,-10"/>
<text text-anchor="start" x="429.73" y="-15.4" font-family="Times-12" font-size="14.00"> &#160;Exports</text>
<g id="clust1" class="cluster">
<title>cluster_LogicalFramesListModule</title>
<polygon fill="none" stroke="black" stroke-dasharray="1,5" points="57,-70 57,-268 439,-268 439,-70 57,-70"/>
</g>
<g id="clust4" class="cluster">
<title>cluster_LogicalFramesListModule_imports</title>
<polygon fill="none" stroke="black" points="277,-78 277,-130 431,-130 431,-78 277,-78"/>
</g>
<g id="clust2" class="cluster">
<title>cluster_LogicalFramesListModule_declarations</title>
<polygon fill="none" stroke="black" points="65,-78 65,-130 269,-130 269,-78 65,-78"/>
</g>
<g id="clust5" class="cluster">
<title>cluster_LogicalFramesListModule_exports</title>
<polygon fill="none" stroke="black" points="145,-208 145,-260 351,-260 351,-208 145,-208"/>
</g>
<!-- LogicalFramesListComponent -->
<g id="node1" class="node">
<title>LogicalFramesListComponent</title>
<polygon fill="#ffffb3" stroke="black" points="260.58,-122 73.42,-122 73.42,-86 260.58,-86 260.58,-122"/>
<text text-anchor="middle" x="167" y="-99.8" font-family="Times,serif" font-size="14.00">LogicalFramesListComponent</text>
</g>
<!-- LogicalFramesListModule -->
<g id="node2" class="node">
<title>LogicalFramesListModule</title>
<polygon fill="#8dd3c7" stroke="black" points="330.8,-187 327.8,-191 306.8,-191 303.8,-187 165.2,-187 165.2,-151 330.8,-151 330.8,-187"/>
<text text-anchor="middle" x="248" y="-164.8" font-family="Times,serif" font-size="14.00">LogicalFramesListModule</text>
</g>
<!-- LogicalFramesListComponent&#45;&gt;LogicalFramesListModule -->
<g id="edge1" class="edge">
<title>LogicalFramesListComponent&#45;&gt;LogicalFramesListModule</title>
<path fill="none" stroke="black" d="M212.95,-122.11C212.95,-122.11 212.95,-140.99 212.95,-140.99"/>
<polygon fill="black" stroke="black" points="209.45,-140.99 212.95,-150.99 216.45,-140.99 209.45,-140.99"/>
</g>
<!-- LogicalFramesListComponent  -->
<g id="node4" class="node">
<title>LogicalFramesListComponent </title>
<polygon fill="#fb8072" stroke="black" points="343.08,-252 152.92,-252 152.92,-216 343.08,-216 343.08,-252"/>
<text text-anchor="middle" x="248" y="-229.8" font-family="Times,serif" font-size="14.00">LogicalFramesListComponent </text>
</g>
<!-- LogicalFramesListModule&#45;&gt;LogicalFramesListComponent  -->
<g id="edge3" class="edge">
<title>LogicalFramesListModule&#45;&gt;LogicalFramesListComponent </title>
<path fill="none" stroke="black" stroke-dasharray="5,2" d="M248,-187.11C248,-187.11 248,-205.99 248,-205.99"/>
<polygon fill="black" stroke="black" points="244.5,-205.99 248,-215.99 251.5,-205.99 244.5,-205.99"/>
</g>
<!-- LogicalFrameModule -->
<g id="node3" class="node">
<title>LogicalFrameModule</title>
<polygon fill="#8dd3c7" stroke="black" points="423.08,-122 420.08,-126 399.08,-126 396.08,-122 284.92,-122 284.92,-86 423.08,-86 423.08,-122"/>
<text text-anchor="middle" x="354" y="-99.8" font-family="Times,serif" font-size="14.00">LogicalFrameModule</text>
</g>
<!-- LogicalFrameModule&#45;&gt;LogicalFramesListModule -->
<g id="edge2" class="edge">
<title>LogicalFrameModule&#45;&gt;LogicalFramesListModule</title>
<path fill="none" stroke="black" d="M307.81,-122.11C307.81,-122.11 307.81,-140.99 307.81,-140.99"/>
<polygon fill="black" stroke="black" points="304.31,-140.99 307.81,-150.99 311.31,-140.99 304.31,-140.99"/>
</g>
</g>
</svg>
