<?xml version="1.0" encoding="UTF-8"?>
<svg width="130px" height="130px" viewBox="0 0 130 130" version="1.1" xmlns="http://www.w3.org/2000/svg" xmlns:xlink="http://www.w3.org/1999/xlink">
    <title>40</title>
    <g id="40" stroke="none" stroke-width="1" fill="none" fill-rule="evenodd">
        <g id="undraw_personal_goals_edgd" transform="translate(11.000000, 26.000000)" fill-rule="nonzero">
            <path d="M107.009709,50.5145631 C71.1344988,36.9200508 35.4593255,36.5709759 0,50.5145631 L0,3.03532819e-15 L107.009709,3.03532819e-15 L107.009709,50.5145631 Z" id="Path" fill="#ECEFF1"></path>
            <rect id="Rectangle" fill="#D0CDE1" x="3.84466019" y="3.2038835" width="21.038835" height="1"></rect>
            <rect id="Rectangle" fill="#D0CDE1" x="3.84466019" y="5.66019417" width="21.038835" height="1"></rect>
            <rect id="Rectangle" fill="#D0CDE1" x="3.84466019" y="8.11650485" width="21.038835" height="1"></rect>
            <rect id="Rectangle" fill="#D0CDE1" x="7.36893204" y="12.1747573" width="2.13592233" height="2.13592233"></rect>
            <rect id="Rectangle" fill="#FE5E00" x="13.3495146" y="12.1747573" width="2.13592233" height="2.13592233"></rect>
            <rect id="Rectangle" fill="#FF6584" x="19.3300971" y="12.1747573" width="2.13592233" height="2.13592233"></rect>
            <rect id="Rectangle" fill="#D0CDE1" x="5.44660728" y="20.1844703" width="17.9417476" height="3.08396427"></rect>
            <rect id="Rectangle" fill="#FE5E00" x="5.44660728" y="24.91676" width="17.9417476" height="3.08396427"></rect>
            <rect id="Rectangle" fill="#FF6584" x="5.44660728" y="29.6490486" width="17.9417476" height="3.08396427"></rect>
            <rect id="Rectangle" fill="#000000" opacity="0.15" x="5.44660835" y="20.1844714" width="7.42232903" height="3.08396427"></rect>
            <rect id="Rectangle" fill="#000000" opacity="0.15" x="5.4465966" y="24.9167568" width="2.40291262" height="3.08396427"></rect>
            <rect id="Rectangle" fill="#000000" opacity="0.15" x="5.44660728" y="29.6490486" width="11.961165" height="3.08396427"></rect>
            <path d="M52.5436893,2.45631068 L52.5436893,37.6990291 C62.2756973,37.6990291 70.1650485,29.8096779 70.1650485,20.0776699 C70.1650485,10.3456619 62.2756973,2.45631068 52.5436893,2.45631068 Z" id="Path" fill="#D0CDE1"></path>
            <path d="M51.368932,3.23096556 C45.2441329,3.22966636 39.6431431,6.68543772 36.8969572,12.1600728 L51.368932,20.7266016 L51.368932,3.23096556 Z" id="Path" fill="#D0CDE1"></path>
            <path d="M35.7221999,12.3897186 C32.9845481,17.8529374 33.2718531,24.3443222 36.4814526,29.5443191 C39.6910522,34.7443159 45.3649595,37.9109225 51.4757282,37.9126214 L51.4757282,21.7148544 L35.7221999,12.3897186 Z" id="Path" fill="#FE5E00"></path>
            <rect id="Rectangle" fill="#D0CDE1" x="82.0194175" y="11.6407767" width="10.7864078" height="1"></rect>
            <rect id="Rectangle" fill="#FE5E00" x="78.4951456" y="11" width="2.13592233" height="2.13592233"></rect>
            <rect id="Rectangle" fill="#D0CDE1" x="82.0194175" y="14.8446602" width="10.7864078" height="1"></rect>
            <rect id="Rectangle" fill="#FE5E00" x="78.4951456" y="14.2038835" width="2.13592233" height="2.13592233"></rect>
            <rect id="Rectangle" fill="#D0CDE1" x="82.0194175" y="18.0485437" width="10.7864078" height="1"></rect>
            <rect id="Rectangle" fill="#FE5E00" x="78.4951456" y="17.407767" width="2.13592233" height="2.13592233"></rect>
            <polygon id="Path" fill="#2F2E41" points="46.8522039 26.774534 46.7011942 26.6235243 57.9460777 15.3786408 77.5339806 15.3786408 77.5339806 15.592233 58.0345049 15.592233"></polygon>
            <path d="M107.009709,78.1747573 L0,78.1747573 L0,53.9320388 C34.3883495,40.5323493 70.0582524,40.5323493 107.009709,53.9320388 L107.009709,78.1747573 Z" id="Path" fill="#ECEFF1"></path>
            <path d="M93.0266006,78.3833205 L92.8130083,78.379149 C92.8956181,76.0042821 93.1490093,73.6384376 93.5712191,71.2999431 C94.4948389,66.2932493 96.0306589,63.0050973 98.1360226,61.5268468 L98.2586716,61.7016421 C93.3405224,65.1547856 93.0291039,78.2513899 93.0266006,78.3833205 Z" id="Path" fill="#D0CDE1"></path>
            <path d="M95.6965035,78.3322175 L95.4829113,78.328045 C95.4875035,78.0915086 95.6209986,72.5168347 97.8156343,70.9760091 L97.9382832,71.1508045 C95.832189,72.6294715 95.6975437,78.2753774 95.6965035,78.3322175 Z" id="Path" fill="#D0CDE1"></path>
            <circle id="Oval" fill="#FE5E00" cx="99.4737903" cy="60.6530794" r="1.06796117"></circle>
            <circle id="Oval" fill="#FE5E00" cx="98.9449199" cy="69.8375454" r="1.06796117"></circle>
            <path d="M95.198699,62.3612417 C95.3994063,63.6432222 94.8762922,64.7898526 94.8762922,64.7898526 C94.8762922,64.7898526 94.027765,63.85797 93.8270578,62.5759862 C93.6263505,61.2940024 94.1494646,60.1473752 94.1494646,60.1473752 C94.1494646,60.1473752 94.9979939,61.0792568 95.198699,62.3612417 Z" id="Path" fill="#FE5E00"></path>
            <path d="M98.6862234,65.4650059 C97.4588156,65.8860176 96.2402185,65.5754545 96.2402185,65.5754545 C96.2402185,65.5754545 97.0116315,64.5822965 98.2390339,64.1612849 C99.4664363,63.7402732 100.685038,64.0508374 100.685038,64.0508374 C100.685038,64.0508374 99.9136258,65.0439921 98.6862234,65.4650059 Z" id="Path" fill="#D0CDE1"></path>
            <path d="M98.7289995,73.6084629 C98.1734856,73.7829474 97.5818909,73.8084924 97.0134043,73.682542 C97.750749,72.7437761 98.9705396,72.3253752 100.128861,72.6139081 C99.7573726,73.0622793 99.2746537,73.405235 98.7289995,73.6084629 L98.7289995,73.6084629 Z" id="Path" fill="#D0CDE1"></path>
            <path d="M86.0759879,59.2008562 C85.3092236,59.2008562 84.6876383,58.579271 84.6876383,57.8125067 C84.6876383,57.0457424 85.3092236,56.4241572 86.0759879,56.4241572 C86.8427521,56.4241572 87.4643374,57.0457424 87.4643374,57.8125067 C87.4634887,58.5789191 86.8424003,59.2000075 86.0759879,59.2008562 L86.0759879,59.2008562 Z M86.0759879,56.6377494 C85.4271873,56.6377494 84.9012306,57.1637062 84.9012306,57.8125067 C84.9012306,58.4613072 85.4271873,58.987264 86.0759879,58.987264 C86.7247884,58.987264 87.2507451,58.4613072 87.2507451,57.8125067 C87.2500124,57.1640099 86.7244846,56.6384822 86.0759879,56.6377494 Z" id="Shape" fill="#D0CDE1"></path>
            <circle id="Oval" fill="#D0CDE1" cx="79.5631068" cy="65.5728155" r="1"></circle>
            <circle id="Oval" fill="#D0CDE1" cx="3.84466019" cy="55.8543689" r="1"></circle>
            <path d="M9.18446602,70.1650485 L6.40776699,70.1650485 L6.40776699,67.3883495 L9.18446602,67.3883495 L9.18446602,70.1650485 Z M6.62135922,69.9514563 L8.97087379,69.9514563 L8.97087379,67.6019417 L6.62135922,67.6019417 L6.62135922,69.9514563 Z" id="Shape" fill="#D0CDE1"></path>
            <path d="M26.8058252,60.3398058 C23.8567319,60.3398058 21.4660194,62.7305183 21.4660194,65.6796117 C21.4660194,68.628705 23.8567319,71.0194175 26.8058252,71.0194175 C29.7549186,71.0194175 32.1456311,68.628705 32.1456311,65.6796117 C32.1456311,62.7305183 29.7549186,60.3398058 26.8058252,60.3398058 Z M25.8846895,68.0691619 L23.587803,65.7722626 L24.2320613,65.1280118 L25.8868532,66.7828113 L29.379602,63.2900614 L30.0238475,63.9343196 L25.8846895,68.0691619 Z" id="Shape" fill="#FE5E00"></path>
        </g>
    </g>
</svg>