<?xml version="1.0" encoding="UTF-8" standalone="no"?>
<!DOCTYPE svg PUBLIC "-//W3C//DTD SVG 1.1//EN"
 "http://www.w3.org/Graphics/SVG/1.1/DTD/svg11.dtd">
<!-- Generated by graphviz version 2.47.0 (20210316.0004)
 -->
<!-- Title: dependencies Pages: 1 -->
<svg width="704pt" height="211pt"
 viewBox="0.00 0.00 704.00 211.00" xmlns="http://www.w3.org/2000/svg" xmlns:xlink="http://www.w3.org/1999/xlink">
<g id="graph0" class="graph" transform="scale(1 1) rotate(0) translate(4 207)">
<title>dependencies</title>
<polygon fill="white" stroke="transparent" points="-4,4 -4,-207 700,-207 700,4 -4,4"/>
<text text-anchor="start" x="327.01" y="-42.4" font-family="Times-12" font-weight="bold" font-size="14.00">Legend</text>
<polygon fill="#ffffb3" stroke="transparent" points="114,-10 114,-30 134,-30 134,-10 114,-10"/>
<text text-anchor="start" x="137.63" y="-15.4" font-family="Times-12" font-size="14.00"> &#160;Declarations</text>
<polygon fill="#8dd3c7" stroke="transparent" points="227,-10 227,-30 247,-30 247,-10 227,-10"/>
<text text-anchor="start" x="250.73" y="-15.4" font-family="Times-12" font-size="14.00"> &#160;Module</text>
<polygon fill="#80b1d3" stroke="transparent" points="313,-10 313,-30 333,-30 333,-10 313,-10"/>
<text text-anchor="start" x="336.78" y="-15.4" font-family="Times-12" font-size="14.00"> &#160;Bootstrap</text>
<polygon fill="#fdb462" stroke="transparent" points="410,-10 410,-30 430,-30 430,-10 410,-10"/>
<text text-anchor="start" x="433.67" y="-15.4" font-family="Times-12" font-size="14.00"> &#160;Providers</text>
<polygon fill="#fb8072" stroke="transparent" points="506,-10 506,-30 526,-30 526,-10 506,-10"/>
<text text-anchor="start" x="529.73" y="-15.4" font-family="Times-12" font-size="14.00"> &#160;Exports</text>
<g id="clust1" class="cluster">
<title>cluster_CommentedGraphsModule</title>
<polygon fill="none" stroke="black" stroke-dasharray="1,5" points="8,-70 8,-195 688,-195 688,-70 8,-70"/>
</g>
<g id="clust2" class="cluster">
<title>cluster_CommentedGraphsModule_declarations</title>
<polygon fill="none" stroke="black" points="254,-78 254,-130 680,-130 680,-78 254,-78"/>
</g>
<g id="clust5" class="cluster">
<title>cluster_CommentedGraphsModule_imports</title>
<polygon fill="none" stroke="black" points="16,-78 16,-130 246,-130 246,-78 16,-78"/>
</g>
<!-- CommentedGraphsComponent -->
<g id="node1" class="node">
<title>CommentedGraphsComponent</title>
<polygon fill="#ffffb3" stroke="black" points="672.2,-122 481.8,-122 481.8,-86 672.2,-86 672.2,-122"/>
<text text-anchor="middle" x="577" y="-99.8" font-family="Times,serif" font-size="14.00">CommentedGraphsComponent</text>
</g>
<!-- CommentedGraphsModule -->
<g id="node3" class="node">
<title>CommentedGraphsModule</title>
<polygon fill="#8dd3c7" stroke="black" points="447.41,-187 444.41,-191 423.41,-191 420.41,-187 278.59,-187 278.59,-151 447.41,-151 447.41,-187"/>
<text text-anchor="middle" x="363" y="-164.8" font-family="Times,serif" font-size="14.00">CommentedGraphsModule</text>
</g>
<!-- CommentedGraphsComponent&#45;&gt;CommentedGraphsModule -->
<g id="edge1" class="edge">
<title>CommentedGraphsComponent&#45;&gt;CommentedGraphsModule</title>
<path fill="none" stroke="black" d="M577,-122.11C577,-141.34 577,-169 577,-169 577,-169 457.27,-169 457.27,-169"/>
<polygon fill="black" stroke="black" points="457.27,-165.5 447.27,-169 457.27,-172.5 457.27,-165.5"/>
</g>
<!-- LogframesDashboardComponent -->
<g id="node2" class="node">
<title>LogframesDashboardComponent</title>
<polygon fill="#ffffb3" stroke="black" points="464.11,-122 261.89,-122 261.89,-86 464.11,-86 464.11,-122"/>
<text text-anchor="middle" x="363" y="-99.8" font-family="Times,serif" font-size="14.00">LogframesDashboardComponent</text>
</g>
<!-- LogframesDashboardComponent&#45;&gt;CommentedGraphsModule -->
<g id="edge2" class="edge">
<title>LogframesDashboardComponent&#45;&gt;CommentedGraphsModule</title>
<path fill="none" stroke="black" d="M363,-122.11C363,-122.11 363,-140.99 363,-140.99"/>
<polygon fill="black" stroke="black" points="359.5,-140.99 363,-150.99 366.5,-140.99 359.5,-140.99"/>
</g>
<!-- CommentedGraphsRoutingModule -->
<g id="node4" class="node">
<title>CommentedGraphsRoutingModule</title>
<polygon fill="#8dd3c7" stroke="black" points="237.53,-122 234.53,-126 213.53,-126 210.53,-122 24.47,-122 24.47,-86 237.53,-86 237.53,-122"/>
<text text-anchor="middle" x="131" y="-99.8" font-family="Times,serif" font-size="14.00">CommentedGraphsRoutingModule</text>
</g>
<!-- CommentedGraphsRoutingModule&#45;&gt;CommentedGraphsModule -->
<g id="edge3" class="edge">
<title>CommentedGraphsRoutingModule&#45;&gt;CommentedGraphsModule</title>
<path fill="none" stroke="black" d="M131,-122.11C131,-141.34 131,-169 131,-169 131,-169 268.59,-169 268.59,-169"/>
<polygon fill="black" stroke="black" points="268.59,-172.5 278.59,-169 268.59,-165.5 268.59,-172.5"/>
</g>
</g>
</svg>
