<?xml version="1.0" encoding="UTF-8" standalone="no"?>
<!DOCTYPE svg PUBLIC "-//W3C//DTD SVG 1.1//EN"
 "http://www.w3.org/Graphics/SVG/1.1/DTD/svg11.dtd">
<!-- Generated by graphviz version 2.47.0 (20210316.0004)
 -->
<!-- Title: dependencies Pages: 1 -->
<svg width="535pt" height="284pt"
 viewBox="0.00 0.00 535.00 284.00" xmlns="http://www.w3.org/2000/svg" xmlns:xlink="http://www.w3.org/1999/xlink">
<g id="graph0" class="graph" transform="scale(1 1) rotate(0) translate(4 280)">
<title>dependencies</title>
<polygon fill="white" stroke="transparent" points="-4,4 -4,-280 531,-280 531,4 -4,4"/>
<text text-anchor="start" x="242.51" y="-42.4" font-family="Times-12" font-weight="bold" font-size="14.00">Legend</text>
<polygon fill="#ffffb3" stroke="transparent" points="29.5,-10 29.5,-30 49.5,-30 49.5,-10 29.5,-10"/>
<text text-anchor="start" x="53.13" y="-15.4" font-family="Times-12" font-size="14.00"> &#160;Declarations</text>
<polygon fill="#8dd3c7" stroke="transparent" points="142.5,-10 142.5,-30 162.5,-30 162.5,-10 142.5,-10"/>
<text text-anchor="start" x="166.23" y="-15.4" font-family="Times-12" font-size="14.00"> &#160;Module</text>
<polygon fill="#80b1d3" stroke="transparent" points="228.5,-10 228.5,-30 248.5,-30 248.5,-10 228.5,-10"/>
<text text-anchor="start" x="252.28" y="-15.4" font-family="Times-12" font-size="14.00"> &#160;Bootstrap</text>
<polygon fill="#fdb462" stroke="transparent" points="325.5,-10 325.5,-30 345.5,-30 345.5,-10 325.5,-10"/>
<text text-anchor="start" x="349.17" y="-15.4" font-family="Times-12" font-size="14.00"> &#160;Providers</text>
<polygon fill="#fb8072" stroke="transparent" points="421.5,-10 421.5,-30 441.5,-30 441.5,-10 421.5,-10"/>
<text text-anchor="start" x="445.23" y="-15.4" font-family="Times-12" font-size="14.00"> &#160;Exports</text>
<g id="clust1" class="cluster">
<title>cluster_ActivityEditModule</title>
<polygon fill="none" stroke="black" stroke-dasharray="1,5" points="8,-70 8,-268 519,-268 519,-70 8,-70"/>
</g>
<g id="clust2" class="cluster">
<title>cluster_ActivityEditModule_declarations</title>
<polygon fill="none" stroke="black" points="345,-78 345,-130 511,-130 511,-78 345,-78"/>
</g>
<g id="clust4" class="cluster">
<title>cluster_ActivityEditModule_imports</title>
<polygon fill="none" stroke="black" points="16,-78 16,-130 337,-130 337,-78 16,-78"/>
</g>
<g id="clust5" class="cluster">
<title>cluster_ActivityEditModule_exports</title>
<polygon fill="none" stroke="black" points="174,-208 174,-260 344,-260 344,-208 174,-208"/>
</g>
<!-- ActivityEditComponent -->
<g id="node1" class="node">
<title>ActivityEditComponent</title>
<polygon fill="#ffffb3" stroke="black" points="503.05,-122 352.95,-122 352.95,-86 503.05,-86 503.05,-122"/>
<text text-anchor="middle" x="428" y="-99.8" font-family="Times,serif" font-size="14.00">ActivityEditComponent</text>
</g>
<!-- ActivityEditModule -->
<g id="node2" class="node">
<title>ActivityEditModule</title>
<polygon fill="#8dd3c7" stroke="black" points="323.27,-187 320.27,-191 299.27,-191 296.27,-187 194.73,-187 194.73,-151 323.27,-151 323.27,-187"/>
<text text-anchor="middle" x="259" y="-164.8" font-family="Times,serif" font-size="14.00">ActivityEditModule</text>
</g>
<!-- ActivityEditComponent&#45;&gt;ActivityEditModule -->
<g id="edge1" class="edge">
<title>ActivityEditComponent&#45;&gt;ActivityEditModule</title>
<path fill="none" stroke="black" d="M428,-122.11C428,-141.34 428,-169 428,-169 428,-169 333.37,-169 333.37,-169"/>
<polygon fill="black" stroke="black" points="333.37,-165.5 323.37,-169 333.37,-172.5 333.37,-165.5"/>
</g>
<!-- ActivityEditComponent  -->
<g id="node5" class="node">
<title>ActivityEditComponent </title>
<polygon fill="#fb8072" stroke="black" points="336.05,-252 181.95,-252 181.95,-216 336.05,-216 336.05,-252"/>
<text text-anchor="middle" x="259" y="-229.8" font-family="Times,serif" font-size="14.00">ActivityEditComponent </text>
</g>
<!-- ActivityEditModule&#45;&gt;ActivityEditComponent  -->
<g id="edge4" class="edge">
<title>ActivityEditModule&#45;&gt;ActivityEditComponent </title>
<path fill="none" stroke="black" stroke-dasharray="5,2" d="M259,-187.11C259,-187.11 259,-205.99 259,-205.99"/>
<polygon fill="black" stroke="black" points="255.5,-205.99 259,-215.99 262.5,-205.99 255.5,-205.99"/>
</g>
<!-- ExtraIndicatorModule -->
<g id="node3" class="node">
<title>ExtraIndicatorModule</title>
<polygon fill="#8dd3c7" stroke="black" points="329.4,-122 326.4,-126 305.4,-126 302.4,-122 188.6,-122 188.6,-86 329.4,-86 329.4,-122"/>
<text text-anchor="middle" x="259" y="-99.8" font-family="Times,serif" font-size="14.00">ExtraIndicatorModule</text>
</g>
<!-- ExtraIndicatorModule&#45;&gt;ActivityEditModule -->
<g id="edge2" class="edge">
<title>ExtraIndicatorModule&#45;&gt;ActivityEditModule</title>
<path fill="none" stroke="black" d="M259,-122.11C259,-122.11 259,-140.99 259,-140.99"/>
<polygon fill="black" stroke="black" points="255.5,-140.99 259,-150.99 262.5,-140.99 255.5,-140.99"/>
</g>
<!-- IndicatorModalModule -->
<g id="node4" class="node">
<title>IndicatorModalModule</title>
<polygon fill="#8dd3c7" stroke="black" points="170.13,-122 167.13,-126 146.13,-126 143.13,-122 23.87,-122 23.87,-86 170.13,-86 170.13,-122"/>
<text text-anchor="middle" x="97" y="-99.8" font-family="Times,serif" font-size="14.00">IndicatorModalModule</text>
</g>
<!-- IndicatorModalModule&#45;&gt;ActivityEditModule -->
<g id="edge3" class="edge">
<title>IndicatorModalModule&#45;&gt;ActivityEditModule</title>
<path fill="none" stroke="black" d="M97,-122.11C97,-141.34 97,-169 97,-169 97,-169 184.51,-169 184.51,-169"/>
<polygon fill="black" stroke="black" points="184.51,-172.5 194.51,-169 184.51,-165.5 184.51,-172.5"/>
</g>
</g>
</svg>
