<?xml version="1.0" encoding="UTF-8" standalone="no"?>
<!DOCTYPE svg PUBLIC "-//W3C//DTD SVG 1.1//EN"
 "http://www.w3.org/Graphics/SVG/1.1/DTD/svg11.dtd">
<!-- Generated by graphviz version 2.47.0 (20210316.0004)
 -->
<!-- Title: dependencies Pages: 1 -->
<svg width="504pt" height="284pt"
 viewBox="0.00 0.00 504.00 284.00" xmlns="http://www.w3.org/2000/svg" xmlns:xlink="http://www.w3.org/1999/xlink">
<g id="graph0" class="graph" transform="scale(1 1) rotate(0) translate(4 280)">
<title>dependencies</title>
<polygon fill="white" stroke="transparent" points="-4,4 -4,-280 500,-280 500,4 -4,4"/>
<text text-anchor="start" x="227.01" y="-42.4" font-family="Times-12" font-weight="bold" font-size="14.00">Legend</text>
<polygon fill="#ffffb3" stroke="transparent" points="14,-10 14,-30 34,-30 34,-10 14,-10"/>
<text text-anchor="start" x="37.63" y="-15.4" font-family="Times-12" font-size="14.00"> &#160;Declarations</text>
<polygon fill="#8dd3c7" stroke="transparent" points="127,-10 127,-30 147,-30 147,-10 127,-10"/>
<text text-anchor="start" x="150.73" y="-15.4" font-family="Times-12" font-size="14.00"> &#160;Module</text>
<polygon fill="#80b1d3" stroke="transparent" points="213,-10 213,-30 233,-30 233,-10 213,-10"/>
<text text-anchor="start" x="236.78" y="-15.4" font-family="Times-12" font-size="14.00"> &#160;Bootstrap</text>
<polygon fill="#fdb462" stroke="transparent" points="310,-10 310,-30 330,-30 330,-10 310,-10"/>
<text text-anchor="start" x="333.67" y="-15.4" font-family="Times-12" font-size="14.00"> &#160;Providers</text>
<polygon fill="#fb8072" stroke="transparent" points="406,-10 406,-30 426,-30 426,-10 406,-10"/>
<text text-anchor="start" x="429.73" y="-15.4" font-family="Times-12" font-size="14.00"> &#160;Exports</text>
<g id="clust1" class="cluster">
<title>cluster_ThemeModule</title>
<polygon fill="none" stroke="black" stroke-dasharray="1,5" points="12,-70 12,-268 484,-268 484,-70 12,-70"/>
</g>
<g id="clust4" class="cluster">
<title>cluster_ThemeModule_imports</title>
<polygon fill="none" stroke="black" points="164,-78 164,-130 476,-130 476,-78 164,-78"/>
</g>
<g id="clust2" class="cluster">
<title>cluster_ThemeModule_declarations</title>
<polygon fill="none" stroke="black" points="20,-78 20,-130 156,-130 156,-78 20,-78"/>
</g>
<g id="clust5" class="cluster">
<title>cluster_ThemeModule_exports</title>
<polygon fill="none" stroke="black" points="169,-208 169,-260 309,-260 309,-208 169,-208"/>
</g>
<!-- ThemeComponent -->
<g id="node1" class="node">
<title>ThemeComponent</title>
<polygon fill="#ffffb3" stroke="black" points="148.2,-122 27.8,-122 27.8,-86 148.2,-86 148.2,-122"/>
<text text-anchor="middle" x="88" y="-99.8" font-family="Times,serif" font-size="14.00">ThemeComponent</text>
</g>
<!-- ThemeModule -->
<g id="node2" class="node">
<title>ThemeModule</title>
<polygon fill="#8dd3c7" stroke="black" points="288.42,-187 285.42,-191 264.42,-191 261.42,-187 189.58,-187 189.58,-151 288.42,-151 288.42,-187"/>
<text text-anchor="middle" x="239" y="-164.8" font-family="Times,serif" font-size="14.00">ThemeModule</text>
</g>
<!-- ThemeComponent&#45;&gt;ThemeModule -->
<g id="edge1" class="edge">
<title>ThemeComponent&#45;&gt;ThemeModule</title>
<path fill="none" stroke="black" d="M88,-122.11C88,-141.34 88,-169 88,-169 88,-169 179.56,-169 179.56,-169"/>
<polygon fill="black" stroke="black" points="179.56,-172.5 189.56,-169 179.56,-165.5 179.56,-172.5"/>
</g>
<!-- ThemeComponent  -->
<g id="node5" class="node">
<title>ThemeComponent </title>
<polygon fill="#fb8072" stroke="black" points="300.71,-252 177.29,-252 177.29,-216 300.71,-216 300.71,-252"/>
<text text-anchor="middle" x="239" y="-229.8" font-family="Times,serif" font-size="14.00">ThemeComponent </text>
</g>
<!-- ThemeModule&#45;&gt;ThemeComponent  -->
<g id="edge4" class="edge">
<title>ThemeModule&#45;&gt;ThemeComponent </title>
<path fill="none" stroke="black" stroke-dasharray="5,2" d="M239,-187.11C239,-187.11 239,-205.99 239,-205.99"/>
<polygon fill="black" stroke="black" points="235.5,-205.99 239,-215.99 242.5,-205.99 235.5,-205.99"/>
</g>
<!-- ConfirmModalModule -->
<g id="node3" class="node">
<title>ConfirmModalModule</title>
<polygon fill="#8dd3c7" stroke="black" points="467.54,-122 464.54,-126 443.54,-126 440.54,-122 324.46,-122 324.46,-86 467.54,-86 467.54,-122"/>
<text text-anchor="middle" x="396" y="-99.8" font-family="Times,serif" font-size="14.00">ConfirmModalModule</text>
</g>
<!-- ConfirmModalModule&#45;&gt;ThemeModule -->
<g id="edge2" class="edge">
<title>ConfirmModalModule&#45;&gt;ThemeModule</title>
<path fill="none" stroke="black" d="M396,-122.11C396,-141.34 396,-169 396,-169 396,-169 298.25,-169 298.25,-169"/>
<polygon fill="black" stroke="black" points="298.25,-165.5 288.25,-169 298.24,-172.5 298.25,-165.5"/>
</g>
<!-- ThemeModalModule -->
<g id="node4" class="node">
<title>ThemeModalModule</title>
<polygon fill="#8dd3c7" stroke="black" points="306.47,-122 303.47,-126 282.47,-126 279.47,-122 171.53,-122 171.53,-86 306.47,-86 306.47,-122"/>
<text text-anchor="middle" x="239" y="-99.8" font-family="Times,serif" font-size="14.00">ThemeModalModule</text>
</g>
<!-- ThemeModalModule&#45;&gt;ThemeModule -->
<g id="edge3" class="edge">
<title>ThemeModalModule&#45;&gt;ThemeModule</title>
<path fill="none" stroke="black" d="M239,-122.11C239,-122.11 239,-140.99 239,-140.99"/>
<polygon fill="black" stroke="black" points="235.5,-140.99 239,-150.99 242.5,-140.99 235.5,-140.99"/>
</g>
</g>
</svg>
