<?xml version="1.0" encoding="UTF-8" standalone="no"?>
<!DOCTYPE svg PUBLIC "-//W3C//DTD SVG 1.1//EN"
 "http://www.w3.org/Graphics/SVG/1.1/DTD/svg11.dtd">
<!-- Generated by graphviz version 2.47.0 (20210316.0004)
 -->
<!-- Title: dependencies Pages: 1 -->
<svg width="712pt" height="284pt"
 viewBox="0.00 0.00 712.00 284.00" xmlns="http://www.w3.org/2000/svg" xmlns:xlink="http://www.w3.org/1999/xlink">
<g id="graph0" class="graph" transform="scale(1 1) rotate(0) translate(4 280)">
<title>dependencies</title>
<polygon fill="white" stroke="transparent" points="-4,4 -4,-280 708,-280 708,4 -4,4"/>
<text text-anchor="start" x="331.01" y="-42.4" font-family="Times-12" font-weight="bold" font-size="14.00">Legend</text>
<polygon fill="#ffffb3" stroke="transparent" points="118,-10 118,-30 138,-30 138,-10 118,-10"/>
<text text-anchor="start" x="141.63" y="-15.4" font-family="Times-12" font-size="14.00"> &#160;Declarations</text>
<polygon fill="#8dd3c7" stroke="transparent" points="231,-10 231,-30 251,-30 251,-10 231,-10"/>
<text text-anchor="start" x="254.73" y="-15.4" font-family="Times-12" font-size="14.00"> &#160;Module</text>
<polygon fill="#80b1d3" stroke="transparent" points="317,-10 317,-30 337,-30 337,-10 317,-10"/>
<text text-anchor="start" x="340.78" y="-15.4" font-family="Times-12" font-size="14.00"> &#160;Bootstrap</text>
<polygon fill="#fdb462" stroke="transparent" points="414,-10 414,-30 434,-30 434,-10 414,-10"/>
<text text-anchor="start" x="437.67" y="-15.4" font-family="Times-12" font-size="14.00"> &#160;Providers</text>
<polygon fill="#fb8072" stroke="transparent" points="510,-10 510,-30 530,-30 530,-10 510,-10"/>
<text text-anchor="start" x="533.73" y="-15.4" font-family="Times-12" font-size="14.00"> &#160;Exports</text>
<g id="clust1" class="cluster">
<title>cluster_ReportingTableModule</title>
<polygon fill="none" stroke="black" stroke-dasharray="1,5" points="8,-70 8,-268 696,-268 696,-70 8,-70"/>
</g>
<g id="clust4" class="cluster">
<title>cluster_ReportingTableModule_imports</title>
<polygon fill="none" stroke="black" points="210,-78 210,-130 688,-130 688,-78 210,-78"/>
</g>
<g id="clust5" class="cluster">
<title>cluster_ReportingTableModule_exports</title>
<polygon fill="none" stroke="black" points="275,-208 275,-260 463,-260 463,-208 275,-208"/>
</g>
<g id="clust2" class="cluster">
<title>cluster_ReportingTableModule_declarations</title>
<polygon fill="none" stroke="black" points="16,-78 16,-130 202,-130 202,-78 16,-78"/>
</g>
<!-- ReportingTableComponent -->
<g id="node1" class="node">
<title>ReportingTableComponent</title>
<polygon fill="#ffffb3" stroke="black" points="193.7,-122 24.3,-122 24.3,-86 193.7,-86 193.7,-122"/>
<text text-anchor="middle" x="109" y="-99.8" font-family="Times,serif" font-size="14.00">ReportingTableComponent</text>
</g>
<!-- ReportingTableModule -->
<g id="node2" class="node">
<title>ReportingTableModule</title>
<polygon fill="#8dd3c7" stroke="black" points="442.92,-187 439.92,-191 418.92,-191 415.92,-187 295.08,-187 295.08,-151 442.92,-151 442.92,-187"/>
<text text-anchor="middle" x="369" y="-164.8" font-family="Times,serif" font-size="14.00">ReportingTableModule</text>
</g>
<!-- ReportingTableComponent&#45;&gt;ReportingTableModule -->
<g id="edge1" class="edge">
<title>ReportingTableComponent&#45;&gt;ReportingTableModule</title>
<path fill="none" stroke="black" d="M109,-122.11C109,-141.34 109,-169 109,-169 109,-169 285.19,-169 285.19,-169"/>
<polygon fill="black" stroke="black" points="285.19,-172.5 295.19,-169 285.19,-165.5 285.19,-172.5"/>
</g>
<!-- ReportingTableComponent  -->
<g id="node6" class="node">
<title>ReportingTableComponent </title>
<polygon fill="#fb8072" stroke="black" points="455.2,-252 282.8,-252 282.8,-216 455.2,-216 455.2,-252"/>
<text text-anchor="middle" x="369" y="-229.8" font-family="Times,serif" font-size="14.00">ReportingTableComponent </text>
</g>
<!-- ReportingTableModule&#45;&gt;ReportingTableComponent  -->
<g id="edge5" class="edge">
<title>ReportingTableModule&#45;&gt;ReportingTableComponent </title>
<path fill="none" stroke="black" stroke-dasharray="5,2" d="M369,-187.11C369,-187.11 369,-205.99 369,-205.99"/>
<polygon fill="black" stroke="black" points="365.5,-205.99 369,-215.99 372.5,-205.99 365.5,-205.99"/>
</g>
<!-- CommentModalModule -->
<g id="node3" class="node">
<title>CommentModalModule</title>
<polygon fill="#8dd3c7" stroke="black" points="679.82,-122 676.82,-126 655.82,-126 652.82,-122 528.18,-122 528.18,-86 679.82,-86 679.82,-122"/>
<text text-anchor="middle" x="604" y="-99.8" font-family="Times,serif" font-size="14.00">CommentModalModule</text>
</g>
<!-- CommentModalModule&#45;&gt;ReportingTableModule -->
<g id="edge2" class="edge">
<title>CommentModalModule&#45;&gt;ReportingTableModule</title>
<path fill="none" stroke="black" d="M604,-122.11C604,-141.34 604,-169 604,-169 604,-169 452.71,-169 452.71,-169"/>
<polygon fill="black" stroke="black" points="452.71,-165.5 442.71,-169 452.71,-172.5 452.71,-165.5"/>
</g>
<!-- ProjectSaveModule -->
<g id="node4" class="node">
<title>ProjectSaveModule</title>
<polygon fill="#8dd3c7" stroke="black" points="510.42,-122 507.42,-126 486.42,-126 483.42,-122 383.58,-122 383.58,-86 510.42,-86 510.42,-122"/>
<text text-anchor="middle" x="447" y="-99.8" font-family="Times,serif" font-size="14.00">ProjectSaveModule</text>
</g>
<!-- ProjectSaveModule&#45;&gt;ReportingTableModule -->
<g id="edge3" class="edge">
<title>ProjectSaveModule&#45;&gt;ReportingTableModule</title>
<path fill="none" stroke="black" d="M413.25,-122.11C413.25,-122.11 413.25,-140.99 413.25,-140.99"/>
<polygon fill="black" stroke="black" points="409.75,-140.99 413.25,-150.99 416.75,-140.99 409.75,-140.99"/>
</g>
<!-- ReportingMenuModule -->
<g id="node5" class="node">
<title>ReportingMenuModule</title>
<polygon fill="#8dd3c7" stroke="black" points="366.2,-122 363.2,-126 342.2,-126 339.2,-122 217.8,-122 217.8,-86 366.2,-86 366.2,-122"/>
<text text-anchor="middle" x="292" y="-99.8" font-family="Times,serif" font-size="14.00">ReportingMenuModule</text>
</g>
<!-- ReportingMenuModule&#45;&gt;ReportingTableModule -->
<g id="edge4" class="edge">
<title>ReportingMenuModule&#45;&gt;ReportingTableModule</title>
<path fill="none" stroke="black" d="M330.7,-122.11C330.7,-122.11 330.7,-140.99 330.7,-140.99"/>
<polygon fill="black" stroke="black" points="327.2,-140.99 330.7,-150.99 334.2,-140.99 327.2,-140.99"/>
</g>
</g>
</svg>
