<?xml version="1.0" encoding="UTF-8" standalone="no"?>
<!DOCTYPE svg PUBLIC "-//W3C//DTD SVG 1.1//EN"
 "http://www.w3.org/Graphics/SVG/1.1/DTD/svg11.dtd">
<!-- Generated by graphviz version 2.47.0 (20210316.0004)
 -->
<!-- Title: dependencies Pages: 1 -->
<svg width="1356pt" height="370pt"
 viewBox="0.00 0.00 1356.00 370.11" xmlns="http://www.w3.org/2000/svg" xmlns:xlink="http://www.w3.org/1999/xlink">
<g id="graph0" class="graph" transform="scale(1 1) rotate(0) translate(4 366.11)">
<title>dependencies</title>
<polygon fill="white" stroke="transparent" points="-4,4 -4,-366.11 1352,-366.11 1352,4 -4,4"/>
<text text-anchor="start" x="653.01" y="-42.4" font-family="Times-12" font-weight="bold" font-size="14.00">Legend</text>
<polygon fill="#ffffb3" stroke="transparent" points="440,-10 440,-30 460,-30 460,-10 440,-10"/>
<text text-anchor="start" x="463.63" y="-15.4" font-family="Times-12" font-size="14.00"> &#160;Declarations</text>
<polygon fill="#8dd3c7" stroke="transparent" points="553,-10 553,-30 573,-30 573,-10 553,-10"/>
<text text-anchor="start" x="576.73" y="-15.4" font-family="Times-12" font-size="14.00"> &#160;Module</text>
<polygon fill="#80b1d3" stroke="transparent" points="639,-10 639,-30 659,-30 659,-10 639,-10"/>
<text text-anchor="start" x="662.78" y="-15.4" font-family="Times-12" font-size="14.00"> &#160;Bootstrap</text>
<polygon fill="#fdb462" stroke="transparent" points="736,-10 736,-30 756,-30 756,-10 736,-10"/>
<text text-anchor="start" x="759.67" y="-15.4" font-family="Times-12" font-size="14.00"> &#160;Providers</text>
<polygon fill="#fb8072" stroke="transparent" points="832,-10 832,-30 852,-30 852,-10 832,-10"/>
<text text-anchor="start" x="855.73" y="-15.4" font-family="Times-12" font-size="14.00"> &#160;Exports</text>
<g id="clust1" class="cluster">
<title>cluster_SitesModule</title>
<polygon fill="none" stroke="black" stroke-dasharray="1,5" points="8,-70 8,-354.11 1340,-354.11 1340,-70 8,-70"/>
</g>
<g id="clust2" class="cluster">
<title>cluster_SitesModule_declarations</title>
<polygon fill="none" stroke="black" points="599,-237.11 599,-289.11 723,-289.11 723,-237.11 599,-237.11"/>
</g>
<g id="clust4" class="cluster">
<title>cluster_SitesModule_imports</title>
<polygon fill="none" stroke="black" points="731,-237.11 731,-289.11 879,-289.11 879,-237.11 731,-237.11"/>
</g>
<g id="clust3" class="cluster">
<title>cluster_SitesModule_SitesComponent_providers</title>
<polygon fill="none" stroke="black" points="16,-78 16,-224.11 1332,-224.11 1332,-78 16,-78"/>
</g>
<!-- SitesComponent -->
<g id="node1" class="node">
<title>SitesComponent</title>
<polygon fill="#ffffb3" stroke="black" points="715.06,-281.11 606.94,-281.11 606.94,-245.11 715.06,-245.11 715.06,-281.11"/>
<text text-anchor="middle" x="661" y="-258.91" font-family="Times,serif" font-size="14.00">SitesComponent</text>
</g>
<!-- SitesModule -->
<g id="node2" class="node">
<title>SitesModule</title>
<polygon fill="#8dd3c7" stroke="black" points="776.27,-346.11 773.27,-350.11 752.27,-350.11 749.27,-346.11 689.73,-346.11 689.73,-310.11 776.27,-310.11 776.27,-346.11"/>
<text text-anchor="middle" x="733" y="-323.91" font-family="Times,serif" font-size="14.00">SitesModule</text>
</g>
<!-- SitesComponent&#45;&gt;SitesModule -->
<g id="edge1" class="edge">
<title>SitesComponent&#45;&gt;SitesModule</title>
<path fill="none" stroke="black" d="M702.45,-281.21C702.45,-281.21 702.45,-300.1 702.45,-300.1"/>
<polygon fill="black" stroke="black" points="698.95,-300.1 702.45,-310.1 705.95,-300.1 698.95,-300.1"/>
</g>
<!-- {
 &#160;&#160;&#160;provide: DateAdapter, useClass: MomentDateAdapter, deps: [
 &#160;&#160;&#160;&#160;&#160;&#160;&#160;MAT_DATE_LOCALE, MAT_MOMENT_DATE_ADAPTER_OPTIONS
 &#160;&#160;&#160;]
} -->
<g id="node3" class="node">
<title>{
 &#160;&#160;&#160;provide: DateAdapter, useClass: MomentDateAdapter, deps: [
 &#160;&#160;&#160;&#160;&#160;&#160;&#160;MAT_DATE_LOCALE, MAT_MOMENT_DATE_ADAPTER_OPTIONS
 &#160;&#160;&#160;]
}</title>
<ellipse fill="#fdb462" stroke="black" cx="991" cy="-151.05" rx="332.96" ry="65.11"/>
<text text-anchor="middle" x="991" y="-180.45" font-family="Times,serif" font-size="14.00">{</text>
<text text-anchor="middle" x="991" y="-163.65" font-family="Times,serif" font-size="14.00"> &#160;&#160;&#160;provide: DateAdapter, useClass: MomentDateAdapter, deps: [</text>
<text text-anchor="middle" x="991" y="-146.85" font-family="Times,serif" font-size="14.00"> &#160;&#160;&#160;&#160;&#160;&#160;&#160;MAT_DATE_LOCALE, MAT_MOMENT_DATE_ADAPTER_OPTIONS</text>
<text text-anchor="middle" x="991" y="-130.05" font-family="Times,serif" font-size="14.00"> &#160;&#160;&#160;]</text>
<text text-anchor="middle" x="991" y="-113.25" font-family="Times,serif" font-size="14.00">}</text>
</g>
<!-- {
 &#160;&#160;&#160;provide: DateAdapter, useClass: MomentDateAdapter, deps: [
 &#160;&#160;&#160;&#160;&#160;&#160;&#160;MAT_DATE_LOCALE, MAT_MOMENT_DATE_ADAPTER_OPTIONS
 &#160;&#160;&#160;]
}&#45;&gt;SitesComponent -->
<g id="edge2" class="edge">
<title>{
 &#160;&#160;&#160;provide: DateAdapter, useClass: MomentDateAdapter, deps: [
 &#160;&#160;&#160;&#160;&#160;&#160;&#160;MAT_DATE_LOCALE, MAT_MOMENT_DATE_ADAPTER_OPTIONS
 &#160;&#160;&#160;]
}&#45;&gt;SitesComponent</title>
<path fill="none" stroke="black" d="M686.65,-177.61C686.65,-177.61 686.65,-234.79 686.65,-234.79"/>
<polygon fill="black" stroke="black" points="683.15,-234.79 686.65,-244.79 690.15,-234.79 683.15,-234.79"/>
</g>
<!-- {
 &#160;&#160;&#160;provide: MAT_DATE_FORMATS, useValue: MY_DATE_FORMATS
} -->
<g id="node4" class="node">
<title>{
 &#160;&#160;&#160;provide: MAT_DATE_FORMATS, useValue: MY_DATE_FORMATS
}</title>
<ellipse fill="#fdb462" stroke="black" cx="332" cy="-151.05" rx="307.89" ry="41.09"/>
<text text-anchor="middle" x="332" y="-163.65" font-family="Times,serif" font-size="14.00">{</text>
<text text-anchor="middle" x="332" y="-146.85" font-family="Times,serif" font-size="14.00"> &#160;&#160;&#160;provide: MAT_DATE_FORMATS, useValue: MY_DATE_FORMATS</text>
<text text-anchor="middle" x="332" y="-130.05" font-family="Times,serif" font-size="14.00">}</text>
</g>
<!-- {
 &#160;&#160;&#160;provide: MAT_DATE_FORMATS, useValue: MY_DATE_FORMATS
}&#45;&gt;SitesComponent -->
<g id="edge3" class="edge">
<title>{
 &#160;&#160;&#160;provide: MAT_DATE_FORMATS, useValue: MY_DATE_FORMATS
}&#45;&gt;SitesComponent</title>
<path fill="none" stroke="black" d="M623.21,-164.79C623.21,-164.79 623.21,-234.79 623.21,-234.79"/>
<polygon fill="black" stroke="black" points="619.71,-234.79 623.21,-244.79 626.71,-234.79 619.71,-234.79"/>
</g>
<!-- SitesRoutingModule -->
<g id="node5" class="node">
<title>SitesRoutingModule</title>
<polygon fill="#8dd3c7" stroke="black" points="870.89,-281.11 867.89,-285.11 846.89,-285.11 843.89,-281.11 739.11,-281.11 739.11,-245.11 870.89,-245.11 870.89,-281.11"/>
<text text-anchor="middle" x="805" y="-258.91" font-family="Times,serif" font-size="14.00">SitesRoutingModule</text>
</g>
<!-- SitesRoutingModule&#45;&gt;SitesModule -->
<g id="edge4" class="edge">
<title>SitesRoutingModule&#45;&gt;SitesModule</title>
<path fill="none" stroke="black" d="M757.72,-281.21C757.72,-281.21 757.72,-300.1 757.72,-300.1"/>
<polygon fill="black" stroke="black" points="754.22,-300.1 757.72,-310.1 761.22,-300.1 754.22,-300.1"/>
</g>
</g>
</svg>
