<?xml version="1.0" encoding="UTF-8" standalone="no"?>
<!DOCTYPE svg PUBLIC "-//W3C//DTD SVG 1.1//EN"
 "http://www.w3.org/Graphics/SVG/1.1/DTD/svg11.dtd">
<!-- Generated by graphviz version 2.47.0 (20210316.0004)
 -->
<!-- Title: dependencies Pages: 1 -->
<svg width="529pt" height="284pt"
 viewBox="0.00 0.00 529.00 284.00" xmlns="http://www.w3.org/2000/svg" xmlns:xlink="http://www.w3.org/1999/xlink">
<g id="graph0" class="graph" transform="scale(1 1) rotate(0) translate(4 280)">
<title>dependencies</title>
<polygon fill="white" stroke="transparent" points="-4,4 -4,-280 525,-280 525,4 -4,4"/>
<text text-anchor="start" x="239.51" y="-42.4" font-family="Times-12" font-weight="bold" font-size="14.00">Legend</text>
<polygon fill="#ffffb3" stroke="transparent" points="26.5,-10 26.5,-30 46.5,-30 46.5,-10 26.5,-10"/>
<text text-anchor="start" x="50.13" y="-15.4" font-family="Times-12" font-size="14.00"> &#160;Declarations</text>
<polygon fill="#8dd3c7" stroke="transparent" points="139.5,-10 139.5,-30 159.5,-30 159.5,-10 139.5,-10"/>
<text text-anchor="start" x="163.23" y="-15.4" font-family="Times-12" font-size="14.00"> &#160;Module</text>
<polygon fill="#80b1d3" stroke="transparent" points="225.5,-10 225.5,-30 245.5,-30 245.5,-10 225.5,-10"/>
<text text-anchor="start" x="249.28" y="-15.4" font-family="Times-12" font-size="14.00"> &#160;Bootstrap</text>
<polygon fill="#fdb462" stroke="transparent" points="322.5,-10 322.5,-30 342.5,-30 342.5,-10 322.5,-10"/>
<text text-anchor="start" x="346.17" y="-15.4" font-family="Times-12" font-size="14.00"> &#160;Providers</text>
<polygon fill="#fb8072" stroke="transparent" points="418.5,-10 418.5,-30 438.5,-30 438.5,-10 418.5,-10"/>
<text text-anchor="start" x="442.23" y="-15.4" font-family="Times-12" font-size="14.00"> &#160;Exports</text>
<g id="clust1" class="cluster">
<title>cluster_DataSourcesListModule</title>
<polygon fill="none" stroke="black" stroke-dasharray="1,5" points="8,-70 8,-268 513,-268 513,-70 8,-70"/>
</g>
<g id="clust5" class="cluster">
<title>cluster_DataSourcesListModule_exports</title>
<polygon fill="none" stroke="black" points="191,-208 191,-260 385,-260 385,-208 191,-208"/>
</g>
<g id="clust4" class="cluster">
<title>cluster_DataSourcesListModule_imports</title>
<polygon fill="none" stroke="black" points="214,-78 214,-130 505,-130 505,-78 214,-78"/>
</g>
<g id="clust2" class="cluster">
<title>cluster_DataSourcesListModule_declarations</title>
<polygon fill="none" stroke="black" points="16,-78 16,-130 206,-130 206,-78 16,-78"/>
</g>
<!-- DataSourcesListComponent -->
<g id="node1" class="node">
<title>DataSourcesListComponent</title>
<polygon fill="#ffffb3" stroke="black" points="197.85,-122 24.15,-122 24.15,-86 197.85,-86 197.85,-122"/>
<text text-anchor="middle" x="111" y="-99.8" font-family="Times,serif" font-size="14.00">DataSourcesListComponent</text>
</g>
<!-- DataSourcesListModule -->
<g id="node2" class="node">
<title>DataSourcesListModule</title>
<polygon fill="#8dd3c7" stroke="black" points="364.07,-187 361.07,-191 340.07,-191 337.07,-187 211.93,-187 211.93,-151 364.07,-151 364.07,-187"/>
<text text-anchor="middle" x="288" y="-164.8" font-family="Times,serif" font-size="14.00">DataSourcesListModule</text>
</g>
<!-- DataSourcesListComponent&#45;&gt;DataSourcesListModule -->
<g id="edge1" class="edge">
<title>DataSourcesListComponent&#45;&gt;DataSourcesListModule</title>
<path fill="none" stroke="black" d="M197.91,-104C209.14,-104 216.82,-104 216.82,-104 216.82,-104 216.82,-140.89 216.82,-140.89"/>
<polygon fill="black" stroke="black" points="213.32,-140.89 216.82,-150.89 220.32,-140.89 213.32,-140.89"/>
</g>
<!-- DataSourcesListComponent  -->
<g id="node5" class="node">
<title>DataSourcesListComponent </title>
<polygon fill="#fb8072" stroke="black" points="376.85,-252 199.15,-252 199.15,-216 376.85,-216 376.85,-252"/>
<text text-anchor="middle" x="288" y="-229.8" font-family="Times,serif" font-size="14.00">DataSourcesListComponent </text>
</g>
<!-- DataSourcesListModule&#45;&gt;DataSourcesListComponent  -->
<g id="edge4" class="edge">
<title>DataSourcesListModule&#45;&gt;DataSourcesListComponent </title>
<path fill="none" stroke="black" stroke-dasharray="5,2" d="M288,-187.11C288,-187.11 288,-205.99 288,-205.99"/>
<polygon fill="black" stroke="black" points="284.5,-205.99 288,-215.99 291.5,-205.99 284.5,-205.99"/>
</g>
<!-- DataSourceModule -->
<g id="node3" class="node">
<title>DataSourceModule</title>
<polygon fill="#8dd3c7" stroke="black" points="497.35,-122 494.35,-126 473.35,-126 470.35,-122 372.65,-122 372.65,-86 497.35,-86 497.35,-122"/>
<text text-anchor="middle" x="435" y="-99.8" font-family="Times,serif" font-size="14.00">DataSourceModule</text>
</g>
<!-- DataSourceModule&#45;&gt;DataSourcesListModule -->
<g id="edge2" class="edge">
<title>DataSourceModule&#45;&gt;DataSourcesListModule</title>
<path fill="none" stroke="black" d="M372.38,-104C364.53,-104 359.18,-104 359.18,-104 359.18,-104 359.18,-140.89 359.18,-140.89"/>
<polygon fill="black" stroke="black" points="355.68,-140.89 359.18,-150.89 362.68,-140.89 355.68,-140.89"/>
</g>
<!-- DeleteModalModule -->
<g id="node4" class="node">
<title>DeleteModalModule</title>
<polygon fill="#8dd3c7" stroke="black" points="354.13,-122 351.13,-126 330.13,-126 327.13,-122 221.87,-122 221.87,-86 354.13,-86 354.13,-122"/>
<text text-anchor="middle" x="288" y="-99.8" font-family="Times,serif" font-size="14.00">DeleteModalModule</text>
</g>
<!-- DeleteModalModule&#45;&gt;DataSourcesListModule -->
<g id="edge3" class="edge">
<title>DeleteModalModule&#45;&gt;DataSourcesListModule</title>
<path fill="none" stroke="black" d="M288,-122.11C288,-122.11 288,-140.99 288,-140.99"/>
<polygon fill="black" stroke="black" points="284.5,-140.99 288,-150.99 291.5,-140.99 284.5,-140.99"/>
</g>
</g>
</svg>
