<?xml version="1.0" encoding="UTF-8" standalone="no"?>
<!DOCTYPE svg PUBLIC "-//W3C//DTD SVG 1.1//EN"
 "http://www.w3.org/Graphics/SVG/1.1/DTD/svg11.dtd">
<!-- Generated by graphviz version 2.47.0 (20210316.0004)
 -->
<!-- Title: dependencies Pages: 1 -->
<svg width="504pt" height="284pt"
 viewBox="0.00 0.00 504.00 284.00" xmlns="http://www.w3.org/2000/svg" xmlns:xlink="http://www.w3.org/1999/xlink">
<g id="graph0" class="graph" transform="scale(1 1) rotate(0) translate(4 280)">
<title>dependencies</title>
<polygon fill="white" stroke="transparent" points="-4,4 -4,-280 500,-280 500,4 -4,4"/>
<text text-anchor="start" x="227.01" y="-42.4" font-family="Times-12" font-weight="bold" font-size="14.00">Legend</text>
<polygon fill="#ffffb3" stroke="transparent" points="14,-10 14,-30 34,-30 34,-10 14,-10"/>
<text text-anchor="start" x="37.63" y="-15.4" font-family="Times-12" font-size="14.00"> &#160;Declarations</text>
<polygon fill="#8dd3c7" stroke="transparent" points="127,-10 127,-30 147,-30 147,-10 127,-10"/>
<text text-anchor="start" x="150.73" y="-15.4" font-family="Times-12" font-size="14.00"> &#160;Module</text>
<polygon fill="#80b1d3" stroke="transparent" points="213,-10 213,-30 233,-30 233,-10 213,-10"/>
<text text-anchor="start" x="236.78" y="-15.4" font-family="Times-12" font-size="14.00"> &#160;Bootstrap</text>
<polygon fill="#fdb462" stroke="transparent" points="310,-10 310,-30 330,-30 330,-10 310,-10"/>
<text text-anchor="start" x="333.67" y="-15.4" font-family="Times-12" font-size="14.00"> &#160;Providers</text>
<polygon fill="#fb8072" stroke="transparent" points="406,-10 406,-30 426,-30 426,-10 406,-10"/>
<text text-anchor="start" x="429.73" y="-15.4" font-family="Times-12" font-size="14.00"> &#160;Exports</text>
<g id="clust1" class="cluster">
<title>cluster_ChartModule</title>
<polygon fill="none" stroke="black" stroke-dasharray="1,5" points="79,-70 79,-268 417,-268 417,-70 79,-70"/>
</g>
<g id="clust2" class="cluster">
<title>cluster_ChartModule_declarations</title>
<polygon fill="none" stroke="black" points="87,-78 87,-130 409,-130 409,-78 87,-78"/>
</g>
<g id="clust6" class="cluster">
<title>cluster_ChartModule_exports</title>
<polygon fill="none" stroke="black" points="197,-208 197,-260 329,-260 329,-208 197,-208"/>
</g>
<!-- ChartComponent -->
<g id="node1" class="node">
<title>ChartComponent</title>
<polygon fill="#ffffb3" stroke="black" points="401.44,-122 288.56,-122 288.56,-86 401.44,-86 401.44,-122"/>
<text text-anchor="middle" x="345" y="-99.8" font-family="Times,serif" font-size="14.00">ChartComponent</text>
</g>
<!-- ChartModule -->
<g id="node3" class="node">
<title>ChartModule</title>
<polygon fill="#8dd3c7" stroke="black" points="308.15,-187 305.15,-191 284.15,-191 281.15,-187 217.85,-187 217.85,-151 308.15,-151 308.15,-187"/>
<text text-anchor="middle" x="263" y="-164.8" font-family="Times,serif" font-size="14.00">ChartModule</text>
</g>
<!-- ChartComponent&#45;&gt;ChartModule -->
<g id="edge1" class="edge">
<title>ChartComponent&#45;&gt;ChartModule</title>
<path fill="none" stroke="black" d="M298.55,-122.11C298.55,-122.11 298.55,-140.99 298.55,-140.99"/>
<polygon fill="black" stroke="black" points="295.05,-140.99 298.55,-150.99 302.05,-140.99 295.05,-140.99"/>
</g>
<!-- DownloadModalComponent -->
<g id="node2" class="node">
<title>DownloadModalComponent</title>
<polygon fill="#ffffb3" stroke="black" points="271.2,-122 94.8,-122 94.8,-86 271.2,-86 271.2,-122"/>
<text text-anchor="middle" x="183" y="-99.8" font-family="Times,serif" font-size="14.00">DownloadModalComponent</text>
</g>
<!-- DownloadModalComponent&#45;&gt;ChartModule -->
<g id="edge2" class="edge">
<title>DownloadModalComponent&#45;&gt;ChartModule</title>
<path fill="none" stroke="black" d="M244.39,-122.11C244.39,-122.11 244.39,-140.99 244.39,-140.99"/>
<polygon fill="black" stroke="black" points="240.89,-140.99 244.39,-150.99 247.89,-140.99 240.89,-140.99"/>
</g>
<!-- ChartComponent  -->
<g id="node4" class="node">
<title>ChartComponent </title>
<polygon fill="#fb8072" stroke="black" points="320.93,-252 205.07,-252 205.07,-216 320.93,-216 320.93,-252"/>
<text text-anchor="middle" x="263" y="-229.8" font-family="Times,serif" font-size="14.00">ChartComponent </text>
</g>
<!-- ChartModule&#45;&gt;ChartComponent  -->
<g id="edge3" class="edge">
<title>ChartModule&#45;&gt;ChartComponent </title>
<path fill="none" stroke="black" stroke-dasharray="5,2" d="M263,-187.11C263,-187.11 263,-205.99 263,-205.99"/>
<polygon fill="black" stroke="black" points="259.5,-205.99 263,-215.99 266.5,-205.99 259.5,-205.99"/>
</g>
</g>
</svg>
