<?xml version="1.0" encoding="UTF-8" standalone="no"?>
<!DOCTYPE svg PUBLIC "-//W3C//DTD SVG 1.1//EN"
 "http://www.w3.org/Graphics/SVG/1.1/DTD/svg11.dtd">
<!-- Generated by graphviz version 2.47.0 (20210316.0004)
 -->
<!-- Title: dependencies Pages: 1 -->
<svg width="1356pt" height="443pt"
 viewBox="0.00 0.00 1356.00 443.11" xmlns="http://www.w3.org/2000/svg" xmlns:xlink="http://www.w3.org/1999/xlink">
<g id="graph0" class="graph" transform="scale(1 1) rotate(0) translate(4 439.11)">
<title>dependencies</title>
<polygon fill="white" stroke="transparent" points="-4,4 -4,-439.11 1352,-439.11 1352,4 -4,4"/>
<text text-anchor="start" x="653.01" y="-42.4" font-family="Times-12" font-weight="bold" font-size="14.00">Legend</text>
<polygon fill="#ffffb3" stroke="transparent" points="440,-10 440,-30 460,-30 460,-10 440,-10"/>
<text text-anchor="start" x="463.63" y="-15.4" font-family="Times-12" font-size="14.00"> &#160;Declarations</text>
<polygon fill="#8dd3c7" stroke="transparent" points="553,-10 553,-30 573,-30 573,-10 553,-10"/>
<text text-anchor="start" x="576.73" y="-15.4" font-family="Times-12" font-size="14.00"> &#160;Module</text>
<polygon fill="#80b1d3" stroke="transparent" points="639,-10 639,-30 659,-30 659,-10 639,-10"/>
<text text-anchor="start" x="662.78" y="-15.4" font-family="Times-12" font-size="14.00"> &#160;Bootstrap</text>
<polygon fill="#fdb462" stroke="transparent" points="736,-10 736,-30 756,-30 756,-10 736,-10"/>
<text text-anchor="start" x="759.67" y="-15.4" font-family="Times-12" font-size="14.00"> &#160;Providers</text>
<polygon fill="#fb8072" stroke="transparent" points="832,-10 832,-30 852,-30 852,-10 832,-10"/>
<text text-anchor="start" x="855.73" y="-15.4" font-family="Times-12" font-size="14.00"> &#160;Exports</text>
<g id="clust1" class="cluster">
<title>cluster_LogicalFrameEditModule</title>
<polygon fill="none" stroke="black" stroke-dasharray="1,5" points="8,-70 8,-427.11 1340,-427.11 1340,-70 8,-70"/>
</g>
<g id="clust2" class="cluster">
<title>cluster_LogicalFrameEditModule_declarations</title>
<polygon fill="none" stroke="black" points="340,-237.11 340,-289.11 540,-289.11 540,-237.11 340,-237.11"/>
</g>
<g id="clust5" class="cluster">
<title>cluster_LogicalFrameEditModule_exports</title>
<polygon fill="none" stroke="black" points="674,-367.11 674,-419.11 876,-419.11 876,-367.11 674,-367.11"/>
</g>
<g id="clust4" class="cluster">
<title>cluster_LogicalFrameEditModule_imports</title>
<polygon fill="none" stroke="black" points="548,-237.11 548,-289.11 1224,-289.11 1224,-237.11 548,-237.11"/>
</g>
<g id="clust3" class="cluster">
<title>cluster_LogicalFrameEditModule_LogicalFrameEditComponent_providers</title>
<polygon fill="none" stroke="black" points="16,-78 16,-224.11 1332,-224.11 1332,-78 16,-78"/>
</g>
<!-- LogicalFrameEditComponent -->
<g id="node1" class="node">
<title>LogicalFrameEditComponent</title>
<polygon fill="#ffffb3" stroke="black" points="531.69,-281.11 348.31,-281.11 348.31,-245.11 531.69,-245.11 531.69,-281.11"/>
<text text-anchor="middle" x="440" y="-258.91" font-family="Times,serif" font-size="14.00">LogicalFrameEditComponent</text>
</g>
<!-- LogicalFrameEditModule -->
<g id="node2" class="node">
<title>LogicalFrameEditModule</title>
<polygon fill="#8dd3c7" stroke="black" points="855.91,-346.11 852.91,-350.11 831.91,-350.11 828.91,-346.11 694.09,-346.11 694.09,-310.11 855.91,-310.11 855.91,-346.11"/>
<text text-anchor="middle" x="775" y="-323.91" font-family="Times,serif" font-size="14.00">LogicalFrameEditModule</text>
</g>
<!-- LogicalFrameEditComponent&#45;&gt;LogicalFrameEditModule -->
<g id="edge1" class="edge">
<title>LogicalFrameEditComponent&#45;&gt;LogicalFrameEditModule</title>
<path fill="none" stroke="black" d="M440,-281.21C440,-300.45 440,-328.11 440,-328.11 440,-328.11 683.91,-328.11 683.91,-328.11"/>
<polygon fill="black" stroke="black" points="683.91,-331.61 693.91,-328.11 683.91,-324.61 683.91,-331.61"/>
</g>
<!-- LogicalFrameEditComponent  -->
<g id="node9" class="node">
<title>LogicalFrameEditComponent </title>
<polygon fill="#fb8072" stroke="black" points="868.19,-411.11 681.81,-411.11 681.81,-375.11 868.19,-375.11 868.19,-411.11"/>
<text text-anchor="middle" x="775" y="-388.91" font-family="Times,serif" font-size="14.00">LogicalFrameEditComponent </text>
</g>
<!-- LogicalFrameEditModule&#45;&gt;LogicalFrameEditComponent  -->
<g id="edge8" class="edge">
<title>LogicalFrameEditModule&#45;&gt;LogicalFrameEditComponent </title>
<path fill="none" stroke="black" stroke-dasharray="5,2" d="M775,-346.21C775,-346.21 775,-365.1 775,-365.1"/>
<polygon fill="black" stroke="black" points="771.5,-365.1 775,-375.1 778.5,-365.1 771.5,-365.1"/>
</g>
<!-- {
 &#160;&#160;&#160;provide: DateAdapter, useClass: MomentDateAdapter, deps: [
 &#160;&#160;&#160;&#160;&#160;&#160;&#160;MAT_DATE_LOCALE, MAT_MOMENT_DATE_ADAPTER_OPTIONS
 &#160;&#160;&#160;]
} -->
<g id="node3" class="node">
<title>{
 &#160;&#160;&#160;provide: DateAdapter, useClass: MomentDateAdapter, deps: [
 &#160;&#160;&#160;&#160;&#160;&#160;&#160;MAT_DATE_LOCALE, MAT_MOMENT_DATE_ADAPTER_OPTIONS
 &#160;&#160;&#160;]
}</title>
<ellipse fill="#fdb462" stroke="black" cx="991" cy="-151.05" rx="332.96" ry="65.11"/>
<text text-anchor="middle" x="991" y="-180.45" font-family="Times,serif" font-size="14.00">{</text>
<text text-anchor="middle" x="991" y="-163.65" font-family="Times,serif" font-size="14.00"> &#160;&#160;&#160;provide: DateAdapter, useClass: MomentDateAdapter, deps: [</text>
<text text-anchor="middle" x="991" y="-146.85" font-family="Times,serif" font-size="14.00"> &#160;&#160;&#160;&#160;&#160;&#160;&#160;MAT_DATE_LOCALE, MAT_MOMENT_DATE_ADAPTER_OPTIONS</text>
<text text-anchor="middle" x="991" y="-130.05" font-family="Times,serif" font-size="14.00"> &#160;&#160;&#160;]</text>
<text text-anchor="middle" x="991" y="-113.25" font-family="Times,serif" font-size="14.00">}</text>
</g>
<!-- {
 &#160;&#160;&#160;provide: DateAdapter, useClass: MomentDateAdapter, deps: [
 &#160;&#160;&#160;&#160;&#160;&#160;&#160;MAT_DATE_LOCALE, MAT_MOMENT_DATE_ADAPTER_OPTIONS
 &#160;&#160;&#160;]
}&#45;&gt;LogicalFrameEditComponent -->
<g id="edge2" class="edge">
<title>{
 &#160;&#160;&#160;provide: DateAdapter, useClass: MomentDateAdapter, deps: [
 &#160;&#160;&#160;&#160;&#160;&#160;&#160;MAT_DATE_LOCALE, MAT_MOMENT_DATE_ADAPTER_OPTIONS
 &#160;&#160;&#160;]
}&#45;&gt;LogicalFrameEditComponent</title>
<path fill="none" stroke="black" d="M805.67,-205.11C656.14,-205.11 470.53,-205.11 470.53,-205.11 470.53,-205.11 470.53,-235.07 470.53,-235.07"/>
<polygon fill="black" stroke="black" points="467.03,-235.07 470.53,-245.07 474.03,-235.07 467.03,-235.07"/>
</g>
<!-- {
 &#160;&#160;&#160;provide: MAT_DATE_FORMATS, useValue: MY_DATE_FORMATS
} -->
<g id="node4" class="node">
<title>{
 &#160;&#160;&#160;provide: MAT_DATE_FORMATS, useValue: MY_DATE_FORMATS
}</title>
<ellipse fill="#fdb462" stroke="black" cx="332" cy="-151.05" rx="307.89" ry="41.09"/>
<text text-anchor="middle" x="332" y="-163.65" font-family="Times,serif" font-size="14.00">{</text>
<text text-anchor="middle" x="332" y="-146.85" font-family="Times,serif" font-size="14.00"> &#160;&#160;&#160;provide: MAT_DATE_FORMATS, useValue: MY_DATE_FORMATS</text>
<text text-anchor="middle" x="332" y="-130.05" font-family="Times,serif" font-size="14.00">}</text>
</g>
<!-- {
 &#160;&#160;&#160;provide: MAT_DATE_FORMATS, useValue: MY_DATE_FORMATS
}&#45;&gt;LogicalFrameEditComponent -->
<g id="edge3" class="edge">
<title>{
 &#160;&#160;&#160;provide: MAT_DATE_FORMATS, useValue: MY_DATE_FORMATS
}&#45;&gt;LogicalFrameEditComponent</title>
<path fill="none" stroke="black" d="M409.47,-191.19C409.47,-191.19 409.47,-234.84 409.47,-234.84"/>
<polygon fill="black" stroke="black" points="405.97,-234.84 409.47,-244.84 412.97,-234.84 405.97,-234.84"/>
</g>
<!-- CollectionSitesSelectorModule -->
<g id="node5" class="node">
<title>CollectionSitesSelectorModule</title>
<polygon fill="#8dd3c7" stroke="black" points="1216.47,-281.11 1213.47,-285.11 1192.47,-285.11 1189.47,-281.11 1025.53,-281.11 1025.53,-245.11 1216.47,-245.11 1216.47,-281.11"/>
<text text-anchor="middle" x="1121" y="-258.91" font-family="Times,serif" font-size="14.00">CollectionSitesSelectorModule</text>
</g>
<!-- CollectionSitesSelectorModule&#45;&gt;LogicalFrameEditModule -->
<g id="edge4" class="edge">
<title>CollectionSitesSelectorModule&#45;&gt;LogicalFrameEditModule</title>
<path fill="none" stroke="black" d="M1121,-281.21C1121,-300.45 1121,-328.11 1121,-328.11 1121,-328.11 866.12,-328.11 866.12,-328.11"/>
<polygon fill="black" stroke="black" points="866.12,-324.61 856.12,-328.11 866.12,-331.61 866.12,-324.61"/>
</g>
<!-- ExtraIndicatorModule -->
<g id="node6" class="node">
<title>ExtraIndicatorModule</title>
<polygon fill="#8dd3c7" stroke="black" points="1007.4,-281.11 1004.4,-285.11 983.4,-285.11 980.4,-281.11 866.6,-281.11 866.6,-245.11 1007.4,-245.11 1007.4,-281.11"/>
<text text-anchor="middle" x="937" y="-258.91" font-family="Times,serif" font-size="14.00">ExtraIndicatorModule</text>
</g>
<!-- ExtraIndicatorModule&#45;&gt;LogicalFrameEditModule -->
<g id="edge5" class="edge">
<title>ExtraIndicatorModule&#45;&gt;LogicalFrameEditModule</title>
<path fill="none" stroke="black" d="M866.43,-263.11C857.83,-263.11 852.01,-263.11 852.01,-263.11 852.01,-263.11 852.01,-300 852.01,-300"/>
<polygon fill="black" stroke="black" points="848.51,-300 852.01,-310 855.51,-300 848.51,-300"/>
</g>
<!-- IndicatorModalModule -->
<g id="node7" class="node">
<title>IndicatorModalModule</title>
<polygon fill="#8dd3c7" stroke="black" points="848.13,-281.11 845.13,-285.11 824.13,-285.11 821.13,-281.11 701.87,-281.11 701.87,-245.11 848.13,-245.11 848.13,-281.11"/>
<text text-anchor="middle" x="775" y="-258.91" font-family="Times,serif" font-size="14.00">IndicatorModalModule</text>
</g>
<!-- IndicatorModalModule&#45;&gt;LogicalFrameEditModule -->
<g id="edge6" class="edge">
<title>IndicatorModalModule&#45;&gt;LogicalFrameEditModule</title>
<path fill="none" stroke="black" d="M775,-281.21C775,-281.21 775,-300.1 775,-300.1"/>
<polygon fill="black" stroke="black" points="771.5,-300.1 775,-310.1 778.5,-300.1 771.5,-300.1"/>
</g>
<!-- PurposeEditModule -->
<g id="node8" class="node">
<title>PurposeEditModule</title>
<polygon fill="#8dd3c7" stroke="black" points="683.99,-281.11 680.99,-285.11 659.99,-285.11 656.99,-281.11 556.01,-281.11 556.01,-245.11 683.99,-245.11 683.99,-281.11"/>
<text text-anchor="middle" x="620" y="-258.91" font-family="Times,serif" font-size="14.00">PurposeEditModule</text>
</g>
<!-- PurposeEditModule&#45;&gt;LogicalFrameEditModule -->
<g id="edge7" class="edge">
<title>PurposeEditModule&#45;&gt;LogicalFrameEditModule</title>
<path fill="none" stroke="black" d="M684.05,-263.11C692.32,-263.11 697.99,-263.11 697.99,-263.11 697.99,-263.11 697.99,-300 697.99,-300"/>
<polygon fill="black" stroke="black" points="694.49,-300 697.99,-310 701.49,-300 694.49,-300"/>
</g>
</g>
</svg>
