<?xml version="1.0" encoding="UTF-8" standalone="no"?>
<!DOCTYPE svg PUBLIC "-//W3C//DTD SVG 1.1//EN"
 "http://www.w3.org/Graphics/SVG/1.1/DTD/svg11.dtd">
<!-- Generated by graphviz version 2.47.0 (20210316.0004)
 -->
<!-- Title: dependencies Pages: 1 -->
<svg width="1570pt" height="443pt"
 viewBox="0.00 0.00 1570.00 443.11" xmlns="http://www.w3.org/2000/svg" xmlns:xlink="http://www.w3.org/1999/xlink">
<g id="graph0" class="graph" transform="scale(1 1) rotate(0) translate(4 439.11)">
<title>dependencies</title>
<polygon fill="white" stroke="transparent" points="-4,4 -4,-439.11 1566,-439.11 1566,4 -4,4"/>
<text text-anchor="start" x="760.01" y="-42.4" font-family="Times-12" font-weight="bold" font-size="14.00">Legend</text>
<polygon fill="#ffffb3" stroke="transparent" points="547,-10 547,-30 567,-30 567,-10 547,-10"/>
<text text-anchor="start" x="570.63" y="-15.4" font-family="Times-12" font-size="14.00"> &#160;Declarations</text>
<polygon fill="#8dd3c7" stroke="transparent" points="660,-10 660,-30 680,-30 680,-10 660,-10"/>
<text text-anchor="start" x="683.73" y="-15.4" font-family="Times-12" font-size="14.00"> &#160;Module</text>
<polygon fill="#80b1d3" stroke="transparent" points="746,-10 746,-30 766,-30 766,-10 746,-10"/>
<text text-anchor="start" x="769.78" y="-15.4" font-family="Times-12" font-size="14.00"> &#160;Bootstrap</text>
<polygon fill="#fdb462" stroke="transparent" points="843,-10 843,-30 863,-30 863,-10 843,-10"/>
<text text-anchor="start" x="866.67" y="-15.4" font-family="Times-12" font-size="14.00"> &#160;Providers</text>
<polygon fill="#fb8072" stroke="transparent" points="939,-10 939,-30 959,-30 959,-10 939,-10"/>
<text text-anchor="start" x="962.73" y="-15.4" font-family="Times-12" font-size="14.00"> &#160;Exports</text>
<g id="clust1" class="cluster">
<title>cluster_FilterModule</title>
<polygon fill="none" stroke="black" stroke-dasharray="1,5" points="8,-70 8,-427.11 1554,-427.11 1554,-70 8,-70"/>
</g>
<g id="clust5" class="cluster">
<title>cluster_FilterModule_exports</title>
<polygon fill="none" stroke="black" points="266,-367.11 266,-419.11 398,-419.11 398,-367.11 266,-367.11"/>
</g>
<g id="clust3" class="cluster">
<title>cluster_FilterModule_FilterComponent_providers</title>
<polygon fill="none" stroke="black" points="230,-78 230,-289.11 1546,-289.11 1546,-78 230,-78"/>
</g>
<g id="clust4" class="cluster">
<title>cluster_FilterModule_imports</title>
<polygon fill="none" stroke="black" points="16,-237.11 16,-289.11 222,-289.11 222,-237.11 16,-237.11"/>
</g>
<!-- FilterComponent -->
<g id="node1" class="node">
<title>FilterComponent</title>
<polygon fill="#ffffb3" stroke="black" points="601.66,-281.11 490.34,-281.11 490.34,-245.11 601.66,-245.11 601.66,-281.11"/>
<text text-anchor="middle" x="546" y="-258.91" font-family="Times,serif" font-size="14.00">FilterComponent</text>
</g>
<!-- FilterModule -->
<g id="node2" class="node">
<title>FilterModule</title>
<polygon fill="#8dd3c7" stroke="black" points="376.88,-346.11 373.88,-350.11 352.88,-350.11 349.88,-346.11 287.12,-346.11 287.12,-310.11 376.88,-310.11 376.88,-346.11"/>
<text text-anchor="middle" x="332" y="-323.91" font-family="Times,serif" font-size="14.00">FilterModule</text>
</g>
<!-- FilterComponent&#45;&gt;FilterModule -->
<g id="edge1" class="edge">
<title>FilterComponent&#45;&gt;FilterModule</title>
<path fill="none" stroke="black" d="M490.3,-257.11C431.42,-257.11 346.98,-257.11 346.98,-257.11 346.98,-257.11 346.98,-299.82 346.98,-299.82"/>
<polygon fill="black" stroke="black" points="343.48,-299.82 346.98,-309.82 350.48,-299.82 343.48,-299.82"/>
</g>
<!-- FilterComponent  -->
<g id="node6" class="node">
<title>FilterComponent </title>
<polygon fill="#fb8072" stroke="black" points="389.66,-411.11 274.34,-411.11 274.34,-375.11 389.66,-375.11 389.66,-411.11"/>
<text text-anchor="middle" x="332" y="-388.91" font-family="Times,serif" font-size="14.00">FilterComponent </text>
</g>
<!-- FilterModule&#45;&gt;FilterComponent  -->
<g id="edge5" class="edge">
<title>FilterModule&#45;&gt;FilterComponent </title>
<path fill="none" stroke="black" stroke-dasharray="5,2" d="M332,-346.21C332,-346.21 332,-365.1 332,-365.1"/>
<polygon fill="black" stroke="black" points="328.5,-365.1 332,-375.1 335.5,-365.1 328.5,-365.1"/>
</g>
<!-- {
 &#160;&#160;&#160;provide: DateAdapter, useClass: MomentDateAdapter, deps: [
 &#160;&#160;&#160;&#160;&#160;&#160;&#160;MAT_DATE_LOCALE, MAT_MOMENT_DATE_ADAPTER_OPTIONS
 &#160;&#160;&#160;]
} -->
<g id="node3" class="node">
<title>{
 &#160;&#160;&#160;provide: DateAdapter, useClass: MomentDateAdapter, deps: [
 &#160;&#160;&#160;&#160;&#160;&#160;&#160;MAT_DATE_LOCALE, MAT_MOMENT_DATE_ADAPTER_OPTIONS
 &#160;&#160;&#160;]
}</title>
<ellipse fill="#fdb462" stroke="black" cx="1205" cy="-151.05" rx="332.96" ry="65.11"/>
<text text-anchor="middle" x="1205" y="-180.45" font-family="Times,serif" font-size="14.00">{</text>
<text text-anchor="middle" x="1205" y="-163.65" font-family="Times,serif" font-size="14.00"> &#160;&#160;&#160;provide: DateAdapter, useClass: MomentDateAdapter, deps: [</text>
<text text-anchor="middle" x="1205" y="-146.85" font-family="Times,serif" font-size="14.00"> &#160;&#160;&#160;&#160;&#160;&#160;&#160;MAT_DATE_LOCALE, MAT_MOMENT_DATE_ADAPTER_OPTIONS</text>
<text text-anchor="middle" x="1205" y="-130.05" font-family="Times,serif" font-size="14.00"> &#160;&#160;&#160;]</text>
<text text-anchor="middle" x="1205" y="-113.25" font-family="Times,serif" font-size="14.00">}</text>
</g>
<!-- {
 &#160;&#160;&#160;provide: DateAdapter, useClass: MomentDateAdapter, deps: [
 &#160;&#160;&#160;&#160;&#160;&#160;&#160;MAT_DATE_LOCALE, MAT_MOMENT_DATE_ADAPTER_OPTIONS
 &#160;&#160;&#160;]
}&#45;&gt;FilterComponent -->
<g id="edge2" class="edge">
<title>{
 &#160;&#160;&#160;provide: DateAdapter, useClass: MomentDateAdapter, deps: [
 &#160;&#160;&#160;&#160;&#160;&#160;&#160;MAT_DATE_LOCALE, MAT_MOMENT_DATE_ADAPTER_OPTIONS
 &#160;&#160;&#160;]
}&#45;&gt;FilterComponent</title>
<path fill="none" stroke="black" d="M1019.34,-205.11C830.24,-205.11 564.61,-205.11 564.61,-205.11 564.61,-205.11 564.61,-235.07 564.61,-235.07"/>
<polygon fill="black" stroke="black" points="561.11,-235.07 564.61,-245.07 568.11,-235.07 561.11,-235.07"/>
</g>
<!-- {
 &#160;&#160;&#160;provide: MAT_DATE_FORMATS, useValue: MY_DATE_FORMATS
} -->
<g id="node4" class="node">
<title>{
 &#160;&#160;&#160;provide: MAT_DATE_FORMATS, useValue: MY_DATE_FORMATS
}</title>
<ellipse fill="#fdb462" stroke="black" cx="546" cy="-151.05" rx="307.89" ry="41.09"/>
<text text-anchor="middle" x="546" y="-163.65" font-family="Times,serif" font-size="14.00">{</text>
<text text-anchor="middle" x="546" y="-146.85" font-family="Times,serif" font-size="14.00"> &#160;&#160;&#160;provide: MAT_DATE_FORMATS, useValue: MY_DATE_FORMATS</text>
<text text-anchor="middle" x="546" y="-130.05" font-family="Times,serif" font-size="14.00">}</text>
</g>
<!-- {
 &#160;&#160;&#160;provide: MAT_DATE_FORMATS, useValue: MY_DATE_FORMATS
}&#45;&gt;FilterComponent -->
<g id="edge3" class="edge">
<title>{
 &#160;&#160;&#160;provide: MAT_DATE_FORMATS, useValue: MY_DATE_FORMATS
}&#45;&gt;FilterComponent</title>
<path fill="none" stroke="black" d="M527.39,-192.46C527.39,-192.46 527.39,-234.98 527.39,-234.98"/>
<polygon fill="black" stroke="black" points="523.89,-234.98 527.39,-244.98 530.89,-234.98 523.89,-234.98"/>
</g>
<!-- CollectionSitesSelectorModule -->
<g id="node5" class="node">
<title>CollectionSitesSelectorModule</title>
<polygon fill="#8dd3c7" stroke="black" points="214.47,-281.11 211.47,-285.11 190.47,-285.11 187.47,-281.11 23.53,-281.11 23.53,-245.11 214.47,-245.11 214.47,-281.11"/>
<text text-anchor="middle" x="119" y="-258.91" font-family="Times,serif" font-size="14.00">CollectionSitesSelectorModule</text>
</g>
<!-- CollectionSitesSelectorModule&#45;&gt;FilterModule -->
<g id="edge4" class="edge">
<title>CollectionSitesSelectorModule&#45;&gt;FilterModule</title>
<path fill="none" stroke="black" d="M214.53,-269.11C265.17,-269.11 317.02,-269.11 317.02,-269.11 317.02,-269.11 317.02,-300.09 317.02,-300.09"/>
<polygon fill="black" stroke="black" points="313.52,-300.09 317.02,-310.09 320.52,-300.09 313.52,-300.09"/>
</g>
</g>
</svg>
