<?xml version="1.0" encoding="UTF-8" standalone="no"?>
<!DOCTYPE svg PUBLIC "-//W3C//DTD SVG 1.1//EN"
 "http://www.w3.org/Graphics/SVG/1.1/DTD/svg11.dtd">
<!-- Generated by graphviz version 2.47.0 (20210316.0004)
 -->
<!-- Title: dependencies Pages: 1 -->
<svg width="1268pt" height="211pt"
 viewBox="0.00 0.00 1268.00 211.00" xmlns="http://www.w3.org/2000/svg" xmlns:xlink="http://www.w3.org/1999/xlink">
<g id="graph0" class="graph" transform="scale(1 1) rotate(0) translate(4 207)">
<title>dependencies</title>
<polygon fill="white" stroke="transparent" points="-4,4 -4,-207 1264,-207 1264,4 -4,4"/>
<text text-anchor="start" x="609.01" y="-42.4" font-family="Times-12" font-weight="bold" font-size="14.00">Legend</text>
<polygon fill="#ffffb3" stroke="transparent" points="396,-10 396,-30 416,-30 416,-10 396,-10"/>
<text text-anchor="start" x="419.63" y="-15.4" font-family="Times-12" font-size="14.00"> &#160;Declarations</text>
<polygon fill="#8dd3c7" stroke="transparent" points="509,-10 509,-30 529,-30 529,-10 509,-10"/>
<text text-anchor="start" x="532.73" y="-15.4" font-family="Times-12" font-size="14.00"> &#160;Module</text>
<polygon fill="#80b1d3" stroke="transparent" points="595,-10 595,-30 615,-30 615,-10 595,-10"/>
<text text-anchor="start" x="618.78" y="-15.4" font-family="Times-12" font-size="14.00"> &#160;Bootstrap</text>
<polygon fill="#fdb462" stroke="transparent" points="692,-10 692,-30 712,-30 712,-10 692,-10"/>
<text text-anchor="start" x="715.67" y="-15.4" font-family="Times-12" font-size="14.00"> &#160;Providers</text>
<polygon fill="#fb8072" stroke="transparent" points="788,-10 788,-30 808,-30 808,-10 788,-10"/>
<text text-anchor="start" x="811.73" y="-15.4" font-family="Times-12" font-size="14.00"> &#160;Exports</text>
<g id="clust1" class="cluster">
<title>cluster_GeneralModule</title>
<polygon fill="none" stroke="black" stroke-dasharray="1,5" points="8,-70 8,-195 1252,-195 1252,-70 8,-70"/>
</g>
<g id="clust2" class="cluster">
<title>cluster_GeneralModule_declarations</title>
<polygon fill="none" stroke="black" points="886,-78 886,-130 1244,-130 1244,-78 886,-78"/>
</g>
<g id="clust5" class="cluster">
<title>cluster_GeneralModule_imports</title>
<polygon fill="none" stroke="black" points="16,-78 16,-130 878,-130 878,-78 16,-78"/>
</g>
<!-- DownloadExcelPageComponent -->
<g id="node1" class="node">
<title>DownloadExcelPageComponent</title>
<polygon fill="#ffffb3" stroke="black" points="1236.24,-122 1037.76,-122 1037.76,-86 1236.24,-86 1236.24,-122"/>
<text text-anchor="middle" x="1137" y="-99.8" font-family="Times,serif" font-size="14.00">DownloadExcelPageComponent</text>
</g>
<!-- GeneralModule -->
<g id="node3" class="node">
<title>GeneralModule</title>
<polygon fill="#8dd3c7" stroke="black" points="675.85,-187 672.85,-191 651.85,-191 648.85,-187 572.15,-187 572.15,-151 675.85,-151 675.85,-187"/>
<text text-anchor="middle" x="624" y="-164.8" font-family="Times,serif" font-size="14.00">GeneralModule</text>
</g>
<!-- DownloadExcelPageComponent&#45;&gt;GeneralModule -->
<g id="edge1" class="edge">
<title>DownloadExcelPageComponent&#45;&gt;GeneralModule</title>
<path fill="none" stroke="black" d="M1137,-122.29C1137,-144.21 1137,-178 1137,-178 1137,-178 686.01,-178 686.01,-178"/>
<polygon fill="black" stroke="black" points="686.01,-174.5 676.01,-178 686.01,-181.5 686.01,-174.5"/>
</g>
<!-- GeneralComponent -->
<g id="node2" class="node">
<title>GeneralComponent</title>
<polygon fill="#ffffb3" stroke="black" points="1019.63,-122 894.37,-122 894.37,-86 1019.63,-86 1019.63,-122"/>
<text text-anchor="middle" x="957" y="-99.8" font-family="Times,serif" font-size="14.00">GeneralComponent</text>
</g>
<!-- GeneralComponent&#45;&gt;GeneralModule -->
<g id="edge2" class="edge">
<title>GeneralComponent&#45;&gt;GeneralModule</title>
<path fill="none" stroke="black" d="M957,-122.11C957,-141.34 957,-169 957,-169 957,-169 686.03,-169 686.03,-169"/>
<polygon fill="black" stroke="black" points="686.03,-165.5 676.03,-169 686.03,-172.5 686.03,-165.5"/>
</g>
<!-- BreadcrumbModule -->
<g id="node4" class="node">
<title>BreadcrumbModule</title>
<polygon fill="#8dd3c7" stroke="black" points="870.24,-122 867.24,-126 846.24,-126 843.24,-122 741.76,-122 741.76,-86 870.24,-86 870.24,-122"/>
<text text-anchor="middle" x="806" y="-99.8" font-family="Times,serif" font-size="14.00">BreadcrumbModule</text>
</g>
<!-- BreadcrumbModule&#45;&gt;GeneralModule -->
<g id="edge3" class="edge">
<title>BreadcrumbModule&#45;&gt;GeneralModule</title>
<path fill="none" stroke="black" d="M806,-122.03C806,-138.4 806,-160 806,-160 806,-160 686.15,-160 686.15,-160"/>
<polygon fill="black" stroke="black" points="686.15,-156.5 676.15,-160 686.15,-163.5 686.15,-156.5"/>
</g>
<!-- ChartModule -->
<g id="node5" class="node">
<title>ChartModule</title>
<polygon fill="#8dd3c7" stroke="black" points="723.15,-122 720.15,-126 699.15,-126 696.15,-122 632.85,-122 632.85,-86 723.15,-86 723.15,-122"/>
<text text-anchor="middle" x="678" y="-99.8" font-family="Times,serif" font-size="14.00">ChartModule</text>
</g>
<!-- ChartModule&#45;&gt;GeneralModule -->
<g id="edge4" class="edge">
<title>ChartModule&#45;&gt;GeneralModule</title>
<path fill="none" stroke="black" d="M654.3,-122.11C654.3,-122.11 654.3,-140.99 654.3,-140.99"/>
<polygon fill="black" stroke="black" points="650.8,-140.99 654.3,-150.99 657.8,-140.99 650.8,-140.99"/>
</g>
<!-- FilterModule -->
<g id="node6" class="node">
<title>FilterModule</title>
<polygon fill="#8dd3c7" stroke="black" points="614.88,-122 611.88,-126 590.88,-126 587.88,-122 525.12,-122 525.12,-86 614.88,-86 614.88,-122"/>
<text text-anchor="middle" x="570" y="-99.8" font-family="Times,serif" font-size="14.00">FilterModule</text>
</g>
<!-- FilterModule&#45;&gt;GeneralModule -->
<g id="edge5" class="edge">
<title>FilterModule&#45;&gt;GeneralModule</title>
<path fill="none" stroke="black" d="M593.51,-122.11C593.51,-122.11 593.51,-140.99 593.51,-140.99"/>
<polygon fill="black" stroke="black" points="590.01,-140.99 593.51,-150.99 597.01,-140.99 590.01,-140.99"/>
</g>
<!-- GeneralRoutingModule -->
<g id="node7" class="node">
<title>GeneralRoutingModule</title>
<polygon fill="#8dd3c7" stroke="black" points="507.47,-122 504.47,-126 483.47,-126 480.47,-122 358.53,-122 358.53,-86 507.47,-86 507.47,-122"/>
<text text-anchor="middle" x="433" y="-99.8" font-family="Times,serif" font-size="14.00">GeneralRoutingModule</text>
</g>
<!-- GeneralRoutingModule&#45;&gt;GeneralModule -->
<g id="edge6" class="edge">
<title>GeneralRoutingModule&#45;&gt;GeneralModule</title>
<path fill="none" stroke="black" d="M433,-122.03C433,-138.4 433,-160 433,-160 433,-160 562.06,-160 562.06,-160"/>
<polygon fill="black" stroke="black" points="562.06,-163.5 572.06,-160 562.06,-156.5 562.06,-163.5"/>
</g>
<!-- ObjectGroupingModule -->
<g id="node8" class="node">
<title>ObjectGroupingModule</title>
<polygon fill="#8dd3c7" stroke="black" points="340.03,-122 337.03,-126 316.03,-126 313.03,-122 189.97,-122 189.97,-86 340.03,-86 340.03,-122"/>
<text text-anchor="middle" x="265" y="-99.8" font-family="Times,serif" font-size="14.00">ObjectGroupingModule</text>
</g>
<!-- ObjectGroupingModule&#45;&gt;GeneralModule -->
<g id="edge7" class="edge">
<title>ObjectGroupingModule&#45;&gt;GeneralModule</title>
<path fill="none" stroke="black" d="M265,-122.11C265,-141.34 265,-169 265,-169 265,-169 561.8,-169 561.8,-169"/>
<polygon fill="black" stroke="black" points="561.8,-172.5 571.8,-169 561.8,-165.5 561.8,-172.5"/>
</g>
<!-- ReportingTableModule -->
<g id="node9" class="node">
<title>ReportingTableModule</title>
<polygon fill="#8dd3c7" stroke="black" points="171.92,-122 168.92,-126 147.92,-126 144.92,-122 24.08,-122 24.08,-86 171.92,-86 171.92,-122"/>
<text text-anchor="middle" x="98" y="-99.8" font-family="Times,serif" font-size="14.00">ReportingTableModule</text>
</g>
<!-- ReportingTableModule&#45;&gt;GeneralModule -->
<g id="edge8" class="edge">
<title>ReportingTableModule&#45;&gt;GeneralModule</title>
<path fill="none" stroke="black" d="M98,-122.29C98,-144.21 98,-178 98,-178 98,-178 562.13,-178 562.13,-178"/>
<polygon fill="black" stroke="black" points="562.13,-181.5 572.13,-178 562.13,-174.5 562.13,-181.5"/>
</g>
</g>
</svg>
