<?xml version="1.0" encoding="UTF-8" standalone="no"?>
<!DOCTYPE svg PUBLIC "-//W3C//DTD SVG 1.1//EN"
 "http://www.w3.org/Graphics/SVG/1.1/DTD/svg11.dtd">
<!-- Generated by graphviz version 2.47.0 (20210316.0004)
 -->
<!-- Title: dependencies Pages: 1 -->
<svg width="567pt" height="284pt"
 viewBox="0.00 0.00 567.00 284.00" xmlns="http://www.w3.org/2000/svg" xmlns:xlink="http://www.w3.org/1999/xlink">
<g id="graph0" class="graph" transform="scale(1 1) rotate(0) translate(4 280)">
<title>dependencies</title>
<polygon fill="white" stroke="transparent" points="-4,4 -4,-280 563,-280 563,4 -4,4"/>
<text text-anchor="start" x="258.51" y="-42.4" font-family="Times-12" font-weight="bold" font-size="14.00">Legend</text>
<polygon fill="#ffffb3" stroke="transparent" points="45.5,-10 45.5,-30 65.5,-30 65.5,-10 45.5,-10"/>
<text text-anchor="start" x="69.13" y="-15.4" font-family="Times-12" font-size="14.00"> &#160;Declarations</text>
<polygon fill="#8dd3c7" stroke="transparent" points="158.5,-10 158.5,-30 178.5,-30 178.5,-10 158.5,-10"/>
<text text-anchor="start" x="182.23" y="-15.4" font-family="Times-12" font-size="14.00"> &#160;Module</text>
<polygon fill="#80b1d3" stroke="transparent" points="244.5,-10 244.5,-30 264.5,-30 264.5,-10 244.5,-10"/>
<text text-anchor="start" x="268.28" y="-15.4" font-family="Times-12" font-size="14.00"> &#160;Bootstrap</text>
<polygon fill="#fdb462" stroke="transparent" points="341.5,-10 341.5,-30 361.5,-30 361.5,-10 341.5,-10"/>
<text text-anchor="start" x="365.17" y="-15.4" font-family="Times-12" font-size="14.00"> &#160;Providers</text>
<polygon fill="#fb8072" stroke="transparent" points="437.5,-10 437.5,-30 457.5,-30 457.5,-10 437.5,-10"/>
<text text-anchor="start" x="461.23" y="-15.4" font-family="Times-12" font-size="14.00"> &#160;Exports</text>
<g id="clust1" class="cluster">
<title>cluster_FormElementEditModule</title>
<polygon fill="none" stroke="black" stroke-dasharray="1,5" points="8,-70 8,-268 551,-268 551,-70 8,-70"/>
</g>
<g id="clust5" class="cluster">
<title>cluster_FormElementEditModule_exports</title>
<polygon fill="none" stroke="black" points="156,-208 156,-260 358,-260 358,-208 156,-208"/>
</g>
<g id="clust2" class="cluster">
<title>cluster_FormElementEditModule_declarations</title>
<polygon fill="none" stroke="black" points="345,-78 345,-130 543,-130 543,-78 345,-78"/>
</g>
<g id="clust4" class="cluster">
<title>cluster_FormElementEditModule_imports</title>
<polygon fill="none" stroke="black" points="16,-78 16,-130 337,-130 337,-78 16,-78"/>
</g>
<!-- FormElementEditComponent -->
<g id="node1" class="node">
<title>FormElementEditComponent</title>
<polygon fill="#ffffb3" stroke="black" points="534.65,-122 353.35,-122 353.35,-86 534.65,-86 534.65,-122"/>
<text text-anchor="middle" x="444" y="-99.8" font-family="Times,serif" font-size="14.00">FormElementEditComponent</text>
</g>
<!-- FormElementEditModule -->
<g id="node2" class="node">
<title>FormElementEditModule</title>
<polygon fill="#8dd3c7" stroke="black" points="336.87,-187 333.87,-191 312.87,-191 309.87,-187 177.13,-187 177.13,-151 336.87,-151 336.87,-187"/>
<text text-anchor="middle" x="257" y="-164.8" font-family="Times,serif" font-size="14.00">FormElementEditModule</text>
</g>
<!-- FormElementEditComponent&#45;&gt;FormElementEditModule -->
<g id="edge1" class="edge">
<title>FormElementEditComponent&#45;&gt;FormElementEditModule</title>
<path fill="none" stroke="black" d="M353.14,-104C341.23,-104 333.05,-104 333.05,-104 333.05,-104 333.05,-140.89 333.05,-140.89"/>
<polygon fill="black" stroke="black" points="329.55,-140.89 333.05,-150.89 336.55,-140.89 329.55,-140.89"/>
</g>
<!-- FormElementEditComponent  -->
<g id="node5" class="node">
<title>FormElementEditComponent </title>
<polygon fill="#fb8072" stroke="black" points="349.65,-252 164.35,-252 164.35,-216 349.65,-216 349.65,-252"/>
<text text-anchor="middle" x="257" y="-229.8" font-family="Times,serif" font-size="14.00">FormElementEditComponent </text>
</g>
<!-- FormElementEditModule&#45;&gt;FormElementEditComponent  -->
<g id="edge4" class="edge">
<title>FormElementEditModule&#45;&gt;FormElementEditComponent </title>
<path fill="none" stroke="black" stroke-dasharray="5,2" d="M257,-187.11C257,-187.11 257,-205.99 257,-205.99"/>
<polygon fill="black" stroke="black" points="253.5,-205.99 257,-215.99 260.5,-205.99 253.5,-205.99"/>
</g>
<!-- PartitionModalModule -->
<g id="node3" class="node">
<title>PartitionModalModule</title>
<polygon fill="#8dd3c7" stroke="black" points="329.32,-122 326.32,-126 305.32,-126 302.32,-122 184.68,-122 184.68,-86 329.32,-86 329.32,-122"/>
<text text-anchor="middle" x="257" y="-99.8" font-family="Times,serif" font-size="14.00">PartitionModalModule</text>
</g>
<!-- PartitionModalModule&#45;&gt;FormElementEditModule -->
<g id="edge2" class="edge">
<title>PartitionModalModule&#45;&gt;FormElementEditModule</title>
<path fill="none" stroke="black" d="M257,-122.11C257,-122.11 257,-140.99 257,-140.99"/>
<polygon fill="black" stroke="black" points="253.5,-140.99 257,-150.99 260.5,-140.99 253.5,-140.99"/>
</g>
<!-- TableStructureModule -->
<g id="node4" class="node">
<title>TableStructureModule</title>
<polygon fill="#8dd3c7" stroke="black" points="166.24,-122 163.24,-126 142.24,-126 139.24,-122 23.76,-122 23.76,-86 166.24,-86 166.24,-122"/>
<text text-anchor="middle" x="95" y="-99.8" font-family="Times,serif" font-size="14.00">TableStructureModule</text>
</g>
<!-- TableStructureModule&#45;&gt;FormElementEditModule -->
<g id="edge3" class="edge">
<title>TableStructureModule&#45;&gt;FormElementEditModule</title>
<path fill="none" stroke="black" d="M166.37,-104C175.06,-104 180.95,-104 180.95,-104 180.95,-104 180.95,-140.89 180.95,-140.89"/>
<polygon fill="black" stroke="black" points="177.45,-140.89 180.95,-150.89 184.45,-140.89 177.45,-140.89"/>
</g>
</g>
</svg>
