<?xml version="1.0" encoding="UTF-8"?>
<svg width="24px" height="24px" viewBox="0 0 24 24" version="1.1" xmlns="http://www.w3.org/2000/svg" xmlns:xlink="http://www.w3.org/1999/xlink">
    <title>006</title>
    <g id="006" stroke="none" stroke-width="1" fill="none" fill-rule="evenodd">
        <g id="lightbulb-alt" transform="translate(4.000000, 1.000000)" fill="#90B6DF" fill-rule="nonzero">
            <path d="M13.09,1.82 C11.2273691,0.288077804 8.77305357,-0.321826961 6.41,0.16 C3.23259692,0.80181515 0.756557788,3.29759941 0.14,6.48 C-0.305733595,8.84220513 0.324832164,11.2801483 1.86,13.13 C2.56368536,13.9240676 2.96703356,14.9395144 2.99999101,16 L2.99999101,19 C2.99999101,20.6568542 4.34314575,22 5.99999101,22 L9.99999101,22 C11.6568542,22 12.999991,20.6568542 12.999991,19 L12.999991,16.19 C13.0335621,15.0191665 13.463712,13.8944305 14.22,13 C16.9779417,9.58833491 16.4738475,4.59200243 13.09,1.8 L13.09,1.82 Z M11,19 C11,19.5522847 10.5522847,20 10,20 L6,20 C5.44771525,20 5,19.5522847 5,19 L5,18 L11,18 L11,19 Z M12.67,11.76 C11.6645058,12.9525987 11.0778636,14.4420374 11,16 L9,16 L9,13 C9,12.4477153 8.55228475,12 8,12 C7.44771525,12 7,12.4477153 7,13 L7,16 L5,16 C4.97361514,14.4681008 4.40694579,12.9947604 3.4,11.84 C2.04858397,10.220798 1.64654855,8.01095116 2.34108726,6.01953043 C3.03562597,4.02810971 4.72473635,2.54758228 6.79,2.12 C8.55701682,1.75617629 10.393952,2.20675842 11.7920479,3.34695313 C13.1901438,4.48714785 14.0009847,6.19591708 14.0000861,8 C14.0074019,9.36986235 13.53709,10.6994659 12.67,11.76 Z" id="Shape"></path>
        </g>
    </g>
</svg>