<?xml version="1.0" encoding="UTF-8"?><!DOCTYPE svg PUBLIC "-//W3C//DTD SVG 1.1//EN" "http://www.w3.org/Graphics/SVG/1.1/DTD/svg11.dtd"><svg xmlns="http://www.w3.org/2000/svg" xmlns:xlink="http://www.w3.org/1999/xlink" version="1.1" id="Layer_1" x="0px" y="0px" width="32" height="32" viewBox="0 0 32 32" xml:space="preserve" fill="#000"><path d="M26 2h-6a2 2 0 0 0-2-2h-4a2 2 0 0 0-2 2H6a2 2 0 0 0-2 2v26a2 2 0 0 0 2 2h20a2 2 0 0 0 2-2V4a2 2 0 0 0-2-2zm0 26H6V4h4a2 2 0 0 0 2 2h8a2 2 0 0 0 2-2h4v24zM8 11a1 1 0 0 0 1 1h14a1 1 0 0 0 0-2H9a1 1 0 0 0-1 1zm15 5H9a1 1 0 0 0 0 2h14a1 1 0 0 0 0-2zm0 6H9a1 1 0 0 0 0 2h14a1 1 0 0 0 0-2z"/><metadata><rdf:RDF xmlns:rdf="http://www.w3.org/1999/02/22-rdf-syntax-ns#" xmlns:rdfs="http://www.w3.org/2000/01/rdf-schema#" xmlns:dc="http://purl.org/dc/elements/1.1/"><rdf:Description about="https://iconscout.com/legal#licenses" dc:title="clipboard" dc:description="clipboard" dc:publisher="Iconscout" dc:date="2017-09-25" dc:format="image/svg+xml" dc:language="en"><dc:creator><rdf:Bag><rdf:li>Elegant Themes</rdf:li></rdf:Bag></dc:creator></rdf:Description></rdf:RDF></metadata></svg>