<?xml version="1.0" encoding="UTF-8"?>
<svg width="24px" height="24px" viewBox="0 0 24 24" version="1.1" xmlns="http://www.w3.org/2000/svg" xmlns:xlink="http://www.w3.org/1999/xlink">
    <title>009</title>
    <g id="009" stroke="none" stroke-width="1" fill="none" fill-rule="evenodd">
        <g id="object-group" transform="translate(1.000000, 1.000000)" fill="#90B6DF" fill-rule="nonzero">
            <path d="M15,9 L13,9 L13,7 C13,6.44771525 12.5522847,6 12,6 L7,6 C6.44771525,6 6,6.44771525 6,7 L6,12 C6,12.5522847 6.44771525,13 7,13 L9,13 L9,15 C9,15.5522847 9.44771525,16 10,16 L15,16 C15.5522847,16 16,15.5522847 16,15 L16,10 C16,9.44771525 15.5522847,9 15,9 Z M9,10 L9,11 L8,11 L8,8 L11,8 L11,9 L10,9 C9.44771525,9 9,9.44771525 9,10 Z M14,14 L11,14 L11,11 L14,11 L14,14 Z M20,17.28 L20,4.72 C20.7416102,4.30749467 21.1421576,3.47188461 20.9992525,2.63538927 C20.8563474,1.79889394 20.2011061,1.1436526 19.3646107,1.0007475 C18.5281154,0.857842397 17.6925053,1.25838981 17.28,2 L4.72,2 C4.30749467,1.25838981 3.47188461,0.857842397 2.63538927,1.0007475 C1.79889394,1.1436526 1.1436526,1.79889394 1.0007475,2.63538927 C0.857842397,3.47188461 1.25838981,4.30749467 2,4.72 L2,17.28 C1.25838981,17.6925053 0.857842397,18.5281154 1.0007475,19.3646107 C1.1436526,20.2011061 1.79889394,20.8563474 2.63538927,20.9992525 C3.47188461,21.1421576 4.30749467,20.7416102 4.72,20 L17.28,20 C17.6925053,20.7416102 18.5281154,21.1421576 19.3646107,20.9992525 C20.2011061,20.8563474 20.8563474,20.2011061 20.9992525,19.3646107 C21.1421576,18.5281154 20.7416102,17.6925053 20,17.28 Z M18,17.28 C17.6992702,17.450427 17.450427,17.6992702 17.28,18 L4.72,18 C4.54957295,17.6992702 4.30072982,17.450427 4,17.28 L4,4.72 C4.30072982,4.54957295 4.54957295,4.30072982 4.72,4 L17.28,4 C17.450427,4.30072982 17.6992702,4.54957295 18,4.72 L18,17.28 Z" id="Shape"></path>
        </g>
    </g>
</svg>