<?xml version="1.0" encoding="UTF-8"?>
<svg width="24px" height="24px" viewBox="0 0 24 24" version="1.1" xmlns="http://www.w3.org/2000/svg" xmlns:xlink="http://www.w3.org/1999/xlink">
    <title>007</title>
    <g id="007" stroke="none" stroke-width="1" fill="none" fill-rule="evenodd">
        <path d="M21,2 L3,2 C2.44771525,2 2,2.44771525 2,3 L2,21 C2,21.5522847 2.44771525,22 3,22 L21,22 C21.5522847,22 22,21.5522847 22,21 L22,3 C22,2.44771525 21.5522847,2 21,2 Z M8,20 L4,20 L4,16 L8,16 L8,20 Z M8,14 L4,14 L4,10 L8,10 L8,14 Z M8,8 L4,8 L4,4 L8,4 L8,8 Z M14,20 L10,20 L10,16 L14,16 L14,20 Z M14,14 L10,14 L10,10 L14,10 L14,14 Z M14,8 L10,8 L10,4 L14,4 L14,8 Z M20,20 L16,20 L16,16 L20,16 L20,20 Z M20,14 L16,14 L16,10 L20,10 L20,14 Z M20,8 L16,8 L16,4 L20,4 L20,8 Z" id="Shape" fill="#90B6DF" fill-rule="nonzero"></path>
    </g>
</svg>