<?xml version="1.0" encoding="UTF-8"?>
<svg width="24px" height="24px" viewBox="0 0 24 24" version="1.1" xmlns="http://www.w3.org/2000/svg" xmlns:xlink="http://www.w3.org/1999/xlink">
    <title>012</title>
    <g id="012" stroke="none" stroke-width="1" fill="none" fill-rule="evenodd">
        <g id="user-(2)" transform="translate(4.000000, 4.000000)" fill="#81858B" fill-rule="nonzero">
            <path d="M10.968,9.368 C12.5757185,8.10309891 13.2051147,5.95825228 12.5358298,4.02517411 C11.8665448,2.09209594 10.0456621,0.795603414 8,0.795603414 C5.95433787,0.795603414 4.13345517,2.09209594 3.46417022,4.02517411 C2.79488527,5.95825228 3.42428149,8.10309891 5.032,9.368 C2.2936775,10.4650769 0.381293506,12.9800771 0.056,15.912 C0.00739894201,16.3538278 0.3261722,16.7513989 0.768,16.8 C1.2098278,16.8486011 1.60739894,16.5298278 1.656,16.088 C2.01970491,12.8501931 4.75782953,10.4024228 8.016,10.4024228 C11.2741705,10.4024228 14.0122951,12.8501931 14.376,16.088 C14.4210521,16.4951479 14.7663746,16.802485 15.176,16.8 L15.264,16.8 C15.7005129,16.7497744 16.0148193,16.3568913 15.968,15.92 C15.641134,12.9794474 13.7180116,10.4593878 10.968,9.368 L10.968,9.368 Z M8,8.8 C6.2326888,8.8 4.8,7.3673112 4.8,5.6 C4.8,3.8326888 6.2326888,2.4 8,2.4 C9.7673112,2.4 11.2,3.8326888 11.2,5.6 C11.2,6.44869277 10.8628581,7.26262529 10.2627417,7.8627417 C9.66262529,8.46285811 8.84869277,8.8 8,8.8 Z" id="Shape"></path>
        </g>
    </g>
</svg>