<?xml version="1.0" encoding="UTF-8"?>
<svg width="24px" height="24px" viewBox="0 0 24 24" version="1.1" xmlns="http://www.w3.org/2000/svg" xmlns:xlink="http://www.w3.org/1999/xlink">
    <title>003</title>
    <g id="003" stroke="none" stroke-width="1" fill="none" fill-rule="evenodd">
        <g id="chart-pie" transform="translate(1.000000, 2.000000)" fill="#90B6DF" fill-rule="nonzero">
            <path d="M11,2.66486052e-15 C6.80112166,-0.0075966704 3.04470124,2.60867876 1.59597664,6.54972356 C0.147252036,10.4907684 1.3148175,14.9170967 4.51892235,17.6308301 C7.72302719,20.3445636 12.2811619,20.7676471 15.93,18.69 L16,18.69 L16.05,18.69 C20.0098404,16.435811 21.945153,11.7897914 20.7566171,7.39103176 C19.5680812,2.99227211 15.5562605,-0.0468442014 11,2.66486052e-15 Z M12,2.07 C15.6201903,2.52908545 18.4709146,5.37980969 18.93,9 L12,9 L12,2.07 Z M11,18 C6.79746874,17.9713257 3.33360006,14.6957697 3.07029982,10.5013967 C2.80699957,6.30702383 5.8340461,2.62400298 10,2.07 L10,10 C10.0039432,10.1197204 10.0275936,10.2379722 10.07,10.35 L10.07,10.43 L10.07,10.5 L14.07,17.37 C13.099745,17.7852721 12.0553888,17.9995863 11,18 L11,18 Z M15.83,16.36 L12.73,11 L18.93,11 C18.6580139,13.1303429 17.5409018,15.0618658 15.83,16.36 Z" id="Shape"></path>
        </g>
    </g>
</svg>