<?xml version="1.0" encoding="UTF-8"?>
<svg width="24px" height="24px" viewBox="0 0 24 24" version="1.1" xmlns="http://www.w3.org/2000/svg" xmlns:xlink="http://www.w3.org/1999/xlink">
    <title>013</title>
    <g id="013" stroke="none" stroke-width="1" fill="none" fill-rule="evenodd">
        <g id="star-copy-10" transform="translate(4.000000, 4.000000)" fill="#81858B" fill-rule="nonzero">
            <path d="M15.2173428,6.09624335 C15.1191727,5.79848243 14.8627057,5.58924068 14.5629974,5.56238755 L10.2336652,4.9010438 L8.29345483,0.78158935 C8.1663243,0.506701159 7.90033213,0.332106586 7.6086747,0.332106586 C7.31701726,0.332106586 7.0510251,0.506701159 6.92389457,0.78158935 L4.9836842,4.89307581 L0.654352043,5.56238755 C0.367066179,5.60514927 0.128017965,5.81530921 0.0380499258,6.10421135 C-0.0442116446,6.38620973 0.028962307,6.69272847 0.228266629,6.90101105 L3.37064656,10.0882099 L2.60977975,14.6140322 C2.55431791,14.9190448 2.67309713,15.2300166 2.91412647,15.4108319 C3.14880054,15.5865223 3.45816931,15.6081209 3.71303662,15.4666078 L7.6086747,13.3391526 L11.4890954,15.4745758 C11.5958814,15.5376637 11.716488,15.5706122 11.8390942,15.5701969 C12.0002659,15.5707929 12.1574567,15.5177815 12.2880056,15.4187999 C12.5290349,15.2379846 12.6478141,14.9270128 12.5923523,14.6220002 L11.8314855,10.0961779 L14.9738654,6.90897905 C15.1980921,6.71004196 15.2928722,6.39366278 15.2173428,6.09624335 Z M10.5380119,9.28344216 C10.3568352,9.46695874 10.2742038,9.73252776 10.3173605,9.99259389 L10.8651847,13.3311846 L8.00432544,11.7375852 C7.78077864,11.6129301 7.51265744,11.6129301 7.28911064,11.7375852 L4.42825143,13.3311846 L4.97607553,9.99259389 C5.01923227,9.73252776 4.93660091,9.46695874 4.75542416,9.28344216 L2.47282372,6.89304305 L5.676073,6.40699524 C5.92635782,6.37053736 6.1430289,6.20633077 6.25433178,5.9687554 L7.6086747,2.93294854 L9.0391043,5.9767234 C9.15040718,6.21429877 9.36707826,6.37850535 9.61736308,6.41496323 L12.8206124,6.90101105 L10.5380119,9.28344216 Z" id="Shape"></path>
        </g>
    </g>
</svg>