<?xml version="1.0" encoding="UTF-8"?>
<svg width="130px" height="130px" viewBox="0 0 130 130" version="1.1" xmlns="http://www.w3.org/2000/svg" xmlns:xlink="http://www.w3.org/1999/xlink">
    <title>20</title>
    <g id="20" stroke="none" stroke-width="1" fill="none" fill-rule="evenodd">
        <g id="undraw_design_notes_8dmv-(2)" transform="translate(12.000000, 21.000000)" fill-rule="nonzero">
            <rect id="Rectangle" fill="#E6E6E6" x="0" y="11.1226766" width="102.394052" height="65.4275093"></rect>
            <rect id="Rectangle" fill="#FFFFFF" x="2.94423792" y="19.3011152" width="96.5055762" height="53.3234201"></rect>
            <rect id="Rectangle" fill="#FE5E00" x="0" y="11.1226766" width="102.394052" height="4.2527881"></rect>
            <circle id="Oval" fill="#FFFFFF" cx="3.10780669" cy="13.2490706" r="1"></circle>
            <circle id="Oval" fill="#FFFFFF" cx="6.37918216" cy="13.2490706" r="1"></circle>
            <circle id="Oval" fill="#FFFFFF" cx="9.32342007" cy="13.2490706" r="1"></circle>
            <rect id="Rectangle" fill="#E6E6E6" x="11.7769517" y="24.535316" width="24.8624535" height="42.527881"></rect>
            <rect id="Rectangle" fill="#FE5E00" x="40.8921933" y="24.535316" width="20.6096654" height="11.7769517"></rect>
            <rect id="Rectangle" fill="#E6E6E6" x="40.8921933" y="39.5836431" width="20.6096654" height="12.4312268"></rect>
            <rect id="Rectangle" fill="#E6E6E6" x="40.8921933" y="55.2862454" width="20.6096654" height="11.7769517"></rect>
            <rect id="Rectangle" fill="#E6E6E6" x="65.7546468" y="24.8624535" width="24.8624535" height="18.3197026"></rect>
            <rect id="Rectangle" fill="#FE5E00" x="65.7546468" y="48.7434944" width="24.8624535" height="18.3197026"></rect>
            <polygon id="Path" fill="#3F3D56" points="51.3574768 30.0966543 51.0334572 30.0101134 58.1049145 3.27137546 99.1226766 3.27137546 99.1226766 3.6082611 58.3625705 3.6082611"></polygon>
            <path d="M102.394052,7.19702602 C100.406648,7.19702602 98.795539,5.58591687 98.795539,3.59851301 C98.795539,1.61110915 100.406648,0 102.394052,0 C104.381456,0 105.992565,1.61110915 105.992565,3.59851301 C105.990308,5.58498113 104.38052,7.19476876 102.394052,7.19702602 L102.394052,7.19702602 Z M102.394052,0.342716145 C101.077204,0.342716145 99.8900213,1.13596508 99.3860851,2.35257374 C98.882149,3.56918241 99.1607012,4.96955978 100.091853,5.90071183 C101.023005,6.83186389 102.423383,7.11041608 103.639991,6.60647992 C104.8566,6.10254375 105.649849,4.91536087 105.649849,3.59851301 C105.647808,1.8012322 104.191333,0.344757277 102.394052,0.342716145 L102.394052,0.342716145 Z" id="Shape" fill="#3F3D56"></path>
            <circle id="Oval" fill="#FE5E00" cx="102.394052" cy="3.59851301" r="1.30855019"></circle>
            <polygon id="Path" fill="#3F3D56" points="71.7687149 84.401487 30.7509294 84.401487 30.7509294 84.0646034 71.5110597 84.0646034 78.5161302 57.5762082 78.8401487 57.6627486"></polygon>
            <path d="M27.4795539,88 C25.49215,88 23.8810409,86.3888908 23.8810409,84.401487 C23.8810409,82.4140831 25.49215,80.802974 27.4795539,80.802974 C29.4669578,80.802974 31.0780669,82.4140831 31.0780669,84.401487 C31.0758097,86.3879551 29.466022,87.9977427 27.4795539,88 Z M27.4795539,81.1456901 C26.162706,81.1456901 24.9755232,81.9389391 24.471587,83.1555477 C23.9676508,84.3721564 24.246203,85.7725338 25.1773551,86.7036858 C26.1085071,87.6348379 27.5088845,87.9133901 28.7254932,87.4094539 C29.9421018,86.9055177 30.7353508,85.7183349 30.7353508,84.401487 C30.7333096,82.6042062 29.2768347,81.1477313 27.4795539,81.1456901 L27.4795539,81.1456901 Z" id="Shape" fill="#3F3D56"></path>
            <circle id="Oval" fill="#FE5E00" cx="27.4795539" cy="84.401487" r="1.30855019"></circle>
        </g>
    </g>
</svg>