<?xml version="1.0" encoding="UTF-8"?>
<svg width="130px" height="130px" viewBox="0 0 130 130" version="1.1" xmlns="http://www.w3.org/2000/svg" xmlns:xlink="http://www.w3.org/1999/xlink">
    <title>50</title>
    <defs>
        <linearGradient x1="50%" y1="100%" x2="50%" y2="0%" id="linearGradient-1">
            <stop stop-color="#808080" stop-opacity="0.25" offset="0%"></stop>
            <stop stop-color="#808080" stop-opacity="0.12" offset="54%"></stop>
            <stop stop-color="#808080" stop-opacity="0.1" offset="100%"></stop>
        </linearGradient>
        <linearGradient x1="50%" y1="100%" x2="50%" y2="8.86848147e-15%" id="linearGradient-2">
            <stop stop-color="#808080" stop-opacity="0.25" offset="0%"></stop>
            <stop stop-color="#808080" stop-opacity="0.12" offset="54%"></stop>
            <stop stop-color="#808080" stop-opacity="0.1" offset="100%"></stop>
        </linearGradient>
        <linearGradient x1="49.9982618%" y1="100%" x2="49.9982618%" y2="0%" id="linearGradient-3">
            <stop stop-color="#808080" stop-opacity="0.25" offset="0%"></stop>
            <stop stop-color="#808080" stop-opacity="0.12" offset="54%"></stop>
            <stop stop-color="#808080" stop-opacity="0.1" offset="100%"></stop>
        </linearGradient>
        <linearGradient x1="50%" y1="100%" x2="50%" y2="0%" id="linearGradient-4">
            <stop stop-color="#808080" stop-opacity="0.25" offset="0%"></stop>
            <stop stop-color="#808080" stop-opacity="0.12" offset="54%"></stop>
            <stop stop-color="#808080" stop-opacity="0.1" offset="100%"></stop>
        </linearGradient>
    </defs>
    <g id="50" stroke="none" stroke-width="1" fill="none" fill-rule="evenodd">
        <g id="undraw_server_q2pb" transform="translate(12.000000, 21.000000)">
            <rect id="Rectangle" fill="url(#linearGradient-1)" fill-rule="nonzero" x="0" y="0" width="47.9046358" height="53.466702"></rect>
            <rect id="Rectangle" fill="#FFFFFF" fill-rule="nonzero" x="0.791417219" y="35.6976954" width="46.3206358" height="16.6046093"></rect>
            <rect id="Rectangle" fill="#64FFDA" fill-rule="nonzero" x="4.59348344" y="39.6361325" width="1.79496689" height="8.50860927"></rect>
            <g id="Group" opacity="0.7" transform="translate(8.042384, 39.629139)" fill="#64FFDA" fill-rule="nonzero">
                <rect id="Rectangle" x="0.094410596" y="0.00699337748" width="1.79496689" height="8.50860927"></rect>
            </g>
            <g id="Group" opacity="0.6" transform="translate(11.655629, 39.629139)" fill="#64FFDA" fill-rule="nonzero">
                <rect id="Rectangle" x="0.0256423841" y="0.00699337748" width="1.79496689" height="8.50860927"></rect>
            </g>
            <g id="Group" opacity="0.5" transform="translate(15.152318, 39.629139)" fill="#64FFDA" fill-rule="nonzero">
                <rect id="Rectangle" x="0.0722649007" y="0.00699337748" width="1.79496689" height="8.50860927"></rect>
            </g>
            <g id="Group" opacity="0.5" transform="translate(18.765563, 39.629139)" fill="#64FFDA" fill-rule="nonzero">
                <rect id="Rectangle" x="0.00233112583" y="0.00699337748" width="1.79496689" height="8.50860927"></rect>
            </g>
            <g id="Group" opacity="0.4" transform="translate(22.262252, 39.629139)" fill="#64FFDA" fill-rule="nonzero">
                <rect id="Rectangle" x="0.0489536424" y="0.00699337748" width="1.79496689" height="8.50860927"></rect>
            </g>
            <g id="Group" opacity="0.3" transform="translate(25.758940, 39.629139)" fill="#64FFDA" fill-rule="nonzero">
                <rect id="Rectangle" x="0.0967417219" y="0.00699337748" width="1.79496689" height="8.50860927"></rect>
            </g>
            <circle id="Oval" fill="#FE5E00" fill-rule="nonzero" cx="40.554596" cy="43.8356556" r="4.33123179"></circle>
            <rect id="Rectangle" fill="#FFFFFF" fill-rule="nonzero" x="0.791417219" y="18.4461987" width="46.3206358" height="16.6046093"></rect>
            <rect id="Rectangle" fill="#64FFDA" fill-rule="nonzero" x="4.59348344" y="22.3846358" width="1.79496689" height="8.50860927"></rect>
            <g id="Group" opacity="0.7" transform="translate(8.042384, 22.378808)" fill="#64FFDA" fill-rule="nonzero">
                <rect id="Rectangle" x="0.094410596" y="0.00582781457" width="1.79496689" height="8.50860927"></rect>
            </g>
            <g id="Group" opacity="0.6" transform="translate(11.655629, 22.378808)" fill="#64FFDA" fill-rule="nonzero">
                <rect id="Rectangle" x="0.0256423841" y="0.00582781457" width="1.79496689" height="8.50860927"></rect>
            </g>
            <g id="Group" opacity="0.5" transform="translate(15.152318, 22.378808)" fill="#64FFDA" fill-rule="nonzero">
                <rect id="Rectangle" x="0.0722649007" y="0.00582781457" width="1.79496689" height="8.50860927"></rect>
            </g>
            <g id="Group" opacity="0.5" transform="translate(18.765563, 22.378808)" fill="#64FFDA" fill-rule="nonzero">
                <rect id="Rectangle" x="0.00233112583" y="0.00582781457" width="1.79496689" height="8.50860927"></rect>
            </g>
            <g id="Group" opacity="0.4" transform="translate(22.262252, 22.378808)" fill="#64FFDA" fill-rule="nonzero">
                <rect id="Rectangle" x="0.0489536424" y="0.00582781457" width="1.79496689" height="8.50860927"></rect>
            </g>
            <g id="Group" opacity="0.3" transform="translate(25.758940, 22.378808)" fill="#64FFDA" fill-rule="nonzero">
                <rect id="Rectangle" x="0.0967417219" y="0.00582781457" width="1.79496689" height="8.50860927"></rect>
            </g>
            <circle id="Oval" fill="#FE5E00" fill-rule="nonzero" cx="40.554596" cy="26.5853245" r="4.33123179"></circle>
            <rect id="Rectangle" fill="#FFFFFF" fill-rule="nonzero" x="0.791417219" y="1.19470199" width="46.3206358" height="16.6046093"></rect>
            <rect id="Rectangle" fill="#64FFDA" fill-rule="nonzero" x="4.59348344" y="5.13430464" width="1.79496689" height="8.50860927"></rect>
            <g id="Group" opacity="0.7" transform="translate(8.042384, 5.128477)" fill="#64FFDA" fill-rule="nonzero">
                <rect id="Rectangle" x="0.094410596" y="0.00582781457" width="1.79496689" height="8.50860927"></rect>
            </g>
            <g id="Group" opacity="0.6" transform="translate(11.655629, 5.128477)" fill="#64FFDA" fill-rule="nonzero">
                <rect id="Rectangle" x="0.0256423841" y="0.00582781457" width="1.79496689" height="8.50860927"></rect>
            </g>
            <g id="Group" opacity="0.5" transform="translate(15.152318, 5.128477)" fill="#64FFDA" fill-rule="nonzero">
                <rect id="Rectangle" x="0.0722649007" y="0.00582781457" width="1.79496689" height="8.50860927"></rect>
            </g>
            <g id="Group" opacity="0.5" transform="translate(18.765563, 5.128477)" fill="#64FFDA" fill-rule="nonzero">
                <rect id="Rectangle" x="0.00233112583" y="0.00582781457" width="1.79496689" height="8.50860927"></rect>
            </g>
            <g id="Group" opacity="0.4" transform="translate(22.262252, 5.128477)" fill="#64FFDA" fill-rule="nonzero">
                <rect id="Rectangle" x="0.0489536424" y="0.00582781457" width="1.79496689" height="8.50860927"></rect>
            </g>
            <g id="Group" opacity="0.3" transform="translate(25.758940, 5.128477)" fill="#64FFDA" fill-rule="nonzero">
                <rect id="Rectangle" x="0.0967417219" y="0.00582781457" width="1.79496689" height="8.50860927"></rect>
            </g>
            <circle id="Oval" fill="url(#linearGradient-2)" fill-rule="nonzero" cx="40.554596" cy="9.33382781" r="4.66924503"></circle>
            <circle id="Oval" fill="url(#linearGradient-2)" fill-rule="nonzero" cx="40.669245" cy="26.669245" r="4.66924503"></circle>
            <circle id="Oval" fill="url(#linearGradient-2)" fill-rule="nonzero" cx="40.669245" cy="44.669245" r="4.66924503"></circle>
            <circle id="Oval" fill="#FE5E00" fill-rule="nonzero" cx="40.554596" cy="9.33382781" r="4.33123179"></circle>
            <g id="Group" opacity="0.7" transform="translate(53.732450, 18.415894)" stroke="#FE5E00" stroke-linecap="round" stroke-linejoin="round" stroke-width="4">
                <line x1="0" y1="0.0780927152" x2="0.699337748" y2="0.0780927152" id="Path"></line>
                <line x1="4.58998675" y1="0.0780927152" x2="24.0467285" y2="0.0780927152" id="Path" stroke-dasharray="12.52"></line>
                <polyline id="Path" points="25.992053 0.0780927152 26.6913907 0.0780927152 26.6913907 0.777430464"></polyline>
                <line x1="26.6913907" y1="4.48508609" x2="26.6913907" y2="17.9228609" id="Path" stroke-dasharray="11.93"></line>
                <line x1="26.6913907" y1="19.776106" x2="26.6913907" y2="20.4754437" id="Path"></line>
            </g>
            <g id="Group" opacity="0.7" transform="translate(16.084768, 56.296689)" stroke="#FE5E00" stroke-linecap="round" stroke-linejoin="round" stroke-width="4">
                <line x1="26.7589934" y1="14.997298" x2="26.0596556" y2="14.9938013" id="Path"></line>
                <line x1="22.1690066" y1="14.9751523" x2="2.71343046" y2="14.8819073" id="Path" stroke-dasharray="12.52"></line>
                <polyline id="Path" points="0.766940397 14.8737483 0.067602649 14.8702517 0.0722649007 14.1709139"></polyline>
                <line x1="0.0955761589" y1="10.5821457" x2="0.149192053" y2="2.50829139" id="Path" stroke-dasharray="11.55"></line>
                <line x1="0.160847682" y1="0.713324503" x2="0.165509934" y2="0.013986755" id="Path"></line>
            </g>
            <path d="M84.0615629,73.4840795 C84.0615629,73.4840795 85.4509139,82.8645298 93.650649,85.9917351 L60.432106,85.9917351 C68.6318411,82.8645298 70.0211921,73.4840795 70.0211921,73.4840795 L84.0615629,73.4840795 Z" id="Path" fill="#E0E0E0" fill-rule="nonzero"></path>
            <rect id="Rectangle" fill="url(#linearGradient-3)" fill-rule="nonzero" x="60.2700927" y="85.9917351" width="33.5274172" height="1.98145695"></rect>
            <rect id="Rectangle" fill="#F5F5F5" fill-rule="nonzero" x="60.4367682" y="85.9917351" width="33.2138808" height="1.52921854"></rect>
            <path d="M104.113907,40.1396556 L50.2066225,40.1396556 C49.5146207,40.1396556 48.9536424,40.7006339 48.9536424,41.3926358 L48.9536424,75.3559735 C48.9536424,76.1838008 49.624729,76.8548874 50.4525563,76.8548874 L103.867974,76.8548874 C104.26551,76.8548874 104.646765,76.6969666 104.927866,76.4158657 C105.208967,76.1347648 105.366887,75.7535102 105.366887,75.3559735 L105.366887,41.3926358 C105.366887,40.7006339 104.805909,40.1396556 104.113907,40.1396556 Z" id="Path" fill="url(#linearGradient-4)" fill-rule="nonzero"></path>
            <path d="M50.8849801,40.6525033 L103.202437,40.6525033 C103.894439,40.6525033 104.455417,41.2134816 104.455417,41.9054834 L104.455417,70.9827815 L49.6319995,70.9827815 L49.6319995,41.906649 C49.6319995,41.5741361 49.7635642,41.2551362 49.998577,41.0199047 C50.2335899,40.7846732 50.5524671,40.6525033 50.8849801,40.6525033 L50.8849801,40.6525033 Z" id="Path" fill="#FFFFFF" fill-rule="nonzero"></path>
            <path d="M102.956503,75.9853775 L51.1309139,75.9853775 C50.3030866,75.9853775 49.632,75.3142909 49.632,74.4864636 L49.632,70.9827815 L104.455417,70.9827815 L104.455417,74.4864636 C104.455417,75.3142909 103.784331,75.9853775 102.956503,75.9853775 L102.956503,75.9853775 Z" id="Path" fill="#F5F5F5" fill-rule="nonzero"></path>
            <rect id="Rectangle" fill="#FE5E00" fill-rule="nonzero" x="52.3419338" y="43.1095099" width="49.6121854" height="24.4838146"></rect>
            <polygon id="Path" fill="#FFFFFF" fill-rule="nonzero" opacity="0.2" points="54.3047417 44.7343046 101.985589 44.7343046 101.985589 43.101351 52.373404 43.101351 52.373404 67.5851656 54.3047417 67.5851656"></polygon>
        </g>
    </g>
</svg>