<?xml version="1.0" encoding="UTF-8" standalone="no"?>
<!DOCTYPE svg PUBLIC "-//W3C//DTD SVG 1.1//EN"
 "http://www.w3.org/Graphics/SVG/1.1/DTD/svg11.dtd">
<!-- Generated by graphviz version 2.47.0 (20210316.0004)
 -->
<!-- Title: dependencies Pages: 1 -->
<svg width="1522pt" height="370pt"
 viewBox="0.00 0.00 1522.00 370.11" xmlns="http://www.w3.org/2000/svg" xmlns:xlink="http://www.w3.org/1999/xlink">
<g id="graph0" class="graph" transform="scale(1 1) rotate(0) translate(4 366.11)">
<title>dependencies</title>
<polygon fill="white" stroke="transparent" points="-4,4 -4,-366.11 1518,-366.11 1518,4 -4,4"/>
<text text-anchor="start" x="736.01" y="-42.4" font-family="Times-12" font-weight="bold" font-size="14.00">Legend</text>
<polygon fill="#ffffb3" stroke="transparent" points="523,-10 523,-30 543,-30 543,-10 523,-10"/>
<text text-anchor="start" x="546.63" y="-15.4" font-family="Times-12" font-size="14.00"> &#160;Declarations</text>
<polygon fill="#8dd3c7" stroke="transparent" points="636,-10 636,-30 656,-30 656,-10 636,-10"/>
<text text-anchor="start" x="659.73" y="-15.4" font-family="Times-12" font-size="14.00"> &#160;Module</text>
<polygon fill="#80b1d3" stroke="transparent" points="722,-10 722,-30 742,-30 742,-10 722,-10"/>
<text text-anchor="start" x="745.78" y="-15.4" font-family="Times-12" font-size="14.00"> &#160;Bootstrap</text>
<polygon fill="#fdb462" stroke="transparent" points="819,-10 819,-30 839,-30 839,-10 819,-10"/>
<text text-anchor="start" x="842.67" y="-15.4" font-family="Times-12" font-size="14.00"> &#160;Providers</text>
<polygon fill="#fb8072" stroke="transparent" points="915,-10 915,-30 935,-30 935,-10 915,-10"/>
<text text-anchor="start" x="938.73" y="-15.4" font-family="Times-12" font-size="14.00"> &#160;Exports</text>
<g id="clust1" class="cluster">
<title>cluster_BasicsModule</title>
<polygon fill="none" stroke="black" stroke-dasharray="1,5" points="8,-70 8,-354.11 1506,-354.11 1506,-70 8,-70"/>
</g>
<g id="clust4" class="cluster">
<title>cluster_BasicsModule_imports</title>
<polygon fill="none" stroke="black" points="1340,-237.11 1340,-289.11 1498,-289.11 1498,-237.11 1340,-237.11"/>
</g>
<g id="clust3" class="cluster">
<title>cluster_BasicsModule_BasicsComponent_providers</title>
<polygon fill="none" stroke="black" points="16,-78 16,-289.11 1332,-289.11 1332,-78 16,-78"/>
</g>
<!-- BasicsComponent -->
<g id="node1" class="node">
<title>BasicsComponent</title>
<polygon fill="#ffffb3" stroke="black" points="1049.88,-281.11 932.12,-281.11 932.12,-245.11 1049.88,-245.11 1049.88,-281.11"/>
<text text-anchor="middle" x="991" y="-258.91" font-family="Times,serif" font-size="14.00">BasicsComponent</text>
</g>
<!-- BasicsModule -->
<g id="node2" class="node">
<title>BasicsModule</title>
<polygon fill="#8dd3c7" stroke="black" points="1253.1,-346.11 1250.1,-350.11 1229.1,-350.11 1226.1,-346.11 1156.9,-346.11 1156.9,-310.11 1253.1,-310.11 1253.1,-346.11"/>
<text text-anchor="middle" x="1205" y="-323.91" font-family="Times,serif" font-size="14.00">BasicsModule</text>
</g>
<!-- BasicsComponent&#45;&gt;BasicsModule -->
<g id="edge1" class="edge">
<title>BasicsComponent&#45;&gt;BasicsModule</title>
<path fill="none" stroke="black" d="M1050.13,-269.11C1108.47,-269.11 1188.98,-269.11 1188.98,-269.11 1188.98,-269.11 1188.98,-300.09 1188.98,-300.09"/>
<polygon fill="black" stroke="black" points="1185.48,-300.09 1188.98,-310.09 1192.48,-300.09 1185.48,-300.09"/>
</g>
<!-- {
 &#160;&#160;&#160;provide: DateAdapter, useClass: MomentDateAdapter, deps: [
 &#160;&#160;&#160;&#160;&#160;&#160;&#160;MAT_DATE_LOCALE, MAT_MOMENT_DATE_ADAPTER_OPTIONS
 &#160;&#160;&#160;]
} -->
<g id="node3" class="node">
<title>{
 &#160;&#160;&#160;provide: DateAdapter, useClass: MomentDateAdapter, deps: [
 &#160;&#160;&#160;&#160;&#160;&#160;&#160;MAT_DATE_LOCALE, MAT_MOMENT_DATE_ADAPTER_OPTIONS
 &#160;&#160;&#160;]
}</title>
<ellipse fill="#fdb462" stroke="black" cx="991" cy="-151.05" rx="332.96" ry="65.11"/>
<text text-anchor="middle" x="991" y="-180.45" font-family="Times,serif" font-size="14.00">{</text>
<text text-anchor="middle" x="991" y="-163.65" font-family="Times,serif" font-size="14.00"> &#160;&#160;&#160;provide: DateAdapter, useClass: MomentDateAdapter, deps: [</text>
<text text-anchor="middle" x="991" y="-146.85" font-family="Times,serif" font-size="14.00"> &#160;&#160;&#160;&#160;&#160;&#160;&#160;MAT_DATE_LOCALE, MAT_MOMENT_DATE_ADAPTER_OPTIONS</text>
<text text-anchor="middle" x="991" y="-130.05" font-family="Times,serif" font-size="14.00"> &#160;&#160;&#160;]</text>
<text text-anchor="middle" x="991" y="-113.25" font-family="Times,serif" font-size="14.00">}</text>
</g>
<!-- {
 &#160;&#160;&#160;provide: DateAdapter, useClass: MomentDateAdapter, deps: [
 &#160;&#160;&#160;&#160;&#160;&#160;&#160;MAT_DATE_LOCALE, MAT_MOMENT_DATE_ADAPTER_OPTIONS
 &#160;&#160;&#160;]
}&#45;&gt;BasicsComponent -->
<g id="edge2" class="edge">
<title>{
 &#160;&#160;&#160;provide: DateAdapter, useClass: MomentDateAdapter, deps: [
 &#160;&#160;&#160;&#160;&#160;&#160;&#160;MAT_DATE_LOCALE, MAT_MOMENT_DATE_ADAPTER_OPTIONS
 &#160;&#160;&#160;]
}&#45;&gt;BasicsComponent</title>
<path fill="none" stroke="black" d="M991,-216.24C991,-216.24 991,-235.1 991,-235.1"/>
<polygon fill="black" stroke="black" points="987.5,-235.1 991,-245.1 994.5,-235.1 987.5,-235.1"/>
</g>
<!-- {
 &#160;&#160;&#160;provide: MAT_DATE_FORMATS, useValue: MY_DATE_FORMATS
} -->
<g id="node4" class="node">
<title>{
 &#160;&#160;&#160;provide: MAT_DATE_FORMATS, useValue: MY_DATE_FORMATS
}</title>
<ellipse fill="#fdb462" stroke="black" cx="332" cy="-151.05" rx="307.89" ry="41.09"/>
<text text-anchor="middle" x="332" y="-163.65" font-family="Times,serif" font-size="14.00">{</text>
<text text-anchor="middle" x="332" y="-146.85" font-family="Times,serif" font-size="14.00"> &#160;&#160;&#160;provide: MAT_DATE_FORMATS, useValue: MY_DATE_FORMATS</text>
<text text-anchor="middle" x="332" y="-130.05" font-family="Times,serif" font-size="14.00">}</text>
</g>
<!-- {
 &#160;&#160;&#160;provide: MAT_DATE_FORMATS, useValue: MY_DATE_FORMATS
}&#45;&gt;BasicsComponent -->
<g id="edge3" class="edge">
<title>{
 &#160;&#160;&#160;provide: MAT_DATE_FORMATS, useValue: MY_DATE_FORMATS
}&#45;&gt;BasicsComponent</title>
<path fill="none" stroke="black" d="M332,-192.46C332,-224.38 332,-263.11 332,-263.11 332,-263.11 921.94,-263.11 921.94,-263.11"/>
<polygon fill="black" stroke="black" points="921.94,-266.61 931.94,-263.11 921.94,-259.61 921.94,-266.61"/>
</g>
<!-- BasicsRoutingModule -->
<g id="node5" class="node">
<title>BasicsRoutingModule</title>
<polygon fill="#8dd3c7" stroke="black" points="1489.71,-281.11 1486.71,-285.11 1465.71,-285.11 1462.71,-281.11 1348.29,-281.11 1348.29,-245.11 1489.71,-245.11 1489.71,-281.11"/>
<text text-anchor="middle" x="1419" y="-258.91" font-family="Times,serif" font-size="14.00">BasicsRoutingModule</text>
</g>
<!-- BasicsRoutingModule&#45;&gt;BasicsModule -->
<g id="edge4" class="edge">
<title>BasicsRoutingModule&#45;&gt;BasicsModule</title>
<path fill="none" stroke="black" d="M1348.36,-257.11C1291.5,-257.11 1221.02,-257.11 1221.02,-257.11 1221.02,-257.11 1221.02,-299.82 1221.02,-299.82"/>
<polygon fill="black" stroke="black" points="1217.52,-299.82 1221.02,-309.82 1224.52,-299.82 1217.52,-299.82"/>
</g>
</g>
</svg>
