<?xml version="1.0" encoding="UTF-8" standalone="no"?>
<!DOCTYPE svg PUBLIC "-//W3C//DTD SVG 1.1//EN"
 "http://www.w3.org/Graphics/SVG/1.1/DTD/svg11.dtd">
<!-- Generated by graphviz version 2.47.0 (20210316.0004)
 -->
<!-- Title: dependencies Pages: 1 -->
<svg width="646pt" height="211pt"
 viewBox="0.00 0.00 646.00 211.00" xmlns="http://www.w3.org/2000/svg" xmlns:xlink="http://www.w3.org/1999/xlink">
<g id="graph0" class="graph" transform="scale(1 1) rotate(0) translate(4 207)">
<title>dependencies</title>
<polygon fill="white" stroke="transparent" points="-4,4 -4,-207 642,-207 642,4 -4,4"/>
<text text-anchor="start" x="298.01" y="-42.4" font-family="Times-12" font-weight="bold" font-size="14.00">Legend</text>
<polygon fill="#ffffb3" stroke="transparent" points="85,-10 85,-30 105,-30 105,-10 85,-10"/>
<text text-anchor="start" x="108.63" y="-15.4" font-family="Times-12" font-size="14.00"> &#160;Declarations</text>
<polygon fill="#8dd3c7" stroke="transparent" points="198,-10 198,-30 218,-30 218,-10 198,-10"/>
<text text-anchor="start" x="221.73" y="-15.4" font-family="Times-12" font-size="14.00"> &#160;Module</text>
<polygon fill="#80b1d3" stroke="transparent" points="284,-10 284,-30 304,-30 304,-10 284,-10"/>
<text text-anchor="start" x="307.78" y="-15.4" font-family="Times-12" font-size="14.00"> &#160;Bootstrap</text>
<polygon fill="#fdb462" stroke="transparent" points="381,-10 381,-30 401,-30 401,-10 381,-10"/>
<text text-anchor="start" x="404.67" y="-15.4" font-family="Times-12" font-size="14.00"> &#160;Providers</text>
<polygon fill="#fb8072" stroke="transparent" points="477,-10 477,-30 497,-30 497,-10 477,-10"/>
<text text-anchor="start" x="500.73" y="-15.4" font-family="Times-12" font-size="14.00"> &#160;Exports</text>
<g id="clust1" class="cluster">
<title>cluster_HomeModule</title>
<polygon fill="none" stroke="black" stroke-dasharray="1,5" points="8,-70 8,-195 630,-195 630,-70 8,-70"/>
</g>
<g id="clust2" class="cluster">
<title>cluster_HomeModule_declarations</title>
<polygon fill="none" stroke="black" points="490,-78 490,-130 622,-130 622,-78 490,-78"/>
</g>
<g id="clust4" class="cluster">
<title>cluster_HomeModule_imports</title>
<polygon fill="none" stroke="black" points="16,-78 16,-130 482,-130 482,-78 16,-78"/>
</g>
<!-- HomeComponent -->
<g id="node1" class="node">
<title>HomeComponent</title>
<polygon fill="#ffffb3" stroke="black" points="613.55,-122 498.45,-122 498.45,-86 613.55,-86 613.55,-122"/>
<text text-anchor="middle" x="556" y="-99.8" font-family="Times,serif" font-size="14.00">HomeComponent</text>
</g>
<!-- HomeModule -->
<g id="node2" class="node">
<title>HomeModule</title>
<polygon fill="#8dd3c7" stroke="black" points="382.76,-187 379.76,-191 358.76,-191 355.76,-187 289.24,-187 289.24,-151 382.76,-151 382.76,-187"/>
<text text-anchor="middle" x="336" y="-164.8" font-family="Times,serif" font-size="14.00">HomeModule</text>
</g>
<!-- HomeComponent&#45;&gt;HomeModule -->
<g id="edge1" class="edge">
<title>HomeComponent&#45;&gt;HomeModule</title>
<path fill="none" stroke="black" d="M556,-122.11C556,-141.34 556,-169 556,-169 556,-169 392.93,-169 392.93,-169"/>
<polygon fill="black" stroke="black" points="392.93,-165.5 382.93,-169 392.93,-172.5 392.93,-165.5"/>
</g>
<!-- HomeCardModule -->
<g id="node3" class="node">
<title>HomeCardModule</title>
<polygon fill="#8dd3c7" stroke="black" points="474.47,-122 471.47,-126 450.47,-126 447.47,-122 353.53,-122 353.53,-86 474.47,-86 474.47,-122"/>
<text text-anchor="middle" x="414" y="-99.8" font-family="Times,serif" font-size="14.00">HomeCardModule</text>
</g>
<!-- HomeCardModule&#45;&gt;HomeModule -->
<g id="edge2" class="edge">
<title>HomeCardModule&#45;&gt;HomeModule</title>
<path fill="none" stroke="black" d="M368.2,-122.11C368.2,-122.11 368.2,-140.99 368.2,-140.99"/>
<polygon fill="black" stroke="black" points="364.7,-140.99 368.2,-150.99 371.7,-140.99 364.7,-140.99"/>
</g>
<!-- HomeIllustrationModule -->
<g id="node4" class="node">
<title>HomeIllustrationModule</title>
<polygon fill="#8dd3c7" stroke="black" points="335.7,-122 332.7,-126 311.7,-126 308.7,-122 180.3,-122 180.3,-86 335.7,-86 335.7,-122"/>
<text text-anchor="middle" x="258" y="-99.8" font-family="Times,serif" font-size="14.00">HomeIllustrationModule</text>
</g>
<!-- HomeIllustrationModule&#45;&gt;HomeModule -->
<g id="edge3" class="edge">
<title>HomeIllustrationModule&#45;&gt;HomeModule</title>
<path fill="none" stroke="black" d="M312.36,-122.11C312.36,-122.11 312.36,-140.99 312.36,-140.99"/>
<polygon fill="black" stroke="black" points="308.86,-140.99 312.36,-150.99 315.86,-140.99 308.86,-140.99"/>
</g>
<!-- HomeRoutingModule -->
<g id="node5" class="node">
<title>HomeRoutingModule</title>
<polygon fill="#8dd3c7" stroke="black" points="162.38,-122 159.38,-126 138.38,-126 135.38,-122 23.62,-122 23.62,-86 162.38,-86 162.38,-122"/>
<text text-anchor="middle" x="93" y="-99.8" font-family="Times,serif" font-size="14.00">HomeRoutingModule</text>
</g>
<!-- HomeRoutingModule&#45;&gt;HomeModule -->
<g id="edge4" class="edge">
<title>HomeRoutingModule&#45;&gt;HomeModule</title>
<path fill="none" stroke="black" d="M93,-122.11C93,-141.34 93,-169 93,-169 93,-169 279.15,-169 279.15,-169"/>
<polygon fill="black" stroke="black" points="279.15,-172.5 289.15,-169 279.15,-165.5 279.15,-172.5"/>
</g>
</g>
</svg>
