<?xml version="1.0" encoding="UTF-8" standalone="no"?>
<!DOCTYPE svg PUBLIC "-//W3C//DTD SVG 1.1//EN"
 "http://www.w3.org/Graphics/SVG/1.1/DTD/svg11.dtd">
<!-- Generated by graphviz version 2.47.0 (20210316.0004)
 -->
<!-- Title: dependencies Pages: 1 -->
<svg width="1087pt" height="284pt"
 viewBox="0.00 0.00 1087.00 284.00" xmlns="http://www.w3.org/2000/svg" xmlns:xlink="http://www.w3.org/1999/xlink">
<g id="graph0" class="graph" transform="scale(1 1) rotate(0) translate(4 280)">
<title>dependencies</title>
<polygon fill="white" stroke="transparent" points="-4,4 -4,-280 1083,-280 1083,4 -4,4"/>
<text text-anchor="start" x="518.51" y="-42.4" font-family="Times-12" font-weight="bold" font-size="14.00">Legend</text>
<polygon fill="#ffffb3" stroke="transparent" points="305.5,-10 305.5,-30 325.5,-30 325.5,-10 305.5,-10"/>
<text text-anchor="start" x="329.13" y="-15.4" font-family="Times-12" font-size="14.00"> &#160;Declarations</text>
<polygon fill="#8dd3c7" stroke="transparent" points="418.5,-10 418.5,-30 438.5,-30 438.5,-10 418.5,-10"/>
<text text-anchor="start" x="442.23" y="-15.4" font-family="Times-12" font-size="14.00"> &#160;Module</text>
<polygon fill="#80b1d3" stroke="transparent" points="504.5,-10 504.5,-30 524.5,-30 524.5,-10 504.5,-10"/>
<text text-anchor="start" x="528.28" y="-15.4" font-family="Times-12" font-size="14.00"> &#160;Bootstrap</text>
<polygon fill="#fdb462" stroke="transparent" points="601.5,-10 601.5,-30 621.5,-30 621.5,-10 601.5,-10"/>
<text text-anchor="start" x="625.17" y="-15.4" font-family="Times-12" font-size="14.00"> &#160;Providers</text>
<polygon fill="#fb8072" stroke="transparent" points="697.5,-10 697.5,-30 717.5,-30 717.5,-10 697.5,-10"/>
<text text-anchor="start" x="721.23" y="-15.4" font-family="Times-12" font-size="14.00"> &#160;Exports</text>
<g id="clust1" class="cluster">
<title>cluster_AppModule</title>
<polygon fill="none" stroke="black" stroke-dasharray="1,5" points="8,-70 8,-268 1071,-268 1071,-70 8,-70"/>
</g>
<g id="clust6" class="cluster">
<title>cluster_AppModule_bootstrap</title>
<polygon fill="none" stroke="black" points="440,-208 440,-260 564,-260 564,-208 440,-208"/>
</g>
<g id="clust7" class="cluster">
<title>cluster_AppModule_providers</title>
<polygon fill="none" stroke="black" points="845,-78 845,-130 1063,-130 1063,-78 845,-78"/>
</g>
<g id="clust4" class="cluster">
<title>cluster_AppModule_imports</title>
<polygon fill="none" stroke="black" points="146,-78 146,-130 837,-130 837,-78 146,-78"/>
</g>
<g id="clust2" class="cluster">
<title>cluster_AppModule_declarations</title>
<polygon fill="none" stroke="black" points="16,-78 16,-130 138,-130 138,-78 16,-78"/>
</g>
<!-- AppComponent -->
<g id="node1" class="node">
<title>AppComponent</title>
<polygon fill="#ffffb3" stroke="black" points="129.94,-122 24.06,-122 24.06,-86 129.94,-86 129.94,-122"/>
<text text-anchor="middle" x="77" y="-99.8" font-family="Times,serif" font-size="14.00">AppComponent</text>
</g>
<!-- AppModule -->
<g id="node2" class="node">
<title>AppModule</title>
<polygon fill="#8dd3c7" stroke="black" points="543.66,-187 540.66,-191 519.66,-191 516.66,-187 460.34,-187 460.34,-151 543.66,-151 543.66,-187"/>
<text text-anchor="middle" x="502" y="-164.8" font-family="Times,serif" font-size="14.00">AppModule</text>
</g>
<!-- AppComponent&#45;&gt;AppModule -->
<g id="edge1" class="edge">
<title>AppComponent&#45;&gt;AppModule</title>
<path fill="none" stroke="black" d="M77,-122.29C77,-144.21 77,-178 77,-178 77,-178 450.09,-178 450.09,-178"/>
<polygon fill="black" stroke="black" points="450.09,-181.5 460.09,-178 450.09,-174.5 450.09,-181.5"/>
</g>
<!-- AppComponent  -->
<g id="node8" class="node">
<title>AppComponent </title>
<polygon fill="#80b1d3" stroke="black" points="556.44,-252 447.56,-252 447.56,-216 556.44,-216 556.44,-252"/>
<text text-anchor="middle" x="502" y="-229.8" font-family="Times,serif" font-size="14.00">AppComponent </text>
</g>
<!-- AppModule&#45;&gt;AppComponent  -->
<g id="edge7" class="edge">
<title>AppModule&#45;&gt;AppComponent </title>
<path fill="none" stroke="black" stroke-dasharray="1,5" d="M502,-187.11C502,-187.11 502,-205.99 502,-205.99"/>
<polygon fill="black" stroke="black" points="498.5,-205.99 502,-215.99 505.5,-205.99 498.5,-205.99"/>
</g>
<!-- AppRoutingModule -->
<g id="node3" class="node">
<title>AppRoutingModule</title>
<polygon fill="#8dd3c7" stroke="black" points="829.27,-122 826.27,-126 805.27,-126 802.27,-122 700.73,-122 700.73,-86 829.27,-86 829.27,-122"/>
<text text-anchor="middle" x="765" y="-99.8" font-family="Times,serif" font-size="14.00">AppRoutingModule</text>
</g>
<!-- AppRoutingModule&#45;&gt;AppModule -->
<g id="edge2" class="edge">
<title>AppRoutingModule&#45;&gt;AppModule</title>
<path fill="none" stroke="black" d="M765,-122.11C765,-141.34 765,-169 765,-169 765,-169 553.67,-169 553.67,-169"/>
<polygon fill="black" stroke="black" points="553.67,-165.5 543.67,-169 553.67,-172.5 553.67,-165.5"/>
</g>
<!-- HeaderModule -->
<g id="node4" class="node">
<title>HeaderModule</title>
<polygon fill="#8dd3c7" stroke="black" points="682.96,-122 679.96,-126 658.96,-126 655.96,-122 583.04,-122 583.04,-86 682.96,-86 682.96,-122"/>
<text text-anchor="middle" x="633" y="-99.8" font-family="Times,serif" font-size="14.00">HeaderModule</text>
</g>
<!-- HeaderModule&#45;&gt;AppModule -->
<g id="edge3" class="edge">
<title>HeaderModule&#45;&gt;AppModule</title>
<path fill="none" stroke="black" d="M633,-122.03C633,-138.4 633,-160 633,-160 633,-160 553.81,-160 553.81,-160"/>
<polygon fill="black" stroke="black" points="553.81,-156.5 543.81,-160 553.81,-163.5 553.81,-156.5"/>
</g>
<!-- LoadingBarModule -->
<g id="node5" class="node">
<title>LoadingBarModule</title>
<polygon fill="#8dd3c7" stroke="black" points="565.42,-122 562.42,-126 541.42,-126 538.42,-122 438.58,-122 438.58,-86 565.42,-86 565.42,-122"/>
<text text-anchor="middle" x="502" y="-99.8" font-family="Times,serif" font-size="14.00">LoadingBarModule</text>
</g>
<!-- LoadingBarModule&#45;&gt;AppModule -->
<g id="edge4" class="edge">
<title>LoadingBarModule&#45;&gt;AppModule</title>
<path fill="none" stroke="black" d="M502,-122.11C502,-122.11 502,-140.99 502,-140.99"/>
<polygon fill="black" stroke="black" points="498.5,-140.99 502,-150.99 505.5,-140.99 498.5,-140.99"/>
</g>
<!-- LoginModule -->
<g id="node6" class="node">
<title>LoginModule</title>
<polygon fill="#8dd3c7" stroke="black" points="420.49,-122 417.49,-126 396.49,-126 393.49,-122 327.51,-122 327.51,-86 420.49,-86 420.49,-122"/>
<text text-anchor="middle" x="374" y="-99.8" font-family="Times,serif" font-size="14.00">LoginModule</text>
</g>
<!-- LoginModule&#45;&gt;AppModule -->
<g id="edge5" class="edge">
<title>LoginModule&#45;&gt;AppModule</title>
<path fill="none" stroke="black" d="M374,-122.03C374,-138.4 374,-160 374,-160 374,-160 450.09,-160 450.09,-160"/>
<polygon fill="black" stroke="black" points="450.09,-163.5 460.09,-160 450.09,-156.5 450.09,-163.5"/>
</g>
<!-- RefreshSnackbarModule -->
<g id="node7" class="node">
<title>RefreshSnackbarModule</title>
<polygon fill="#8dd3c7" stroke="black" points="309.67,-122 306.67,-126 285.67,-126 282.67,-122 154.33,-122 154.33,-86 309.67,-86 309.67,-122"/>
<text text-anchor="middle" x="232" y="-99.8" font-family="Times,serif" font-size="14.00">RefreshSnackbarModule</text>
</g>
<!-- RefreshSnackbarModule&#45;&gt;AppModule -->
<g id="edge6" class="edge">
<title>RefreshSnackbarModule&#45;&gt;AppModule</title>
<path fill="none" stroke="black" d="M232,-122.11C232,-141.34 232,-169 232,-169 232,-169 450.11,-169 450.11,-169"/>
<polygon fill="black" stroke="black" points="450.11,-172.5 460.11,-169 450.11,-165.5 450.11,-172.5"/>
</g>
<!-- CustomHttpInterceptor -->
<g id="node9" class="node">
<title>CustomHttpInterceptor</title>
<ellipse fill="#fdb462" stroke="black" cx="954" cy="-104" rx="100.72" ry="18"/>
<text text-anchor="middle" x="954" y="-99.8" font-family="Times,serif" font-size="14.00">CustomHttpInterceptor</text>
</g>
<!-- CustomHttpInterceptor&#45;&gt;AppModule -->
<g id="edge8" class="edge">
<title>CustomHttpInterceptor&#45;&gt;AppModule</title>
<path fill="none" stroke="black" d="M954,-122.29C954,-144.21 954,-178 954,-178 954,-178 553.71,-178 553.71,-178"/>
<polygon fill="black" stroke="black" points="553.71,-174.5 543.71,-178 553.71,-181.5 553.71,-174.5"/>
</g>
</g>
</svg>
