<?xml version="1.0" encoding="UTF-8" standalone="no"?>
<!DOCTYPE svg PUBLIC "-//W3C//DTD SVG 1.1//EN"
 "http://www.w3.org/Graphics/SVG/1.1/DTD/svg11.dtd">
<!-- Generated by graphviz version 2.47.0 (20210316.0004)
 -->
<!-- Title: dependencies Pages: 1 -->
<svg width="979pt" height="211pt"
 viewBox="0.00 0.00 979.00 211.00" xmlns="http://www.w3.org/2000/svg" xmlns:xlink="http://www.w3.org/1999/xlink">
<g id="graph0" class="graph" transform="scale(1 1) rotate(0) translate(4 207)">
<title>dependencies</title>
<polygon fill="white" stroke="transparent" points="-4,4 -4,-207 975,-207 975,4 -4,4"/>
<text text-anchor="start" x="464.51" y="-42.4" font-family="Times-12" font-weight="bold" font-size="14.00">Legend</text>
<polygon fill="#ffffb3" stroke="transparent" points="251.5,-10 251.5,-30 271.5,-30 271.5,-10 251.5,-10"/>
<text text-anchor="start" x="275.13" y="-15.4" font-family="Times-12" font-size="14.00"> &#160;Declarations</text>
<polygon fill="#8dd3c7" stroke="transparent" points="364.5,-10 364.5,-30 384.5,-30 384.5,-10 364.5,-10"/>
<text text-anchor="start" x="388.23" y="-15.4" font-family="Times-12" font-size="14.00"> &#160;Module</text>
<polygon fill="#80b1d3" stroke="transparent" points="450.5,-10 450.5,-30 470.5,-30 470.5,-10 450.5,-10"/>
<text text-anchor="start" x="474.28" y="-15.4" font-family="Times-12" font-size="14.00"> &#160;Bootstrap</text>
<polygon fill="#fdb462" stroke="transparent" points="547.5,-10 547.5,-30 567.5,-30 567.5,-10 547.5,-10"/>
<text text-anchor="start" x="571.17" y="-15.4" font-family="Times-12" font-size="14.00"> &#160;Providers</text>
<polygon fill="#fb8072" stroke="transparent" points="643.5,-10 643.5,-30 663.5,-30 663.5,-10 643.5,-10"/>
<text text-anchor="start" x="667.23" y="-15.4" font-family="Times-12" font-size="14.00"> &#160;Exports</text>
<g id="clust1" class="cluster">
<title>cluster_ProjectsModule</title>
<polygon fill="none" stroke="black" stroke-dasharray="1,5" points="8,-70 8,-195 963,-195 963,-70 8,-70"/>
</g>
<g id="clust4" class="cluster">
<title>cluster_ProjectsModule_imports</title>
<polygon fill="none" stroke="black" points="166,-78 166,-130 955,-130 955,-78 166,-78"/>
</g>
<g id="clust2" class="cluster">
<title>cluster_ProjectsModule_declarations</title>
<polygon fill="none" stroke="black" points="16,-78 16,-130 158,-130 158,-78 16,-78"/>
</g>
<!-- ProjectsComponent -->
<g id="node1" class="node">
<title>ProjectsComponent</title>
<polygon fill="#ffffb3" stroke="black" points="150.43,-122 23.57,-122 23.57,-86 150.43,-86 150.43,-122"/>
<text text-anchor="middle" x="87" y="-99.8" font-family="Times,serif" font-size="14.00">ProjectsComponent</text>
</g>
<!-- ProjectsModule -->
<g id="node2" class="node">
<title>ProjectsModule</title>
<polygon fill="#8dd3c7" stroke="black" points="506.15,-187 503.15,-191 482.15,-191 479.15,-187 401.85,-187 401.85,-151 506.15,-151 506.15,-187"/>
<text text-anchor="middle" x="454" y="-164.8" font-family="Times,serif" font-size="14.00">ProjectsModule</text>
</g>
<!-- ProjectsComponent&#45;&gt;ProjectsModule -->
<g id="edge1" class="edge">
<title>ProjectsComponent&#45;&gt;ProjectsModule</title>
<path fill="none" stroke="black" d="M87,-122.28C87,-143.32 87,-175 87,-175 87,-175 391.81,-175 391.81,-175"/>
<polygon fill="black" stroke="black" points="391.81,-178.5 401.81,-175 391.81,-171.5 391.81,-178.5"/>
</g>
<!-- ActionProjectModalModule -->
<g id="node3" class="node">
<title>ActionProjectModalModule</title>
<polygon fill="#8dd3c7" stroke="black" points="946.86,-122 943.86,-126 922.86,-126 919.86,-122 773.14,-122 773.14,-86 946.86,-86 946.86,-122"/>
<text text-anchor="middle" x="860" y="-99.8" font-family="Times,serif" font-size="14.00">ActionProjectModalModule</text>
</g>
<!-- ActionProjectModalModule&#45;&gt;ProjectsModule -->
<g id="edge2" class="edge">
<title>ActionProjectModalModule&#45;&gt;ProjectsModule</title>
<path fill="none" stroke="black" d="M860,-122.28C860,-143.32 860,-175 860,-175 860,-175 516.25,-175 516.25,-175"/>
<polygon fill="black" stroke="black" points="516.25,-171.5 506.25,-175 516.25,-178.5 516.25,-171.5"/>
</g>
<!-- InformationsPanelModule -->
<g id="node4" class="node">
<title>InformationsPanelModule</title>
<polygon fill="#8dd3c7" stroke="black" points="755.47,-122 752.47,-126 731.47,-126 728.47,-122 592.53,-122 592.53,-86 755.47,-86 755.47,-122"/>
<text text-anchor="middle" x="674" y="-99.8" font-family="Times,serif" font-size="14.00">InformationsPanelModule</text>
</g>
<!-- InformationsPanelModule&#45;&gt;ProjectsModule -->
<g id="edge3" class="edge">
<title>InformationsPanelModule&#45;&gt;ProjectsModule</title>
<path fill="none" stroke="black" d="M674,-122.02C674,-139.37 674,-163 674,-163 674,-163 516.42,-163 516.42,-163"/>
<polygon fill="black" stroke="black" points="516.42,-159.5 506.42,-163 516.42,-166.5 516.42,-159.5"/>
</g>
<!-- ProjectModule -->
<g id="node5" class="node">
<title>ProjectModule</title>
<polygon fill="#8dd3c7" stroke="black" points="574.7,-122 571.7,-126 550.7,-126 547.7,-122 475.3,-122 475.3,-86 574.7,-86 574.7,-122"/>
<text text-anchor="middle" x="525" y="-99.8" font-family="Times,serif" font-size="14.00">ProjectModule</text>
</g>
<!-- ProjectModule&#45;&gt;ProjectsModule -->
<g id="edge4" class="edge">
<title>ProjectModule&#45;&gt;ProjectsModule</title>
<path fill="none" stroke="black" d="M490.86,-122.11C490.86,-122.11 490.86,-140.99 490.86,-140.99"/>
<polygon fill="black" stroke="black" points="487.36,-140.99 490.86,-150.99 494.36,-140.99 487.36,-140.99"/>
</g>
<!-- ProjectsRoutingModule -->
<g id="node6" class="node">
<title>ProjectsRoutingModule</title>
<polygon fill="#8dd3c7" stroke="black" points="457.77,-122 454.77,-126 433.77,-126 430.77,-122 308.23,-122 308.23,-86 457.77,-86 457.77,-122"/>
<text text-anchor="middle" x="383" y="-99.8" font-family="Times,serif" font-size="14.00">ProjectsRoutingModule</text>
</g>
<!-- ProjectsRoutingModule&#45;&gt;ProjectsModule -->
<g id="edge5" class="edge">
<title>ProjectsRoutingModule&#45;&gt;ProjectsModule</title>
<path fill="none" stroke="black" d="M429.78,-122.11C429.78,-122.11 429.78,-140.99 429.78,-140.99"/>
<polygon fill="black" stroke="black" points="426.28,-140.99 429.78,-150.99 433.28,-140.99 426.28,-140.99"/>
</g>
<!-- SearchbarModule -->
<g id="node7" class="node">
<title>SearchbarModule</title>
<polygon fill="#8dd3c7" stroke="black" points="289.51,-122 286.51,-126 265.51,-126 262.51,-122 174.49,-122 174.49,-86 289.51,-86 289.51,-122"/>
<text text-anchor="middle" x="232" y="-99.8" font-family="Times,serif" font-size="14.00">SearchbarModule</text>
</g>
<!-- SearchbarModule&#45;&gt;ProjectsModule -->
<g id="edge6" class="edge">
<title>SearchbarModule&#45;&gt;ProjectsModule</title>
<path fill="none" stroke="black" d="M232,-122.02C232,-139.37 232,-163 232,-163 232,-163 391.67,-163 391.67,-163"/>
<polygon fill="black" stroke="black" points="391.67,-166.5 401.67,-163 391.67,-159.5 391.67,-166.5"/>
</g>
</g>
</svg>
