<?xml version="1.0" encoding="UTF-8" standalone="no"?>
<!DOCTYPE svg PUBLIC "-//W3C//DTD SVG 1.1//EN"
 "http://www.w3.org/Graphics/SVG/1.1/DTD/svg11.dtd">
<!-- Generated by graphviz version 2.47.0 (20210316.0004)
 -->
<!-- Title: dependencies Pages: 1 -->
<svg width="952pt" height="211pt"
 viewBox="0.00 0.00 952.00 211.00" xmlns="http://www.w3.org/2000/svg" xmlns:xlink="http://www.w3.org/1999/xlink">
<g id="graph0" class="graph" transform="scale(1 1) rotate(0) translate(4 207)">
<title>dependencies</title>
<polygon fill="white" stroke="transparent" points="-4,4 -4,-207 948,-207 948,4 -4,4"/>
<text text-anchor="start" x="451.01" y="-42.4" font-family="Times-12" font-weight="bold" font-size="14.00">Legend</text>
<polygon fill="#ffffb3" stroke="transparent" points="238,-10 238,-30 258,-30 258,-10 238,-10"/>
<text text-anchor="start" x="261.63" y="-15.4" font-family="Times-12" font-size="14.00"> &#160;Declarations</text>
<polygon fill="#8dd3c7" stroke="transparent" points="351,-10 351,-30 371,-30 371,-10 351,-10"/>
<text text-anchor="start" x="374.73" y="-15.4" font-family="Times-12" font-size="14.00"> &#160;Module</text>
<polygon fill="#80b1d3" stroke="transparent" points="437,-10 437,-30 457,-30 457,-10 437,-10"/>
<text text-anchor="start" x="460.78" y="-15.4" font-family="Times-12" font-size="14.00"> &#160;Bootstrap</text>
<polygon fill="#fdb462" stroke="transparent" points="534,-10 534,-30 554,-30 554,-10 534,-10"/>
<text text-anchor="start" x="557.67" y="-15.4" font-family="Times-12" font-size="14.00"> &#160;Providers</text>
<polygon fill="#fb8072" stroke="transparent" points="630,-10 630,-30 650,-30 650,-10 630,-10"/>
<text text-anchor="start" x="653.73" y="-15.4" font-family="Times-12" font-size="14.00"> &#160;Exports</text>
<g id="clust1" class="cluster">
<title>cluster_DataSourcesModule</title>
<polygon fill="none" stroke="black" stroke-dasharray="1,5" points="8,-70 8,-195 936,-195 936,-70 8,-70"/>
</g>
<g id="clust2" class="cluster">
<title>cluster_DataSourcesModule_declarations</title>
<polygon fill="none" stroke="black" points="760,-78 760,-130 928,-130 928,-78 760,-78"/>
</g>
<g id="clust4" class="cluster">
<title>cluster_DataSourcesModule_imports</title>
<polygon fill="none" stroke="black" points="16,-78 16,-130 752,-130 752,-78 16,-78"/>
</g>
<!-- DataSourcesComponent -->
<g id="node1" class="node">
<title>DataSourcesComponent</title>
<polygon fill="#ffffb3" stroke="black" points="920.08,-122 767.92,-122 767.92,-86 920.08,-86 920.08,-122"/>
<text text-anchor="middle" x="844" y="-99.8" font-family="Times,serif" font-size="14.00">DataSourcesComponent</text>
</g>
<!-- DataSourcesModule -->
<g id="node2" class="node">
<title>DataSourcesModule</title>
<polygon fill="#8dd3c7" stroke="black" points="567.29,-187 564.29,-191 543.29,-191 540.29,-187 436.71,-187 436.71,-151 567.29,-151 567.29,-187"/>
<text text-anchor="middle" x="502" y="-164.8" font-family="Times,serif" font-size="14.00">DataSourcesModule</text>
</g>
<!-- DataSourcesComponent&#45;&gt;DataSourcesModule -->
<g id="edge1" class="edge">
<title>DataSourcesComponent&#45;&gt;DataSourcesModule</title>
<path fill="none" stroke="black" d="M844,-122.28C844,-143.32 844,-175 844,-175 844,-175 577.54,-175 577.54,-175"/>
<polygon fill="black" stroke="black" points="577.54,-171.5 567.54,-175 577.54,-178.5 577.54,-171.5"/>
</g>
<!-- DataSourceEditModule -->
<g id="node3" class="node">
<title>DataSourceEditModule</title>
<polygon fill="#8dd3c7" stroke="black" points="744.18,-122 741.18,-126 720.18,-126 717.18,-122 595.82,-122 595.82,-86 744.18,-86 744.18,-122"/>
<text text-anchor="middle" x="670" y="-99.8" font-family="Times,serif" font-size="14.00">DataSourceEditModule</text>
</g>
<!-- DataSourceEditModule&#45;&gt;DataSourcesModule -->
<g id="edge2" class="edge">
<title>DataSourceEditModule&#45;&gt;DataSourcesModule</title>
<path fill="none" stroke="black" d="M670,-122.02C670,-139.37 670,-163 670,-163 670,-163 577.43,-163 577.43,-163"/>
<polygon fill="black" stroke="black" points="577.43,-159.5 567.43,-163 577.43,-166.5 577.43,-159.5"/>
</g>
<!-- DataSourcesListModule -->
<g id="node4" class="node">
<title>DataSourcesListModule</title>
<polygon fill="#8dd3c7" stroke="black" points="578.07,-122 575.07,-126 554.07,-126 551.07,-122 425.93,-122 425.93,-86 578.07,-86 578.07,-122"/>
<text text-anchor="middle" x="502" y="-99.8" font-family="Times,serif" font-size="14.00">DataSourcesListModule</text>
</g>
<!-- DataSourcesListModule&#45;&gt;DataSourcesModule -->
<g id="edge3" class="edge">
<title>DataSourcesListModule&#45;&gt;DataSourcesModule</title>
<path fill="none" stroke="black" d="M502,-122.11C502,-122.11 502,-140.99 502,-140.99"/>
<polygon fill="black" stroke="black" points="498.5,-140.99 502,-150.99 505.5,-140.99 498.5,-140.99"/>
</g>
<!-- DataSourcesRoutingModule -->
<g id="node5" class="node">
<title>DataSourcesRoutingModule</title>
<polygon fill="#8dd3c7" stroke="black" points="407.91,-122 404.91,-126 383.91,-126 380.91,-122 232.09,-122 232.09,-86 407.91,-86 407.91,-122"/>
<text text-anchor="middle" x="320" y="-99.8" font-family="Times,serif" font-size="14.00">DataSourcesRoutingModule</text>
</g>
<!-- DataSourcesRoutingModule&#45;&gt;DataSourcesModule -->
<g id="edge4" class="edge">
<title>DataSourcesRoutingModule&#45;&gt;DataSourcesModule</title>
<path fill="none" stroke="black" d="M320,-122.02C320,-139.37 320,-163 320,-163 320,-163 426.81,-163 426.81,-163"/>
<polygon fill="black" stroke="black" points="426.81,-166.5 436.81,-163 426.81,-159.5 426.81,-166.5"/>
</g>
<!-- ExistingPartitionModalModule -->
<g id="node6" class="node">
<title>ExistingPartitionModalModule</title>
<polygon fill="#8dd3c7" stroke="black" points="214.49,-122 211.49,-126 190.49,-126 187.49,-122 23.51,-122 23.51,-86 214.49,-86 214.49,-122"/>
<text text-anchor="middle" x="119" y="-99.8" font-family="Times,serif" font-size="14.00">ExistingPartitionModalModule</text>
</g>
<!-- ExistingPartitionModalModule&#45;&gt;DataSourcesModule -->
<g id="edge5" class="edge">
<title>ExistingPartitionModalModule&#45;&gt;DataSourcesModule</title>
<path fill="none" stroke="black" d="M119,-122.28C119,-143.32 119,-175 119,-175 119,-175 426.6,-175 426.6,-175"/>
<polygon fill="black" stroke="black" points="426.6,-178.5 436.6,-175 426.6,-171.5 426.6,-178.5"/>
</g>
</g>
</svg>
