<?xml version="1.0" encoding="UTF-8" standalone="no"?>
<!DOCTYPE svg PUBLIC "-//W3C//DTD SVG 1.1//EN"
 "http://www.w3.org/Graphics/SVG/1.1/DTD/svg11.dtd">
<!-- Generated by graphviz version 2.47.0 (20210316.0004)
 -->
<!-- Title: dependencies Pages: 1 -->
<svg width="676pt" height="284pt"
 viewBox="0.00 0.00 676.00 284.00" xmlns="http://www.w3.org/2000/svg" xmlns:xlink="http://www.w3.org/1999/xlink">
<g id="graph0" class="graph" transform="scale(1 1) rotate(0) translate(4 280)">
<title>dependencies</title>
<polygon fill="white" stroke="transparent" points="-4,4 -4,-280 672,-280 672,4 -4,4"/>
<text text-anchor="start" x="313.01" y="-42.4" font-family="Times-12" font-weight="bold" font-size="14.00">Legend</text>
<polygon fill="#ffffb3" stroke="transparent" points="100,-10 100,-30 120,-30 120,-10 100,-10"/>
<text text-anchor="start" x="123.63" y="-15.4" font-family="Times-12" font-size="14.00"> &#160;Declarations</text>
<polygon fill="#8dd3c7" stroke="transparent" points="213,-10 213,-30 233,-30 233,-10 213,-10"/>
<text text-anchor="start" x="236.73" y="-15.4" font-family="Times-12" font-size="14.00"> &#160;Module</text>
<polygon fill="#80b1d3" stroke="transparent" points="299,-10 299,-30 319,-30 319,-10 299,-10"/>
<text text-anchor="start" x="322.78" y="-15.4" font-family="Times-12" font-size="14.00"> &#160;Bootstrap</text>
<polygon fill="#fdb462" stroke="transparent" points="396,-10 396,-30 416,-30 416,-10 396,-10"/>
<text text-anchor="start" x="419.67" y="-15.4" font-family="Times-12" font-size="14.00"> &#160;Providers</text>
<polygon fill="#fb8072" stroke="transparent" points="492,-10 492,-30 512,-30 512,-10 492,-10"/>
<text text-anchor="start" x="515.73" y="-15.4" font-family="Times-12" font-size="14.00"> &#160;Exports</text>
<g id="clust1" class="cluster">
<title>cluster_OutputEditModule</title>
<polygon fill="none" stroke="black" stroke-dasharray="1,5" points="8,-70 8,-268 660,-268 660,-70 8,-70"/>
</g>
<g id="clust2" class="cluster">
<title>cluster_OutputEditModule_declarations</title>
<polygon fill="none" stroke="black" points="492,-78 492,-130 652,-130 652,-78 492,-78"/>
</g>
<g id="clust5" class="cluster">
<title>cluster_OutputEditModule_exports</title>
<polygon fill="none" stroke="black" points="253,-208 253,-260 417,-260 417,-208 253,-208"/>
</g>
<g id="clust4" class="cluster">
<title>cluster_OutputEditModule_imports</title>
<polygon fill="none" stroke="black" points="16,-78 16,-130 484,-130 484,-78 16,-78"/>
</g>
<!-- OutputEditComponent -->
<g id="node1" class="node">
<title>OutputEditComponent</title>
<polygon fill="#ffffb3" stroke="black" points="643.55,-122 500.45,-122 500.45,-86 643.55,-86 643.55,-122"/>
<text text-anchor="middle" x="572" y="-99.8" font-family="Times,serif" font-size="14.00">OutputEditComponent</text>
</g>
<!-- OutputEditModule -->
<g id="node2" class="node">
<title>OutputEditModule</title>
<polygon fill="#8dd3c7" stroke="black" points="395.77,-187 392.77,-191 371.77,-191 368.77,-187 274.23,-187 274.23,-151 395.77,-151 395.77,-187"/>
<text text-anchor="middle" x="335" y="-164.8" font-family="Times,serif" font-size="14.00">OutputEditModule</text>
</g>
<!-- OutputEditComponent&#45;&gt;OutputEditModule -->
<g id="edge1" class="edge">
<title>OutputEditComponent&#45;&gt;OutputEditModule</title>
<path fill="none" stroke="black" d="M572,-122.11C572,-141.34 572,-169 572,-169 572,-169 406.03,-169 406.03,-169"/>
<polygon fill="black" stroke="black" points="406.03,-165.5 396.03,-169 406.03,-172.5 406.03,-165.5"/>
</g>
<!-- OutputEditComponent  -->
<g id="node6" class="node">
<title>OutputEditComponent </title>
<polygon fill="#fb8072" stroke="black" points="408.55,-252 261.45,-252 261.45,-216 408.55,-216 408.55,-252"/>
<text text-anchor="middle" x="335" y="-229.8" font-family="Times,serif" font-size="14.00">OutputEditComponent </text>
</g>
<!-- OutputEditModule&#45;&gt;OutputEditComponent  -->
<g id="edge5" class="edge">
<title>OutputEditModule&#45;&gt;OutputEditComponent </title>
<path fill="none" stroke="black" stroke-dasharray="5,2" d="M335,-187.11C335,-187.11 335,-205.99 335,-205.99"/>
<polygon fill="black" stroke="black" points="331.5,-205.99 335,-215.99 338.5,-205.99 331.5,-205.99"/>
</g>
<!-- ActivityEditModule -->
<g id="node3" class="node">
<title>ActivityEditModule</title>
<polygon fill="#8dd3c7" stroke="black" points="476.27,-122 473.27,-126 452.27,-126 449.27,-122 347.73,-122 347.73,-86 476.27,-86 476.27,-122"/>
<text text-anchor="middle" x="412" y="-99.8" font-family="Times,serif" font-size="14.00">ActivityEditModule</text>
</g>
<!-- ActivityEditModule&#45;&gt;OutputEditModule -->
<g id="edge2" class="edge">
<title>ActivityEditModule&#45;&gt;OutputEditModule</title>
<path fill="none" stroke="black" d="M371.75,-122.11C371.75,-122.11 371.75,-140.99 371.75,-140.99"/>
<polygon fill="black" stroke="black" points="368.25,-140.99 371.75,-150.99 375.25,-140.99 368.25,-140.99"/>
</g>
<!-- ExtraIndicatorModule -->
<g id="node4" class="node">
<title>ExtraIndicatorModule</title>
<polygon fill="#8dd3c7" stroke="black" points="329.4,-122 326.4,-126 305.4,-126 302.4,-122 188.6,-122 188.6,-86 329.4,-86 329.4,-122"/>
<text text-anchor="middle" x="259" y="-99.8" font-family="Times,serif" font-size="14.00">ExtraIndicatorModule</text>
</g>
<!-- ExtraIndicatorModule&#45;&gt;OutputEditModule -->
<g id="edge3" class="edge">
<title>ExtraIndicatorModule&#45;&gt;OutputEditModule</title>
<path fill="none" stroke="black" d="M301.66,-122.11C301.66,-122.11 301.66,-140.99 301.66,-140.99"/>
<polygon fill="black" stroke="black" points="298.16,-140.99 301.66,-150.99 305.16,-140.99 298.16,-140.99"/>
</g>
<!-- IndicatorModalModule -->
<g id="node5" class="node">
<title>IndicatorModalModule</title>
<polygon fill="#8dd3c7" stroke="black" points="170.13,-122 167.13,-126 146.13,-126 143.13,-122 23.87,-122 23.87,-86 170.13,-86 170.13,-122"/>
<text text-anchor="middle" x="97" y="-99.8" font-family="Times,serif" font-size="14.00">IndicatorModalModule</text>
</g>
<!-- IndicatorModalModule&#45;&gt;OutputEditModule -->
<g id="edge4" class="edge">
<title>IndicatorModalModule&#45;&gt;OutputEditModule</title>
<path fill="none" stroke="black" d="M97,-122.11C97,-141.34 97,-169 97,-169 97,-169 264.02,-169 264.02,-169"/>
<polygon fill="black" stroke="black" points="264.02,-172.5 274.02,-169 264.02,-165.5 264.02,-172.5"/>
</g>
</g>
</svg>
