<?xml version="1.0" encoding="UTF-8" standalone="no"?>
<!DOCTYPE svg PUBLIC "-//W3C//DTD SVG 1.1//EN"
 "http://www.w3.org/Graphics/SVG/1.1/DTD/svg11.dtd">
<!-- Generated by graphviz version 2.47.0 (20210316.0004)
 -->
<!-- Title: dependencies Pages: 1 -->
<svg width="504pt" height="211pt"
 viewBox="0.00 0.00 504.00 211.00" xmlns="http://www.w3.org/2000/svg" xmlns:xlink="http://www.w3.org/1999/xlink">
<g id="graph0" class="graph" transform="scale(1 1) rotate(0) translate(4 207)">
<title>dependencies</title>
<polygon fill="white" stroke="transparent" points="-4,4 -4,-207 500,-207 500,4 -4,4"/>
<text text-anchor="start" x="227.01" y="-42.4" font-family="Times-12" font-weight="bold" font-size="14.00">Legend</text>
<polygon fill="#ffffb3" stroke="transparent" points="14,-10 14,-30 34,-30 34,-10 14,-10"/>
<text text-anchor="start" x="37.63" y="-15.4" font-family="Times-12" font-size="14.00"> &#160;Declarations</text>
<polygon fill="#8dd3c7" stroke="transparent" points="127,-10 127,-30 147,-30 147,-10 127,-10"/>
<text text-anchor="start" x="150.73" y="-15.4" font-family="Times-12" font-size="14.00"> &#160;Module</text>
<polygon fill="#80b1d3" stroke="transparent" points="213,-10 213,-30 233,-30 233,-10 213,-10"/>
<text text-anchor="start" x="236.78" y="-15.4" font-family="Times-12" font-size="14.00"> &#160;Bootstrap</text>
<polygon fill="#fdb462" stroke="transparent" points="310,-10 310,-30 330,-30 330,-10 310,-10"/>
<text text-anchor="start" x="333.67" y="-15.4" font-family="Times-12" font-size="14.00"> &#160;Providers</text>
<polygon fill="#fb8072" stroke="transparent" points="406,-10 406,-30 426,-30 426,-10 406,-10"/>
<text text-anchor="start" x="429.73" y="-15.4" font-family="Times-12" font-size="14.00"> &#160;Exports</text>
<g id="clust1" class="cluster">
<title>cluster_ThematicsModule</title>
<polygon fill="none" stroke="black" stroke-dasharray="1,5" points="10.5,-70 10.5,-195 485.5,-195 485.5,-70 10.5,-70"/>
</g>
<g id="clust4" class="cluster">
<title>cluster_ThematicsModule_imports</title>
<polygon fill="none" stroke="black" points="182.5,-78 182.5,-130 477.5,-130 477.5,-78 182.5,-78"/>
</g>
<g id="clust2" class="cluster">
<title>cluster_ThematicsModule_declarations</title>
<polygon fill="none" stroke="black" points="18.5,-78 18.5,-130 174.5,-130 174.5,-78 18.5,-78"/>
</g>
<!-- ThematicsComponent -->
<g id="node1" class="node">
<title>ThematicsComponent</title>
<polygon fill="#ffffb3" stroke="black" points="166.15,-122 26.85,-122 26.85,-86 166.15,-86 166.15,-122"/>
<text text-anchor="middle" x="96.5" y="-99.8" font-family="Times,serif" font-size="14.00">ThematicsComponent</text>
</g>
<!-- ThematicsModule -->
<g id="node2" class="node">
<title>ThematicsModule</title>
<polygon fill="#8dd3c7" stroke="black" points="298.36,-187 295.36,-191 274.36,-191 271.36,-187 180.64,-187 180.64,-151 298.36,-151 298.36,-187"/>
<text text-anchor="middle" x="239.5" y="-164.8" font-family="Times,serif" font-size="14.00">ThematicsModule</text>
</g>
<!-- ThematicsComponent&#45;&gt;ThematicsModule -->
<g id="edge1" class="edge">
<title>ThematicsComponent&#45;&gt;ThematicsModule</title>
<path fill="none" stroke="black" d="M166.57,-104C177.59,-104 185.43,-104 185.43,-104 185.43,-104 185.43,-140.89 185.43,-140.89"/>
<polygon fill="black" stroke="black" points="181.93,-140.89 185.43,-150.89 188.93,-140.89 181.93,-140.89"/>
</g>
<!-- ThematicsRoutingModule -->
<g id="node3" class="node">
<title>ThematicsRoutingModule</title>
<polygon fill="#8dd3c7" stroke="black" points="469.98,-122 466.98,-126 445.98,-126 442.98,-122 307.02,-122 307.02,-86 469.98,-86 469.98,-122"/>
<text text-anchor="middle" x="388.5" y="-99.8" font-family="Times,serif" font-size="14.00">ThematicsRoutingModule</text>
</g>
<!-- ThematicsRoutingModule&#45;&gt;ThematicsModule -->
<g id="edge2" class="edge">
<title>ThematicsRoutingModule&#45;&gt;ThematicsModule</title>
<path fill="none" stroke="black" d="M306.77,-104C298.79,-104 293.57,-104 293.57,-104 293.57,-104 293.57,-140.89 293.57,-140.89"/>
<polygon fill="black" stroke="black" points="290.07,-140.89 293.57,-150.89 297.07,-140.89 290.07,-140.89"/>
</g>
<!-- ThemeModule -->
<g id="node4" class="node">
<title>ThemeModule</title>
<polygon fill="#8dd3c7" stroke="black" points="288.92,-122 285.92,-126 264.92,-126 261.92,-122 190.08,-122 190.08,-86 288.92,-86 288.92,-122"/>
<text text-anchor="middle" x="239.5" y="-99.8" font-family="Times,serif" font-size="14.00">ThemeModule</text>
</g>
<!-- ThemeModule&#45;&gt;ThematicsModule -->
<g id="edge3" class="edge">
<title>ThemeModule&#45;&gt;ThematicsModule</title>
<path fill="none" stroke="black" d="M239.5,-122.11C239.5,-122.11 239.5,-140.99 239.5,-140.99"/>
<polygon fill="black" stroke="black" points="236,-140.99 239.5,-150.99 243,-140.99 236,-140.99"/>
</g>
</g>
</svg>
