<?xml version="1.0" encoding="UTF-8" standalone="no"?>
<!DOCTYPE svg PUBLIC "-//W3C//DTD SVG 1.1//EN"
 "http://www.w3.org/Graphics/SVG/1.1/DTD/svg11.dtd">
<!-- Generated by graphviz version 2.47.0 (20210316.0004)
 -->
<!-- Title: dependencies Pages: 1 -->
<svg width="597pt" height="211pt"
 viewBox="0.00 0.00 597.00 211.00" xmlns="http://www.w3.org/2000/svg" xmlns:xlink="http://www.w3.org/1999/xlink">
<g id="graph0" class="graph" transform="scale(1 1) rotate(0) translate(4 207)">
<title>dependencies</title>
<polygon fill="white" stroke="transparent" points="-4,4 -4,-207 593,-207 593,4 -4,4"/>
<text text-anchor="start" x="273.51" y="-42.4" font-family="Times-12" font-weight="bold" font-size="14.00">Legend</text>
<polygon fill="#ffffb3" stroke="transparent" points="60.5,-10 60.5,-30 80.5,-30 80.5,-10 60.5,-10"/>
<text text-anchor="start" x="84.13" y="-15.4" font-family="Times-12" font-size="14.00"> &#160;Declarations</text>
<polygon fill="#8dd3c7" stroke="transparent" points="173.5,-10 173.5,-30 193.5,-30 193.5,-10 173.5,-10"/>
<text text-anchor="start" x="197.23" y="-15.4" font-family="Times-12" font-size="14.00"> &#160;Module</text>
<polygon fill="#80b1d3" stroke="transparent" points="259.5,-10 259.5,-30 279.5,-30 279.5,-10 259.5,-10"/>
<text text-anchor="start" x="283.28" y="-15.4" font-family="Times-12" font-size="14.00"> &#160;Bootstrap</text>
<polygon fill="#fdb462" stroke="transparent" points="356.5,-10 356.5,-30 376.5,-30 376.5,-10 356.5,-10"/>
<text text-anchor="start" x="380.17" y="-15.4" font-family="Times-12" font-size="14.00"> &#160;Providers</text>
<polygon fill="#fb8072" stroke="transparent" points="452.5,-10 452.5,-30 472.5,-30 472.5,-10 452.5,-10"/>
<text text-anchor="start" x="476.23" y="-15.4" font-family="Times-12" font-size="14.00"> &#160;Exports</text>
<g id="clust1" class="cluster">
<title>cluster_ExtraIndicatorsModule</title>
<polygon fill="none" stroke="black" stroke-dasharray="1,5" points="8,-70 8,-195 581,-195 581,-70 8,-70"/>
</g>
<g id="clust2" class="cluster">
<title>cluster_ExtraIndicatorsModule_declarations</title>
<polygon fill="none" stroke="black" points="389,-78 389,-130 573,-130 573,-78 389,-78"/>
</g>
<g id="clust4" class="cluster">
<title>cluster_ExtraIndicatorsModule_imports</title>
<polygon fill="none" stroke="black" points="16,-78 16,-130 381,-130 381,-78 16,-78"/>
</g>
<!-- ExtraIndicatorsComponent -->
<g id="node1" class="node">
<title>ExtraIndicatorsComponent</title>
<polygon fill="#ffffb3" stroke="black" points="564.63,-122 397.37,-122 397.37,-86 564.63,-86 564.63,-122"/>
<text text-anchor="middle" x="481" y="-99.8" font-family="Times,serif" font-size="14.00">ExtraIndicatorsComponent</text>
</g>
<!-- ExtraIndicatorsModule -->
<g id="node2" class="node">
<title>ExtraIndicatorsModule</title>
<polygon fill="#8dd3c7" stroke="black" points="375.84,-187 372.84,-191 351.84,-191 348.84,-187 230.16,-187 230.16,-151 375.84,-151 375.84,-187"/>
<text text-anchor="middle" x="303" y="-164.8" font-family="Times,serif" font-size="14.00">ExtraIndicatorsModule</text>
</g>
<!-- ExtraIndicatorsComponent&#45;&gt;ExtraIndicatorsModule -->
<g id="edge1" class="edge">
<title>ExtraIndicatorsComponent&#45;&gt;ExtraIndicatorsModule</title>
<path fill="none" stroke="black" d="M481,-122.11C481,-141.34 481,-169 481,-169 481,-169 385.91,-169 385.91,-169"/>
<polygon fill="black" stroke="black" points="385.91,-165.5 375.91,-169 385.91,-172.5 385.91,-165.5"/>
</g>
<!-- ExtraIndicatorModule -->
<g id="node3" class="node">
<title>ExtraIndicatorModule</title>
<polygon fill="#8dd3c7" stroke="black" points="373.4,-122 370.4,-126 349.4,-126 346.4,-122 232.6,-122 232.6,-86 373.4,-86 373.4,-122"/>
<text text-anchor="middle" x="303" y="-99.8" font-family="Times,serif" font-size="14.00">ExtraIndicatorModule</text>
</g>
<!-- ExtraIndicatorModule&#45;&gt;ExtraIndicatorsModule -->
<g id="edge2" class="edge">
<title>ExtraIndicatorModule&#45;&gt;ExtraIndicatorsModule</title>
<path fill="none" stroke="black" d="M303,-122.11C303,-122.11 303,-140.99 303,-140.99"/>
<polygon fill="black" stroke="black" points="299.5,-140.99 303,-150.99 306.5,-140.99 299.5,-140.99"/>
</g>
<!-- ExtraIndicatorsRoutingModule -->
<g id="node4" class="node">
<title>ExtraIndicatorsRoutingModule</title>
<polygon fill="#8dd3c7" stroke="black" points="214.46,-122 211.46,-126 190.46,-126 187.46,-122 23.54,-122 23.54,-86 214.46,-86 214.46,-122"/>
<text text-anchor="middle" x="119" y="-99.8" font-family="Times,serif" font-size="14.00">ExtraIndicatorsRoutingModule</text>
</g>
<!-- ExtraIndicatorsRoutingModule&#45;&gt;ExtraIndicatorsModule -->
<g id="edge3" class="edge">
<title>ExtraIndicatorsRoutingModule&#45;&gt;ExtraIndicatorsModule</title>
<path fill="none" stroke="black" d="M119,-122.11C119,-141.34 119,-169 119,-169 119,-169 220.01,-169 220.01,-169"/>
<polygon fill="black" stroke="black" points="220.01,-172.5 230.01,-169 220.01,-165.5 220.01,-172.5"/>
</g>
</g>
</svg>
