<?xml version="1.0" encoding="UTF-8" standalone="no"?>
<!DOCTYPE svg PUBLIC "-//W3C//DTD SVG 1.1//EN"
 "http://www.w3.org/Graphics/SVG/1.1/DTD/svg11.dtd">
<!-- Generated by graphviz version 2.47.0 (20210316.0004)
 -->
<!-- Title: dependencies Pages: 1 -->
<svg width="675pt" height="284pt"
 viewBox="0.00 0.00 675.00 284.00" xmlns="http://www.w3.org/2000/svg" xmlns:xlink="http://www.w3.org/1999/xlink">
<g id="graph0" class="graph" transform="scale(1 1) rotate(0) translate(4 280)">
<title>dependencies</title>
<polygon fill="white" stroke="transparent" points="-4,4 -4,-280 671,-280 671,4 -4,4"/>
<text text-anchor="start" x="312.51" y="-42.4" font-family="Times-12" font-weight="bold" font-size="14.00">Legend</text>
<polygon fill="#ffffb3" stroke="transparent" points="99.5,-10 99.5,-30 119.5,-30 119.5,-10 99.5,-10"/>
<text text-anchor="start" x="123.13" y="-15.4" font-family="Times-12" font-size="14.00"> &#160;Declarations</text>
<polygon fill="#8dd3c7" stroke="transparent" points="212.5,-10 212.5,-30 232.5,-30 232.5,-10 212.5,-10"/>
<text text-anchor="start" x="236.23" y="-15.4" font-family="Times-12" font-size="14.00"> &#160;Module</text>
<polygon fill="#80b1d3" stroke="transparent" points="298.5,-10 298.5,-30 318.5,-30 318.5,-10 298.5,-10"/>
<text text-anchor="start" x="322.28" y="-15.4" font-family="Times-12" font-size="14.00"> &#160;Bootstrap</text>
<polygon fill="#fdb462" stroke="transparent" points="395.5,-10 395.5,-30 415.5,-30 415.5,-10 395.5,-10"/>
<text text-anchor="start" x="419.17" y="-15.4" font-family="Times-12" font-size="14.00"> &#160;Providers</text>
<polygon fill="#fb8072" stroke="transparent" points="491.5,-10 491.5,-30 511.5,-30 511.5,-10 491.5,-10"/>
<text text-anchor="start" x="515.23" y="-15.4" font-family="Times-12" font-size="14.00"> &#160;Exports</text>
<g id="clust1" class="cluster">
<title>cluster_PurposeEditModule</title>
<polygon fill="none" stroke="black" stroke-dasharray="1,5" points="8,-70 8,-268 659,-268 659,-70 8,-70"/>
</g>
<g id="clust4" class="cluster">
<title>cluster_PurposeEditModule_imports</title>
<polygon fill="none" stroke="black" points="190,-78 190,-130 651,-130 651,-78 190,-78"/>
</g>
<g id="clust5" class="cluster">
<title>cluster_PurposeEditModule_exports</title>
<polygon fill="none" stroke="black" points="250,-208 250,-260 420,-260 420,-208 250,-208"/>
</g>
<g id="clust2" class="cluster">
<title>cluster_PurposeEditModule_declarations</title>
<polygon fill="none" stroke="black" points="16,-78 16,-130 182,-130 182,-78 16,-78"/>
</g>
<!-- PurposeEditComponent -->
<g id="node1" class="node">
<title>PurposeEditComponent</title>
<polygon fill="#ffffb3" stroke="black" points="173.77,-122 24.23,-122 24.23,-86 173.77,-86 173.77,-122"/>
<text text-anchor="middle" x="99" y="-99.8" font-family="Times,serif" font-size="14.00">PurposeEditComponent</text>
</g>
<!-- PurposeEditModule -->
<g id="node2" class="node">
<title>PurposeEditModule</title>
<polygon fill="#8dd3c7" stroke="black" points="398.99,-187 395.99,-191 374.99,-191 371.99,-187 271.01,-187 271.01,-151 398.99,-151 398.99,-187"/>
<text text-anchor="middle" x="335" y="-164.8" font-family="Times,serif" font-size="14.00">PurposeEditModule</text>
</g>
<!-- PurposeEditComponent&#45;&gt;PurposeEditModule -->
<g id="edge1" class="edge">
<title>PurposeEditComponent&#45;&gt;PurposeEditModule</title>
<path fill="none" stroke="black" d="M99,-122.11C99,-141.34 99,-169 99,-169 99,-169 260.82,-169 260.82,-169"/>
<polygon fill="black" stroke="black" points="260.82,-172.5 270.82,-169 260.82,-165.5 260.82,-172.5"/>
</g>
<!-- PurposeEditComponent  -->
<g id="node6" class="node">
<title>PurposeEditComponent </title>
<polygon fill="#fb8072" stroke="black" points="411.77,-252 258.23,-252 258.23,-216 411.77,-216 411.77,-252"/>
<text text-anchor="middle" x="335" y="-229.8" font-family="Times,serif" font-size="14.00">PurposeEditComponent </text>
</g>
<!-- PurposeEditModule&#45;&gt;PurposeEditComponent  -->
<g id="edge5" class="edge">
<title>PurposeEditModule&#45;&gt;PurposeEditComponent </title>
<path fill="none" stroke="black" stroke-dasharray="5,2" d="M335,-187.11C335,-187.11 335,-205.99 335,-205.99"/>
<polygon fill="black" stroke="black" points="331.5,-205.99 335,-215.99 338.5,-205.99 331.5,-205.99"/>
</g>
<!-- ExtraIndicatorModule -->
<g id="node3" class="node">
<title>ExtraIndicatorModule</title>
<polygon fill="#8dd3c7" stroke="black" points="643.4,-122 640.4,-126 619.4,-126 616.4,-122 502.6,-122 502.6,-86 643.4,-86 643.4,-122"/>
<text text-anchor="middle" x="573" y="-99.8" font-family="Times,serif" font-size="14.00">ExtraIndicatorModule</text>
</g>
<!-- ExtraIndicatorModule&#45;&gt;PurposeEditModule -->
<g id="edge2" class="edge">
<title>ExtraIndicatorModule&#45;&gt;PurposeEditModule</title>
<path fill="none" stroke="black" d="M573,-122.11C573,-141.34 573,-169 573,-169 573,-169 409.09,-169 409.09,-169"/>
<polygon fill="black" stroke="black" points="409.09,-165.5 399.09,-169 409.09,-172.5 409.09,-165.5"/>
</g>
<!-- IndicatorModalModule -->
<g id="node4" class="node">
<title>IndicatorModalModule</title>
<polygon fill="#8dd3c7" stroke="black" points="484.13,-122 481.13,-126 460.13,-126 457.13,-122 337.87,-122 337.87,-86 484.13,-86 484.13,-122"/>
<text text-anchor="middle" x="411" y="-99.8" font-family="Times,serif" font-size="14.00">IndicatorModalModule</text>
</g>
<!-- IndicatorModalModule&#45;&gt;PurposeEditModule -->
<g id="edge3" class="edge">
<title>IndicatorModalModule&#45;&gt;PurposeEditModule</title>
<path fill="none" stroke="black" d="M368.34,-122.11C368.34,-122.11 368.34,-140.99 368.34,-140.99"/>
<polygon fill="black" stroke="black" points="364.84,-140.99 368.34,-150.99 371.84,-140.99 364.84,-140.99"/>
</g>
<!-- OutputEditModule -->
<g id="node5" class="node">
<title>OutputEditModule</title>
<polygon fill="#8dd3c7" stroke="black" points="319.77,-122 316.77,-126 295.77,-126 292.77,-122 198.23,-122 198.23,-86 319.77,-86 319.77,-122"/>
<text text-anchor="middle" x="259" y="-99.8" font-family="Times,serif" font-size="14.00">OutputEditModule</text>
</g>
<!-- OutputEditModule&#45;&gt;PurposeEditModule -->
<g id="edge4" class="edge">
<title>OutputEditModule&#45;&gt;PurposeEditModule</title>
<path fill="none" stroke="black" d="M295.45,-122.11C295.45,-122.11 295.45,-140.99 295.45,-140.99"/>
<polygon fill="black" stroke="black" points="291.95,-140.99 295.45,-150.99 298.95,-140.99 291.95,-140.99"/>
</g>
</g>
</svg>
