<?xml version="1.0" encoding="UTF-8" standalone="no"?>
<!DOCTYPE svg PUBLIC "-//W3C//DTD SVG 1.1//EN"
 "http://www.w3.org/Graphics/SVG/1.1/DTD/svg11.dtd">
<!-- Generated by graphviz version 2.47.0 (20210316.0004)
 -->
<!-- Title: dependencies Pages: 1 -->
<svg width="504pt" height="211pt"
 viewBox="0.00 0.00 504.00 211.00" xmlns="http://www.w3.org/2000/svg" xmlns:xlink="http://www.w3.org/1999/xlink">
<g id="graph0" class="graph" transform="scale(1 1) rotate(0) translate(4 207)">
<title>dependencies</title>
<polygon fill="white" stroke="transparent" points="-4,4 -4,-207 500,-207 500,4 -4,4"/>
<text text-anchor="start" x="227.01" y="-42.4" font-family="Times-12" font-weight="bold" font-size="14.00">Legend</text>
<polygon fill="#ffffb3" stroke="transparent" points="14,-10 14,-30 34,-30 34,-10 14,-10"/>
<text text-anchor="start" x="37.63" y="-15.4" font-family="Times-12" font-size="14.00"> &#160;Declarations</text>
<polygon fill="#8dd3c7" stroke="transparent" points="127,-10 127,-30 147,-30 147,-10 127,-10"/>
<text text-anchor="start" x="150.73" y="-15.4" font-family="Times-12" font-size="14.00"> &#160;Module</text>
<polygon fill="#80b1d3" stroke="transparent" points="213,-10 213,-30 233,-30 233,-10 213,-10"/>
<text text-anchor="start" x="236.78" y="-15.4" font-family="Times-12" font-size="14.00"> &#160;Bootstrap</text>
<polygon fill="#fdb462" stroke="transparent" points="310,-10 310,-30 330,-30 330,-10 310,-10"/>
<text text-anchor="start" x="333.67" y="-15.4" font-family="Times-12" font-size="14.00"> &#160;Providers</text>
<polygon fill="#fb8072" stroke="transparent" points="406,-10 406,-30 426,-30 426,-10 406,-10"/>
<text text-anchor="start" x="429.73" y="-15.4" font-family="Times-12" font-size="14.00"> &#160;Exports</text>
<g id="clust1" class="cluster">
<title>cluster_EditModule</title>
<polygon fill="none" stroke="black" stroke-dasharray="1,5" points="104,-70 104,-195 392,-195 392,-70 104,-70"/>
</g>
<g id="clust4" class="cluster">
<title>cluster_EditModule_imports</title>
<polygon fill="none" stroke="black" points="240,-78 240,-130 384,-130 384,-78 240,-78"/>
</g>
<g id="clust2" class="cluster">
<title>cluster_EditModule_declarations</title>
<polygon fill="none" stroke="black" points="112,-78 112,-130 232,-130 232,-78 112,-78"/>
</g>
<!-- EditComponent -->
<g id="node1" class="node">
<title>EditComponent</title>
<polygon fill="#ffffb3" stroke="black" points="224.17,-122 119.83,-122 119.83,-86 224.17,-86 224.17,-122"/>
<text text-anchor="middle" x="172" y="-99.8" font-family="Times,serif" font-size="14.00">EditComponent</text>
</g>
<!-- EditModule -->
<g id="node2" class="node">
<title>EditModule</title>
<polygon fill="#8dd3c7" stroke="black" points="283.38,-187 280.38,-191 259.38,-191 256.38,-187 200.62,-187 200.62,-151 283.38,-151 283.38,-187"/>
<text text-anchor="middle" x="242" y="-164.8" font-family="Times,serif" font-size="14.00">EditModule</text>
</g>
<!-- EditComponent&#45;&gt;EditModule -->
<g id="edge1" class="edge">
<title>EditComponent&#45;&gt;EditModule</title>
<path fill="none" stroke="black" d="M212.45,-122.11C212.45,-122.11 212.45,-140.99 212.45,-140.99"/>
<polygon fill="black" stroke="black" points="208.95,-140.99 212.45,-150.99 215.95,-140.99 208.95,-140.99"/>
</g>
<!-- EditRoutingModule -->
<g id="node3" class="node">
<title>EditRoutingModule</title>
<polygon fill="#8dd3c7" stroke="black" points="376,-122 373,-126 352,-126 349,-122 248,-122 248,-86 376,-86 376,-122"/>
<text text-anchor="middle" x="312" y="-99.8" font-family="Times,serif" font-size="14.00">EditRoutingModule</text>
</g>
<!-- EditRoutingModule&#45;&gt;EditModule -->
<g id="edge2" class="edge">
<title>EditRoutingModule&#45;&gt;EditModule</title>
<path fill="none" stroke="black" d="M265.72,-122.11C265.72,-122.11 265.72,-140.99 265.72,-140.99"/>
<polygon fill="black" stroke="black" points="262.22,-140.99 265.72,-150.99 269.22,-140.99 262.22,-140.99"/>
</g>
</g>
</svg>
