<?xml version="1.0" encoding="UTF-8" standalone="no"?>
<!DOCTYPE svg PUBLIC "-//W3C//DTD SVG 1.1//EN"
 "http://www.w3.org/Graphics/SVG/1.1/DTD/svg11.dtd">
<!-- Generated by graphviz version 2.47.0 (20210316.0004)
 -->
<!-- Title: dependencies Pages: 1 -->
<svg width="794pt" height="211pt"
 viewBox="0.00 0.00 794.00 211.00" xmlns="http://www.w3.org/2000/svg" xmlns:xlink="http://www.w3.org/1999/xlink">
<g id="graph0" class="graph" transform="scale(1 1) rotate(0) translate(4 207)">
<title>dependencies</title>
<polygon fill="white" stroke="transparent" points="-4,4 -4,-207 790,-207 790,4 -4,4"/>
<text text-anchor="start" x="372.01" y="-42.4" font-family="Times-12" font-weight="bold" font-size="14.00">Legend</text>
<polygon fill="#ffffb3" stroke="transparent" points="159,-10 159,-30 179,-30 179,-10 159,-10"/>
<text text-anchor="start" x="182.63" y="-15.4" font-family="Times-12" font-size="14.00"> &#160;Declarations</text>
<polygon fill="#8dd3c7" stroke="transparent" points="272,-10 272,-30 292,-30 292,-10 272,-10"/>
<text text-anchor="start" x="295.73" y="-15.4" font-family="Times-12" font-size="14.00"> &#160;Module</text>
<polygon fill="#80b1d3" stroke="transparent" points="358,-10 358,-30 378,-30 378,-10 358,-10"/>
<text text-anchor="start" x="381.78" y="-15.4" font-family="Times-12" font-size="14.00"> &#160;Bootstrap</text>
<polygon fill="#fdb462" stroke="transparent" points="455,-10 455,-30 475,-30 475,-10 455,-10"/>
<text text-anchor="start" x="478.67" y="-15.4" font-family="Times-12" font-size="14.00"> &#160;Providers</text>
<polygon fill="#fb8072" stroke="transparent" points="551,-10 551,-30 571,-30 571,-10 551,-10"/>
<text text-anchor="start" x="574.73" y="-15.4" font-family="Times-12" font-size="14.00"> &#160;Exports</text>
<g id="clust1" class="cluster">
<title>cluster_ProjectModule</title>
<polygon fill="none" stroke="black" stroke-dasharray="1,5" points="8,-70 8,-195 778,-195 778,-70 8,-70"/>
</g>
<g id="clust2" class="cluster">
<title>cluster_ProjectModule_declarations</title>
<polygon fill="none" stroke="black" points="634,-78 634,-130 770,-130 770,-78 634,-78"/>
</g>
<g id="clust4" class="cluster">
<title>cluster_ProjectModule_imports</title>
<polygon fill="none" stroke="black" points="16,-78 16,-130 626,-130 626,-78 16,-78"/>
</g>
<!-- ProjectComponent -->
<g id="node1" class="node">
<title>ProjectComponent</title>
<polygon fill="#ffffb3" stroke="black" points="762.49,-122 641.51,-122 641.51,-86 762.49,-86 762.49,-122"/>
<text text-anchor="middle" x="702" y="-99.8" font-family="Times,serif" font-size="14.00">ProjectComponent</text>
</g>
<!-- ProjectModule -->
<g id="node2" class="node">
<title>ProjectModule</title>
<polygon fill="#8dd3c7" stroke="black" points="439.7,-187 436.7,-191 415.7,-191 412.7,-187 340.3,-187 340.3,-151 439.7,-151 439.7,-187"/>
<text text-anchor="middle" x="390" y="-164.8" font-family="Times,serif" font-size="14.00">ProjectModule</text>
</g>
<!-- ProjectComponent&#45;&gt;ProjectModule -->
<g id="edge1" class="edge">
<title>ProjectComponent&#45;&gt;ProjectModule</title>
<path fill="none" stroke="black" d="M702,-122.28C702,-143.32 702,-175 702,-175 702,-175 449.78,-175 449.78,-175"/>
<polygon fill="black" stroke="black" points="449.78,-171.5 439.78,-175 449.78,-178.5 449.78,-171.5"/>
</g>
<!-- BreadcrumbModule -->
<g id="node3" class="node">
<title>BreadcrumbModule</title>
<polygon fill="#8dd3c7" stroke="black" points="618.24,-122 615.24,-126 594.24,-126 591.24,-122 489.76,-122 489.76,-86 618.24,-86 618.24,-122"/>
<text text-anchor="middle" x="554" y="-99.8" font-family="Times,serif" font-size="14.00">BreadcrumbModule</text>
</g>
<!-- BreadcrumbModule&#45;&gt;ProjectModule -->
<g id="edge2" class="edge">
<title>BreadcrumbModule&#45;&gt;ProjectModule</title>
<path fill="none" stroke="black" d="M554,-122.02C554,-139.37 554,-163 554,-163 554,-163 449.65,-163 449.65,-163"/>
<polygon fill="black" stroke="black" points="449.65,-159.5 439.65,-163 449.65,-166.5 449.65,-159.5"/>
</g>
<!-- InformationsPanelModule -->
<g id="node4" class="node">
<title>InformationsPanelModule</title>
<polygon fill="#8dd3c7" stroke="black" points="471.47,-122 468.47,-126 447.47,-126 444.47,-122 308.53,-122 308.53,-86 471.47,-86 471.47,-122"/>
<text text-anchor="middle" x="390" y="-99.8" font-family="Times,serif" font-size="14.00">InformationsPanelModule</text>
</g>
<!-- InformationsPanelModule&#45;&gt;ProjectModule -->
<g id="edge3" class="edge">
<title>InformationsPanelModule&#45;&gt;ProjectModule</title>
<path fill="none" stroke="black" d="M390,-122.11C390,-122.11 390,-140.99 390,-140.99"/>
<polygon fill="black" stroke="black" points="386.5,-140.99 390,-150.99 393.5,-140.99 386.5,-140.99"/>
</g>
<!-- ProjectRoutingModule -->
<g id="node5" class="node">
<title>ProjectRoutingModule</title>
<polygon fill="#8dd3c7" stroke="black" points="290.32,-122 287.32,-126 266.32,-126 263.32,-122 145.68,-122 145.68,-86 290.32,-86 290.32,-122"/>
<text text-anchor="middle" x="218" y="-99.8" font-family="Times,serif" font-size="14.00">ProjectRoutingModule</text>
</g>
<!-- ProjectRoutingModule&#45;&gt;ProjectModule -->
<g id="edge4" class="edge">
<title>ProjectRoutingModule&#45;&gt;ProjectModule</title>
<path fill="none" stroke="black" d="M218,-122.02C218,-139.37 218,-163 218,-163 218,-163 330.25,-163 330.25,-163"/>
<polygon fill="black" stroke="black" points="330.25,-166.5 340.25,-163 330.25,-159.5 330.25,-166.5"/>
</g>
<!-- SidenavModule -->
<g id="node6" class="node">
<title>SidenavModule</title>
<polygon fill="#8dd3c7" stroke="black" points="128.15,-122 125.15,-126 104.15,-126 101.15,-122 23.85,-122 23.85,-86 128.15,-86 128.15,-122"/>
<text text-anchor="middle" x="76" y="-99.8" font-family="Times,serif" font-size="14.00">SidenavModule</text>
</g>
<!-- SidenavModule&#45;&gt;ProjectModule -->
<g id="edge5" class="edge">
<title>SidenavModule&#45;&gt;ProjectModule</title>
<path fill="none" stroke="black" d="M76,-122.28C76,-143.32 76,-175 76,-175 76,-175 330.25,-175 330.25,-175"/>
<polygon fill="black" stroke="black" points="330.25,-178.5 340.25,-175 330.25,-171.5 330.25,-178.5"/>
</g>
</g>
</svg>
