<?xml version="1.0" encoding="UTF-8"?>
<svg width="24px" height="24px" viewBox="0 0 24 24" version="1.1" xmlns="http://www.w3.org/2000/svg" xmlns:xlink="http://www.w3.org/1999/xlink">
    <title>010</title>
    <g id="010" stroke="none" stroke-width="1" fill="none" fill-rule="evenodd">
        <path d="M17.6913388,9.27931334 C17.2843405,8.90689555 16.627023,8.90689555 16.2200247,9.27931334 L12.4739129,12.679568 L8.77997529,9.27931334 C8.37297698,8.90689555 7.71565948,8.90689555 7.30866117,9.27931334 C7.11111622,9.45966764 7,9.70517358 7,9.96128531 C7,10.217397 7.11111622,10.462903 7.30866117,10.6432573 L11.7330384,14.7158786 C11.9289701,14.897718 12.1956805,15 12.4739129,15 C12.7521452,15 13.0188557,14.897718 13.2147874,14.7158786 L17.6913388,10.6432573 C17.8888838,10.462903 18,10.217397 18,9.96128531 C18,9.70517358 17.8888838,9.45966764 17.6913388,9.27931334 L17.6913388,9.27931334 Z" id="Path" fill="#FFFFFF" fill-rule="nonzero"></path>
    </g>
</svg>