<?xml version="1.0" encoding="UTF-8"?>
<svg width="24px" height="24px" viewBox="0 0 24 24" version="1.1" xmlns="http://www.w3.org/2000/svg" xmlns:xlink="http://www.w3.org/1999/xlink">
    <title>008</title>
    <g id="008" stroke="none" stroke-width="1" fill="none" fill-rule="evenodd">
        <path d="M15,16 L9,16 C8.44771525,16 8,16.4477153 8,17 C8,17.5522847 8.44771525,18 9,18 L15,18 C15.5522847,18 16,17.5522847 16,17 C16,16.4477153 15.5522847,16 15,16 Z M9,10 L10,10 C10.5522847,10 11,9.55228475 11,9 C11,8.44771525 10.5522847,8 10,8 L9,8 C8.44771525,8 8,8.44771525 8,9 C8,9.55228475 8.44771525,10 9,10 Z M15,12 L9,12 C8.44771525,12 8,12.4477153 8,13 C8,13.5522847 8.44771525,14 9,14 L15,14 C15.5522847,14 16,13.5522847 16,13 C16,12.4477153 15.5522847,12 15,12 Z M19.71,15.29 C19.6148963,15.1989594 19.5027513,15.1275944 19.38,15.08 C19.1385051,14.9704725 18.8614949,14.9704725 18.62,15.08 C18.4972487,15.1275944 18.3851037,15.1989594 18.29,15.29 C18.2016691,15.3872009 18.1306419,15.4988151 18.08,15.62 C17.9234033,15.9923971 18.0062554,16.4224393 18.29,16.71 C18.4787188,16.8971865 18.734197,17.0015368 19,17.0000167 C19.1306773,16.99842 19.2597777,16.971241 19.38,16.92 C19.5011849,16.8693581 19.6127991,16.7983309 19.71,16.71 C19.9937446,16.4224393 20.0765967,15.9923971 19.92,15.62 C19.8693581,15.4988151 19.7983309,15.3872009 19.71,15.29 L19.71,15.29 Z M20,8.94 C19.9895837,8.8481349 19.9694716,8.75763058 19.94,8.67 L19.94,8.58 C19.8919189,8.47717975 19.8277838,8.38266483 19.75,8.3 L19.75,8.3 L13.75,2.3 L13.75,2.3 C13.6673352,2.22221621 13.5728202,2.15808108 13.47,2.11 C13.4401498,2.10576018 13.4098502,2.10576018 13.38,2.11 C13.2784148,2.05174135 13.1662233,2.0143442 13.05,2 L7,2 C5.34314575,2 4,3.34314575 4,5 L4,19 C4,20.6568542 5.34314575,22 7,22 L15,22 C15.5522847,22 16,21.5522847 16,21 C16,20.4477153 15.5522847,20 15,20 L7,20 C6.44771525,20 6,19.5522847 6,19 L6,5 C6,4.44771525 6.44771525,4 7,4 L12,4 L12,7 C12,8.65685425 13.3431458,10 15,10 L18,10 L18,12 C18,12.5522847 18.4477153,13 19,13 C19.5522847,13 20,12.5522847 20,12 L20,9 C20,9 20,9 20,8.94 Z M15,8 C14.4477153,8 14,7.55228475 14,7 L14,5.41 L16.59,8 L15,8 Z M19,18 C18.4477153,18 18,18.4477153 18,19 L18,21 C18,21.5522847 18.4477153,22 19,22 C19.5522847,22 20,21.5522847 20,21 L20,19 C20,18.4477153 19.5522847,18 19,18 Z" id="Shape" fill="#90B6DF" fill-rule="nonzero"></path>
    </g>
</svg>