<svg xmlns="http://www.w3.org/2000/svg" width="64" height="64" viewBox="0 0 64 64"><path d="M 32 10.328125 C 23.715733 10.328125 17 17.043817 17 25.328125 C 17 31.933454 26.537074 46.441396 30.402344 52.050781 C 31.274069 53.315902 32.72598 53.315827 33.597656 52.050781 C 37.462869 46.441509 47 31.933529 47 25.328125 C 47 17.043817 40.284274 10.328125 32 10.328125 z M 32 17.328125 A 7.9999992 7.9999992 0 0 1 40 25.328125 A 7.9999992 7.9999992 0 0 1 32 33.328125 A 7.9999992 7.9999992 0 0 1 24 25.328125 A 7.9999992 7.9999992 0 0 1 32 17.328125 z "/></svg>