<?xml version="1.0" encoding="UTF-8"?>
<svg width="24px" height="24px" viewBox="0 0 24 24" version="1.1" xmlns="http://www.w3.org/2000/svg" xmlns:xlink="http://www.w3.org/1999/xlink">
    <title>005</title>
    <g id="005" stroke="none" stroke-width="1" fill="none" fill-rule="evenodd">
        <g id="sliders-v" transform="translate(2.000000, 2.000000)" fill="#90B6DF" fill-rule="nonzero">
            <path d="M5,4 L4,4 L4,1 C4,0.44771525 3.55228475,0 3,0 C2.44771525,0 2,0.44771525 2,1 L2,4 L1,4 C0.44771525,4 0,4.44771525 0,5 C0,5.55228475 0.44771525,6 1,6 L5,6 C5.55228475,6 6,5.55228475 6,5 C6,4.44771525 5.55228475,4 5,4 Z M3,8 C2.44771525,8 2,8.44771525 2,9 L2,19 C2,19.5522847 2.44771525,20 3,20 C3.55228475,20 4,19.5522847 4,19 L4,9 C4,8.44771525 3.55228475,8 3,8 Z M10,16 C9.44771525,16 9,16.4477153 9,17 L9,19 C9,19.5522847 9.44771525,20 10,20 C10.5522847,20 11,19.5522847 11,19 L11,17 C11,16.4477153 10.5522847,16 10,16 Z M19,8 L18,8 L18,1 C18,0.44771525 17.5522847,0 17,0 C16.4477153,0 16,0.44771525 16,1 L16,8 L15,8 C14.4477153,8 14,8.44771525 14,9 C14,9.55228475 14.4477153,10 15,10 L19,10 C19.5522847,10 20,9.55228475 20,9 C20,8.44771525 19.5522847,8 19,8 Z M17,12 C16.4477153,12 16,12.4477153 16,13 L16,19 C16,19.5522847 16.4477153,20 17,20 C17.5522847,20 18,19.5522847 18,19 L18,13 C18,12.4477153 17.5522847,12 17,12 Z M12,12 L11,12 L11,1 C11,0.44771525 10.5522847,0 10,0 C9.44771525,0 9,0.44771525 9,1 L9,12 L8,12 C7.44771525,12 7,12.4477153 7,13 C7,13.5522847 7.44771525,14 8,14 L12,14 C12.5522847,14 13,13.5522847 13,13 C13,12.4477153 12.5522847,12 12,12 Z" id="Shape"></path>
        </g>
    </g>
</svg>