<?xml version="1.0" encoding="UTF-8"?>
<svg width="24px" height="24px" viewBox="0 0 24 24" version="1.1" xmlns="http://www.w3.org/2000/svg" xmlns:xlink="http://www.w3.org/1999/xlink">
    <title>002</title>
    <g id="002" stroke="none" stroke-width="1" fill="none" fill-rule="evenodd">
        <g id="brightness-plus" transform="translate(1.000000, 2.000000)" fill="#90B6DF" fill-rule="nonzero">
            <path d="M13,10 L12,10 L12,9 C12,8.44771525 11.5522847,8 11,8 C10.4477153,8 10,8.44771525 10,9 L10,10 L9,10 C8.44771525,10 8,10.4477153 8,11 C8,11.5522847 8.44771525,12 9,12 L10,12 L10,13 C10,13.5522847 10.4477153,14 11,14 C11.5522847,14 12,13.5522847 12,13 L12,12 L13,12 C13.5522847,12 14,11.5522847 14,11 C14,10.4477153 13.5522847,10 13,10 Z M20.71,10.29 L18.36,8 L18.36,4.64 C18.36,4.08771525 17.9122847,3.64 17.36,3.64 L14.05,3.64 L11.71,1.29 C11.5222334,1.10068735 11.2666375,0.994201676 11,0.994201676 C10.7333625,0.994201676 10.4777666,1.10068735 10.29,1.29 L8,3.64 L4.64,3.64 C4.08771525,3.64 3.64,4.08771525 3.64,4.64 L3.64,8 L1.29,10.29 C1.10068735,10.4777666 0.994201676,10.7333625 0.994201676,11 C0.994201676,11.2666375 1.10068735,11.5222334 1.29,11.71 L3.64,14.05 L3.64,17.36 C3.64,17.9122847 4.08771525,18.36 4.64,18.36 L8,18.36 L10.34,20.71 C10.5277666,20.8993127 10.7833625,21.0057983 11.05,21.0057983 C11.3166375,21.0057983 11.5722334,20.8993127 11.76,20.71 L14.1,18.36 L17.41,18.36 C17.9622847,18.36 18.41,17.9122847 18.41,17.36 L18.41,14.05 L20.76,11.71 C20.9428579,11.5156442 21.0404492,11.2562643 21.0310588,10.9895754 C21.0216683,10.7228865 20.9060751,10.4710131 20.71,10.29 Z M16.66,12.93 C16.4691444,13.1170714 16.3611094,13.3727541 16.36,13.64 L16.36,16.36 L13.64,16.36 C13.3727541,16.3611094 13.1170714,16.4691444 12.93,16.66 L11,18.59 L9.07,16.66 C8.88292856,16.4691444 8.6272459,16.3611094 8.36,16.36 L5.64,16.36 L5.64,13.64 C5.63889058,13.3727541 5.53085565,13.1170714 5.34,12.93 L3.41,11 L5.34,9.07 C5.53085565,8.88292856 5.63889058,8.6272459 5.64,8.36 L5.64,5.64 L8.36,5.64 C8.6272459,5.63889058 8.88292856,5.53085565 9.07,5.34 L11,3.41 L12.93,5.34 C13.1170714,5.53085565 13.3727541,5.63889058 13.64,5.64 L16.36,5.64 L16.36,8.36 C16.3611094,8.6272459 16.4691444,8.88292856 16.66,9.07 L18.59,11 L16.66,12.93 Z" id="Shape"></path>
        </g>
    </g>
</svg>