<?xml version="1.0" encoding="UTF-8" standalone="no"?>
<!DOCTYPE svg PUBLIC "-//W3C//DTD SVG 1.1//EN"
 "http://www.w3.org/Graphics/SVG/1.1/DTD/svg11.dtd">
<!-- Generated by graphviz version 2.47.0 (20210316.0004)
 -->
<!-- Title: dependencies Pages: 1 -->
<svg width="1520pt" height="370pt"
 viewBox="0.00 0.00 1520.00 370.11" xmlns="http://www.w3.org/2000/svg" xmlns:xlink="http://www.w3.org/1999/xlink">
<g id="graph0" class="graph" transform="scale(1 1) rotate(0) translate(4 366.11)">
<title>dependencies</title>
<polygon fill="white" stroke="transparent" points="-4,4 -4,-366.11 1516,-366.11 1516,4 -4,4"/>
<text text-anchor="start" x="735.01" y="-42.4" font-family="Times-12" font-weight="bold" font-size="14.00">Legend</text>
<polygon fill="#ffffb3" stroke="transparent" points="522,-10 522,-30 542,-30 542,-10 522,-10"/>
<text text-anchor="start" x="545.63" y="-15.4" font-family="Times-12" font-size="14.00"> &#160;Declarations</text>
<polygon fill="#8dd3c7" stroke="transparent" points="635,-10 635,-30 655,-30 655,-10 635,-10"/>
<text text-anchor="start" x="658.73" y="-15.4" font-family="Times-12" font-size="14.00"> &#160;Module</text>
<polygon fill="#80b1d3" stroke="transparent" points="721,-10 721,-30 741,-30 741,-10 721,-10"/>
<text text-anchor="start" x="744.78" y="-15.4" font-family="Times-12" font-size="14.00"> &#160;Bootstrap</text>
<polygon fill="#fdb462" stroke="transparent" points="818,-10 818,-30 838,-30 838,-10 818,-10"/>
<text text-anchor="start" x="841.67" y="-15.4" font-family="Times-12" font-size="14.00"> &#160;Providers</text>
<polygon fill="#fb8072" stroke="transparent" points="914,-10 914,-30 934,-30 934,-10 914,-10"/>
<text text-anchor="start" x="937.73" y="-15.4" font-family="Times-12" font-size="14.00"> &#160;Exports</text>
<g id="clust1" class="cluster">
<title>cluster_InputsModule</title>
<polygon fill="none" stroke="black" stroke-dasharray="1,5" points="8,-70 8,-354.11 1504,-354.11 1504,-70 8,-70"/>
</g>
<g id="clust4" class="cluster">
<title>cluster_InputsModule_imports</title>
<polygon fill="none" stroke="black" points="1340,-237.11 1340,-289.11 1496,-289.11 1496,-237.11 1340,-237.11"/>
</g>
<g id="clust3" class="cluster">
<title>cluster_InputsModule_InputsComponent_providers</title>
<polygon fill="none" stroke="black" points="16,-78 16,-289.11 1332,-289.11 1332,-78 16,-78"/>
</g>
<!-- InputsComponent -->
<g id="node1" class="node">
<title>InputsComponent</title>
<polygon fill="#ffffb3" stroke="black" points="1049.33,-281.11 932.67,-281.11 932.67,-245.11 1049.33,-245.11 1049.33,-281.11"/>
<text text-anchor="middle" x="991" y="-258.91" font-family="Times,serif" font-size="14.00">InputsComponent</text>
</g>
<!-- InputsModule -->
<g id="node2" class="node">
<title>InputsModule</title>
<polygon fill="#8dd3c7" stroke="black" points="1251.05,-346.11 1248.05,-350.11 1227.05,-350.11 1224.05,-346.11 1156.95,-346.11 1156.95,-310.11 1251.05,-310.11 1251.05,-346.11"/>
<text text-anchor="middle" x="1204" y="-323.91" font-family="Times,serif" font-size="14.00">InputsModule</text>
</g>
<!-- InputsComponent&#45;&gt;InputsModule -->
<g id="edge1" class="edge">
<title>InputsComponent&#45;&gt;InputsModule</title>
<path fill="none" stroke="black" d="M1049.38,-269.11C1107.54,-269.11 1188.24,-269.11 1188.24,-269.11 1188.24,-269.11 1188.24,-300.09 1188.24,-300.09"/>
<polygon fill="black" stroke="black" points="1184.74,-300.09 1188.24,-310.09 1191.74,-300.09 1184.74,-300.09"/>
</g>
<!-- {
 &#160;&#160;&#160;provide: DateAdapter, useClass: MomentDateAdapter, deps: [
 &#160;&#160;&#160;&#160;&#160;&#160;&#160;MAT_DATE_LOCALE, MAT_MOMENT_DATE_ADAPTER_OPTIONS
 &#160;&#160;&#160;]
} -->
<g id="node3" class="node">
<title>{
 &#160;&#160;&#160;provide: DateAdapter, useClass: MomentDateAdapter, deps: [
 &#160;&#160;&#160;&#160;&#160;&#160;&#160;MAT_DATE_LOCALE, MAT_MOMENT_DATE_ADAPTER_OPTIONS
 &#160;&#160;&#160;]
}</title>
<ellipse fill="#fdb462" stroke="black" cx="991" cy="-151.05" rx="332.96" ry="65.11"/>
<text text-anchor="middle" x="991" y="-180.45" font-family="Times,serif" font-size="14.00">{</text>
<text text-anchor="middle" x="991" y="-163.65" font-family="Times,serif" font-size="14.00"> &#160;&#160;&#160;provide: DateAdapter, useClass: MomentDateAdapter, deps: [</text>
<text text-anchor="middle" x="991" y="-146.85" font-family="Times,serif" font-size="14.00"> &#160;&#160;&#160;&#160;&#160;&#160;&#160;MAT_DATE_LOCALE, MAT_MOMENT_DATE_ADAPTER_OPTIONS</text>
<text text-anchor="middle" x="991" y="-130.05" font-family="Times,serif" font-size="14.00"> &#160;&#160;&#160;]</text>
<text text-anchor="middle" x="991" y="-113.25" font-family="Times,serif" font-size="14.00">}</text>
</g>
<!-- {
 &#160;&#160;&#160;provide: DateAdapter, useClass: MomentDateAdapter, deps: [
 &#160;&#160;&#160;&#160;&#160;&#160;&#160;MAT_DATE_LOCALE, MAT_MOMENT_DATE_ADAPTER_OPTIONS
 &#160;&#160;&#160;]
}&#45;&gt;InputsComponent -->
<g id="edge2" class="edge">
<title>{
 &#160;&#160;&#160;provide: DateAdapter, useClass: MomentDateAdapter, deps: [
 &#160;&#160;&#160;&#160;&#160;&#160;&#160;MAT_DATE_LOCALE, MAT_MOMENT_DATE_ADAPTER_OPTIONS
 &#160;&#160;&#160;]
}&#45;&gt;InputsComponent</title>
<path fill="none" stroke="black" d="M991,-216.24C991,-216.24 991,-235.1 991,-235.1"/>
<polygon fill="black" stroke="black" points="987.5,-235.1 991,-245.1 994.5,-235.1 987.5,-235.1"/>
</g>
<!-- {
 &#160;&#160;&#160;provide: MAT_DATE_FORMATS, useValue: MY_DATE_FORMATS
} -->
<g id="node4" class="node">
<title>{
 &#160;&#160;&#160;provide: MAT_DATE_FORMATS, useValue: MY_DATE_FORMATS
}</title>
<ellipse fill="#fdb462" stroke="black" cx="332" cy="-151.05" rx="307.89" ry="41.09"/>
<text text-anchor="middle" x="332" y="-163.65" font-family="Times,serif" font-size="14.00">{</text>
<text text-anchor="middle" x="332" y="-146.85" font-family="Times,serif" font-size="14.00"> &#160;&#160;&#160;provide: MAT_DATE_FORMATS, useValue: MY_DATE_FORMATS</text>
<text text-anchor="middle" x="332" y="-130.05" font-family="Times,serif" font-size="14.00">}</text>
</g>
<!-- {
 &#160;&#160;&#160;provide: MAT_DATE_FORMATS, useValue: MY_DATE_FORMATS
}&#45;&gt;InputsComponent -->
<g id="edge3" class="edge">
<title>{
 &#160;&#160;&#160;provide: MAT_DATE_FORMATS, useValue: MY_DATE_FORMATS
}&#45;&gt;InputsComponent</title>
<path fill="none" stroke="black" d="M332,-192.46C332,-224.38 332,-263.11 332,-263.11 332,-263.11 922.81,-263.11 922.81,-263.11"/>
<polygon fill="black" stroke="black" points="922.81,-266.61 932.81,-263.11 922.81,-259.61 922.81,-266.61"/>
</g>
<!-- InputsRoutingModule -->
<g id="node5" class="node">
<title>InputsRoutingModule</title>
<polygon fill="#8dd3c7" stroke="black" points="1487.66,-281.11 1484.66,-285.11 1463.66,-285.11 1460.66,-281.11 1348.34,-281.11 1348.34,-245.11 1487.66,-245.11 1487.66,-281.11"/>
<text text-anchor="middle" x="1418" y="-258.91" font-family="Times,serif" font-size="14.00">InputsRoutingModule</text>
</g>
<!-- InputsRoutingModule&#45;&gt;InputsModule -->
<g id="edge4" class="edge">
<title>InputsRoutingModule&#45;&gt;InputsModule</title>
<path fill="none" stroke="black" d="M1348.11,-257.11C1291.03,-257.11 1219.76,-257.11 1219.76,-257.11 1219.76,-257.11 1219.76,-299.82 1219.76,-299.82"/>
<polygon fill="black" stroke="black" points="1216.26,-299.82 1219.76,-309.82 1223.26,-299.82 1216.26,-299.82"/>
</g>
</g>
</svg>
